<svg width="49" height="48" viewBox="0 0 49 48" fill="none" xmlns="http://www.w3.org/2000/svg">
<path d="M44.4631 2.52739C41.7745 0.0191033 39.2291 -0.702092 35.7769 0.724397C32.7224 1.9865 30.3361 4.74933 27.9285 6.94475C24.3066 10.2485 20.812 13.7007 17.3757 17.2006C14.0614 20.5839 10.8054 24.0255 7.61299 27.5254C6.1918 29.0845 4.58501 30.633 3.35473 32.367C3.307 32.42 3.26459 32.4731 3.22747 32.5473C3.17444 32.6216 3.14793 32.6958 3.12142 32.7647C2.27295 34.4723 1.92294 36.5563 1.50401 38.3752C0.830539 41.2865 0.268435 44.2403 0.00328865 47.2205C-0.0497407 47.7879 0.549488 48.0584 1.01084 47.9895C5.66152 47.263 10.2539 46.2342 14.8886 45.4175C16.7765 45.0834 17.5984 43.7842 18.9188 42.4161C21.1302 40.1305 23.3309 37.829 25.5369 35.5329C29.6308 31.2587 33.7247 26.9898 37.8875 22.7846C41.3185 19.3165 46.1653 15.5567 47.8039 10.7841C49.0024 7.25231 46.9236 4.82356 44.4631 2.52739ZM39.542 19.0195C37.6382 17.4446 36.1905 15.6097 34.4777 13.7961C32.68 11.8871 30.7497 10.1106 28.8141 8.3394C29.1694 8.01062 29.5194 7.68716 29.8747 7.35837C33.4648 10.8901 37.0072 14.4643 40.5018 18.0862C40.1836 18.4044 39.8654 18.712 39.542 19.0195ZM35.2731 23.1611C31.9057 19.3589 27.971 16.0923 24.1528 12.7514C24.4657 12.4492 24.7839 12.1416 25.1021 11.8393C29.1588 14.8143 32.5951 18.7332 36.1322 22.2914C35.9943 22.424 35.8617 22.5619 35.7292 22.6945C35.5754 22.8482 35.4269 23.0073 35.2731 23.1611ZM14.7348 38.4017H14.7295C13.2182 38.4919 11.7016 38.4919 10.1849 38.5396C10.1319 37.3836 10.1425 35.5435 9.71825 34.4723C12.4493 31.7943 14.8038 28.8724 17.4075 26.083C20.3454 22.9384 23.4635 19.9422 26.502 16.893C28.0823 18.2718 29.6414 19.6771 31.1421 21.1354C25.8127 27.0269 20.3984 32.839 14.7348 38.4017ZM27.9391 9.15606C28.2202 9.4159 28.5013 9.67044 28.7823 9.93028C28.2202 10.5825 27.621 11.1977 26.9899 11.781C26.6558 11.5159 26.3111 11.2613 25.9717 11.0068C26.624 10.3863 27.2816 9.7712 27.9391 9.15606ZM31.8262 16.1824C32.4466 15.6893 33.03 15.1537 33.5815 14.581C33.6027 14.6022 33.6186 14.6181 33.6398 14.6393C33.9739 14.9946 34.2921 15.3446 34.6102 15.6946C34.1065 16.2832 33.5602 16.8241 32.9663 17.3226C32.5898 16.9461 32.208 16.5643 31.8262 16.1824ZM30.9777 15.3499C30.6489 15.0317 30.3202 14.7082 29.9914 14.3954C30.5376 13.8014 31.0997 13.2234 31.6724 12.656C32.0383 13.0113 32.3936 13.3719 32.7489 13.7325C32.1921 14.3052 31.6035 14.8461 30.9777 15.3499ZM29.1058 13.5893C28.7134 13.234 28.3157 12.8893 27.9126 12.5446C28.5278 11.9719 29.1111 11.3727 29.6573 10.7363C30.0444 11.0969 30.4315 11.4575 30.8133 11.8181C30.23 12.4015 29.6626 12.9901 29.1058 13.5893ZM33.7989 18.187C34.3822 17.6991 34.9178 17.1688 35.411 16.5961C35.761 16.9885 36.1163 17.3756 36.4769 17.7574C35.9466 18.2771 35.4428 18.818 34.9549 19.3801C34.5678 18.9771 34.1807 18.5847 33.7989 18.187ZM14.0189 22.9808C16.9621 19.8786 19.9582 16.8347 23.0127 13.8545C23.8718 14.6075 24.7362 15.3552 25.6006 16.1082C22.5832 19.1415 19.4863 22.1111 16.5643 25.2399C13.9606 28.0292 11.6061 30.9511 8.87509 33.6291C8.41373 33.4965 7.81981 33.4753 7.48572 33.417C6.61074 33.2579 5.73045 33.1253 4.85016 33.0087C7.42209 29.3921 10.9857 26.1785 14.0189 22.9808ZM7.95238 45.2478C6.70089 43.6304 4.69108 41.6259 2.75551 40.0669C2.84566 39.6426 2.93581 39.2237 3.03657 38.7995C3.38126 37.3146 3.6517 35.5859 4.25093 34.1117C5.51833 34.223 7.50163 34.2496 8.61525 34.817C8.18571 34.6738 8.60995 35.6124 8.68419 36.2222C8.80616 37.198 8.92282 38.1737 9.03419 39.1442C9.07131 39.457 9.27812 39.754 9.62811 39.7381C10.7523 39.6957 11.9084 39.7646 13.0273 39.6638C14.247 39.5525 14.2045 39.3085 14.3371 40.507C14.4591 41.5994 14.5439 42.6971 14.6235 43.7895C14.4856 43.8372 14.3477 43.8797 14.2045 43.9168C12.1523 44.4418 10.0576 44.866 7.95238 45.2478ZM25.0862 33.698C23.193 35.6707 21.3052 37.6434 19.412 39.6108C18.2613 40.8093 17.1636 42.2941 15.7795 43.2115C15.6894 41.9494 15.5833 40.682 15.3924 39.4358C21.1249 33.8147 26.5975 27.9391 31.9853 21.9786C32.733 22.7316 33.4648 23.5058 34.1648 24.3012C31.1209 27.4141 28.0982 30.5534 25.0862 33.698ZM36.986 21.4536C36.5829 21.0505 36.1799 20.6422 35.7822 20.2339C36.27 19.6718 36.7791 19.1309 37.3094 18.6059C37.739 19.0301 38.195 19.4438 38.6776 19.8468C38.1049 20.3877 37.5375 20.9233 36.986 21.4536ZM45.8419 11.325C44.8184 13.3666 43.2964 15.2173 41.6207 16.962C38.142 13.356 34.6208 9.80302 31.0467 6.29248C31.1262 6.22354 31.2004 6.1493 31.28 6.07506C33.6822 3.90616 36.689 0.660756 40.3109 1.66301C41.9866 2.12437 43.3601 3.58799 44.4896 4.83948C46.335 6.8652 47.2047 8.59395 45.8419 11.325Z" fill="#070A0B"/>
<path d="M36.0473 4.82886C35.9041 4.07584 34.7587 4.39402 34.8966 5.14704C35.0981 6.22884 35.3739 7.28943 35.7239 8.33411C35.9678 9.06061 37.1185 8.74773 36.8746 8.01593C36.5246 6.97125 36.2488 5.91066 36.0473 4.82886Z" fill="#FABF2B"/>
<path d="M38.0677 4.4152C37.8238 3.6887 36.6731 4.00158 36.917 4.73338C37.214 5.62958 37.5162 6.53107 37.8132 7.42727C38.0571 8.15377 39.2079 7.84091 38.9639 7.1091C38.667 6.21291 38.37 5.3167 38.0677 4.4152Z" fill="#FABF2B"/>
</svg>
