<svg width="56" height="48" viewBox="0 0 56 48" fill="none" xmlns="http://www.w3.org/2000/svg">
<path d="M45.7437 12.7782C44.7548 12.647 43.6621 12.8929 42.6404 13.0896C41.5859 10.5108 40.4331 7.97024 39.1874 5.50072C38.4007 3.9436 37.4773 1.47408 35.9585 0.441463C33.855 -0.984524 31.4784 1.37573 30.1562 2.82357C24.5287 8.98646 19.3984 15.4936 11.8642 19.4819C11.7932 19.5202 11.7385 19.5639 11.6839 19.6076C9.55858 20.2578 7.44419 20.9243 5.33525 21.6237C3.98029 22.0771 2.12814 22.3776 1.00811 23.3775C-0.915059 25.0876 0.368877 28.8137 1.12831 30.7697C1.84404 32.6109 3.51043 36.3261 5.6576 36.9544C6.2422 37.1292 6.94154 37.0363 7.63541 36.8615C8.90841 39.5059 10.0721 42.2267 11.5418 44.7673C12.487 46.4063 13.4486 48.5863 15.6614 47.8542C17.9725 47.0893 20.8791 44.7345 20.1743 42.0082C19.8191 40.6314 18.5625 39.6042 17.7812 38.4842C16.9125 37.2494 16.2405 35.9109 15.6067 34.545C15.9509 34.4357 16.2897 34.3319 16.6339 34.2172C20.961 33.3758 25.31 32.9441 29.7027 33.4304C33.6146 33.862 37.4336 34.8946 41.2745 35.7142C43.1649 36.1185 46.7709 37.61 48.0712 35.3153C49.3988 32.9769 47.645 28.6006 47.044 26.2732C46.6343 24.6942 46.1753 23.1207 45.6891 21.5526C46.749 20.8369 48.0657 20.1649 48.5848 18.9684C49.1311 17.7118 48.5848 16.3186 48.0548 15.1603C47.5904 14.1714 46.9402 12.9421 45.7437 12.7782ZM4.41191 33.4523C3.77814 32.5672 3.26457 31.622 2.84388 30.6221C2.41772 29.6223 2.0899 28.6006 1.89867 27.5298C1.48344 25.2351 2.77284 24.2243 4.75065 23.5578C7.14369 22.7492 9.55311 21.9897 11.968 21.2467C13.1864 25.1094 14.4812 28.9448 15.8471 32.7584C13.7054 33.4468 11.5473 34.086 9.36736 34.6379C7.32945 35.1514 5.79419 35.3754 4.41191 33.4523ZM17.284 39.8774C17.5026 40.167 17.8522 40.5385 18.0271 40.8117C19.0979 42.489 19.1198 43.5216 17.7047 45.0787C17.3277 45.4939 16.5956 45.9583 16.1039 46.1933C15.6231 46.4227 15.268 46.5429 14.9511 46.5539C15.1806 46.1659 15.3663 45.7507 15.5139 45.3191C15.7706 44.5706 14.585 44.2482 14.3283 44.9913C14.2026 45.3519 14.0387 45.6906 13.842 46.013C13.7874 45.9638 13.7382 45.9201 13.6836 45.86C13.5688 45.7453 13.4596 45.6141 13.3557 45.4775C13.3667 45.4502 13.3831 45.4284 13.3885 45.4011C13.4759 45.1388 13.6453 44.9039 13.771 44.658C13.924 44.352 14.0496 44.0406 14.1644 43.7183C14.4211 42.9698 13.2355 42.6474 12.9788 43.3905C12.8695 43.7073 12.7165 43.9969 12.5635 44.292C12.3996 44.0024 12.2467 43.7074 12.0991 43.4069C12.0991 43.4014 12.1046 43.4014 12.1046 43.3959C12.3887 42.7785 12.6673 42.1666 12.9515 41.5492C13.088 41.2487 13.0389 40.8882 12.7329 40.7079C12.4707 40.5549 12.0281 40.6259 11.8915 40.9264C11.7331 41.2706 11.5746 41.6148 11.4216 41.959C11.3124 41.7186 11.1976 41.4837 11.0884 41.2651C11.0337 41.1504 10.9791 41.0357 10.9245 40.9209C10.9682 40.8772 11.0119 40.8281 11.0501 40.768C11.3233 40.2981 11.5965 39.8228 11.8697 39.3529C12.2685 38.6699 11.2031 38.0471 10.8097 38.73C10.6404 39.0251 10.471 39.3201 10.2962 39.6097C10.1432 39.2819 9.98473 38.9595 9.83175 38.6317C9.87546 38.5935 9.91917 38.5552 9.95742 38.506C10.2033 38.1837 10.4382 37.8559 10.6677 37.5226C10.8534 37.2494 10.7168 36.8397 10.4491 36.6812C10.1432 36.5009 9.79352 36.6266 9.60776 36.8998C9.49302 37.0691 9.36736 37.233 9.24716 37.3969C9.10511 37.0965 8.96306 36.796 8.821 36.4955C9.17067 36.3807 9.49847 36.2769 9.79897 36.2004C11.3506 35.8071 12.8914 35.37 14.4211 34.9001C15.2298 36.6594 16.1094 38.3312 17.284 39.8774ZM39.996 33.7691C36.4611 32.9879 32.9371 32.1192 29.3257 31.7586C25.1953 31.3488 21.1031 31.7476 17.0436 32.4907C15.6395 28.5842 14.3173 24.6505 13.0716 20.6894C19.8465 16.9906 25.1079 11.2156 30.0742 5.41876C30.6479 4.74674 31.5603 3.46281 32.5765 2.60503C35.505 6.99226 37.4172 12.4558 39.3404 17.2965C41.5422 22.853 43.3725 28.8902 44.427 34.8072C42.919 34.6925 41.056 33.9986 39.996 33.7691ZM46.7927 33.2556C46.7381 34.1079 46.2955 34.534 45.6563 34.7143C44.5854 28.5788 42.6787 22.3339 40.373 16.5753C38.428 11.7237 36.554 6.31479 33.6146 1.93302C34.15 1.70355 34.6964 1.65984 35.2209 1.96033C35.9148 2.35917 36.5103 3.94906 36.8818 4.61562C38.5864 7.72438 40.0124 10.9916 41.3182 14.2806C42.8808 18.2089 44.2685 22.2192 45.3503 26.3059C45.8912 28.3657 46.9348 31.1139 46.7927 33.2556ZM47.1751 18.8973C46.749 19.5038 45.9786 19.93 45.2957 20.3507C44.6291 18.3018 43.897 16.2694 43.1048 14.2643C43.5911 14.1823 44.0828 14.1058 44.5745 14.0512C45.7765 13.9255 46.2354 14.2697 46.7982 15.3788C47.3281 16.4387 47.951 17.7937 47.1751 18.8973Z" fill="#070A0B"/>
<path d="M46.0715 9.10118C46.0824 7.93198 46.066 6.76278 46.0769 5.59904C46.0824 4.80683 44.8531 4.80683 44.8477 5.59904C44.8367 6.76825 44.8531 7.93744 44.8422 9.10118C44.8367 9.8934 46.066 9.8934 46.0715 9.10118Z" fill="#FABF2B"/>
<path d="M51.0761 11.4669C51.7154 10.7621 52.3546 10.0628 52.9993 9.35797C53.5293 8.77337 52.666 7.90467 52.1306 8.48927C51.4914 9.19407 50.8521 9.8934 50.2074 10.5982C49.672 11.1773 50.5407 12.0515 51.0761 11.4669Z" fill="#FABF2B"/>
<path d="M55.2886 15.4881C54.3761 15.4335 53.4637 15.439 52.5513 15.4062C51.7591 15.3843 51.7591 16.6136 52.5513 16.6355C53.4637 16.6628 54.3816 16.6573 55.2886 16.7174C56.0808 16.7666 56.0753 15.5373 55.2886 15.4881Z" fill="#FABF2B"/>
<path d="M50.6609 21.0882C50.0162 20.6238 49.4043 21.6892 50.0381 22.1482C50.8194 22.7109 51.5515 23.3447 52.2617 23.9948C52.8463 24.5248 53.715 23.6616 53.1304 23.1261C52.3437 22.405 51.5296 21.7111 50.6609 21.0882Z" fill="#FABF2B"/>
<path d="M6.64101 26.8796C7.37312 26.5955 7.05078 25.4044 6.31321 25.694C5.48821 26.0164 4.6632 26.3332 3.8382 26.6556C3.11155 26.9397 3.42844 28.1308 4.16602 27.8412C4.99101 27.5188 5.81601 27.202 6.64101 26.8796Z" fill="#FABF2B"/>
<path d="M6.97979 27.7046C6.13294 28.1089 5.26423 28.4367 4.36821 28.7044C3.61424 28.9284 3.93659 30.114 4.69603 29.89C5.69586 29.595 6.66291 29.2125 7.60264 28.7645C8.3129 28.4258 7.69005 27.3659 6.97979 27.7046Z" fill="#FABF2B"/>
</svg>
