<svg width="52" height="48" viewBox="0 0 52 48" fill="none" xmlns="http://www.w3.org/2000/svg">
<path d="M42.8409 6.06257C35.0644 -0.8678 23.2075 -1.78146 14.1487 2.93742C4.85628 7.7757 -1.27463 18.0544 0.225655 28.6083C1.93878 40.6885 15.8255 46.9284 26.7064 47.1983C31.8043 47.3437 36.3207 46.0822 40.6762 43.4658C45.0161 40.8598 47.8038 37.2051 49.6934 32.507C53.291 23.552 49.9842 12.4271 42.8409 6.06257ZM49.6104 24.8862C47.3314 25.3638 45.0524 25.7376 42.7683 26.0335C42.7735 25.0679 42.7319 24.0815 42.6437 23.0537C42.4204 20.4009 41.8909 17.8001 41.0551 15.3498C42.7786 14.4154 44.3983 13.3408 45.8882 12.1468C48.2814 15.952 49.626 20.5099 49.6104 24.8862ZM12.0929 26.2878C11.9684 22.7422 12.3681 19.6015 13.4686 16.4971C16.6872 17.743 20.1291 18.4542 23.6539 18.9318C25.0089 19.1187 26.3846 19.1706 27.7654 19.1187C28.0354 21.7818 28.243 24.4501 28.3832 27.1184C27.4903 27.1548 26.5974 27.1859 25.7045 27.2171C21.2088 27.3728 16.6717 27.4766 12.1552 27.2534C12.1293 26.9419 12.1085 26.6149 12.0929 26.2878ZM27.5993 17.5301C25.8914 17.5872 24.1835 17.4834 22.5015 17.1823C19.5632 16.658 16.7184 16.0298 14.0449 15.0227C14.3719 14.2544 14.7457 13.4861 15.161 12.7074C17.4919 8.39864 20.7312 4.28196 25.0919 1.90954C26.1821 7.08525 27.0127 12.2921 27.5993 17.5301ZM26.6805 1.89916C32.7698 4.15737 36.8865 8.89701 39.1396 14.6074C36.004 16.1285 32.5933 17.1096 29.1515 17.4315C28.5701 12.2246 27.7447 7.04373 26.6805 1.89916ZM25.7045 28.7797C26.6234 28.7485 27.5422 28.7122 28.4611 28.6758C28.5389 30.5187 28.5909 32.3616 28.6064 34.2097C28.134 34.2097 27.6616 34.2097 27.1944 34.2201C23.3477 34.298 19.1842 34.9521 15.2752 36.2032C13.832 33.9761 12.8145 31.4739 12.3577 28.8212C16.8066 29.0288 21.2763 28.9354 25.7045 28.7797ZM27.1996 35.7827C27.672 35.7723 28.1444 35.7723 28.6168 35.7723C28.6168 38.9909 28.5286 42.2147 28.3417 45.4385C23.519 44.3276 19.1998 41.4464 16.2252 37.5529C19.8487 36.442 23.6851 35.8502 27.1996 35.7827ZM23.4982 45.397C18.6911 44.8 13.723 43.1232 9.69976 40.2887C11.2312 39.427 12.9028 38.6846 14.6367 38.0721C16.9208 41.192 20.0045 43.7461 23.4982 45.397ZM30.1742 35.7931C32.8529 35.8657 35.5679 36.1357 38.1895 36.7431C36.1286 40.2887 33.6005 43.1855 29.9198 45.1114C30.0859 42.0019 30.1742 38.8975 30.1742 35.7931ZM30.1638 34.2357C30.1431 32.3616 30.0963 30.4876 30.0133 28.6135C33.7406 28.4474 37.4472 28.2086 41.1382 27.7933C40.9357 30.389 40.2868 32.8081 38.9631 35.3311C36.0975 34.6302 33.1021 34.3187 30.1638 34.2357ZM29.9406 27.0613C29.8004 24.3774 29.5876 21.6987 29.3176 19.0252C32.8737 18.6878 36.4089 17.6391 39.6639 16.0662C40.4633 18.4853 40.9565 21.055 41.133 23.661C41.1953 24.5487 41.2213 25.4001 41.2109 26.2307C37.468 26.6512 33.7198 26.8952 29.9406 27.0613ZM45.0213 10.8541C43.6248 11.991 42.1194 13.0137 40.5204 13.8962C38.4855 8.81914 35.0592 4.49999 30.195 1.8109C33.1851 2.37675 36.0144 3.62266 38.7502 5.15409C41.2005 6.52459 43.3185 8.51286 45.0213 10.8541ZM11.6776 6.32213C14.8599 4.00682 18.364 2.62595 22.1225 1.95108C18.608 4.5 15.8566 8.14947 13.8164 11.9235C13.3648 12.7645 12.9651 13.5951 12.6069 14.4309C10.5978 13.538 8.69265 12.3856 6.94318 10.8489C8.35002 9.11505 9.95413 7.57323 11.6776 6.32213ZM5.99837 12.0897C7.85685 13.699 9.88664 14.9397 12.0358 15.9052C10.764 19.4613 10.3279 23.0848 10.5719 27.1184C10.5719 27.1392 10.5771 27.1548 10.5771 27.1755C7.49865 26.9679 4.43579 26.5889 1.41965 25.9504C1.25872 21.0758 3.09125 16.1389 5.99837 12.0897ZM2.88878 32.3305C2.18277 30.7835 1.7519 29.1794 1.54944 27.5597C4.58634 28.1723 7.65958 28.5357 10.7432 28.7329C11.1637 31.5933 12.2123 34.3084 13.7282 36.7327C11.8282 37.4335 10.0112 38.2797 8.35002 39.2712C6.05028 37.392 4.14508 35.0819 2.88878 32.3305ZM33.1436 44.9453C35.9158 42.9207 38.0079 40.242 39.7521 37.148C41.2005 37.5685 42.6021 38.1032 43.9467 38.7833C41.0551 41.7942 37.2863 43.9174 33.1436 44.9453ZM45.0005 37.5841C43.5677 36.8313 42.0519 36.2291 40.4893 35.7567C41.8494 33.0469 42.5243 30.4201 42.7112 27.6064C44.9901 27.3157 47.2639 26.9471 49.5377 26.4851C49.4754 27.2223 49.3768 27.9542 49.2314 28.6706C48.5358 32.0865 47.0459 35.0871 45.0005 37.5841Z" fill="#070A0B"/>
<path d="M1.4456 12.479C3.24698 9.08388 5.58825 6.09889 8.46422 3.54996C9.02488 3.0516 8.19947 2.22619 7.63881 2.72455C4.69535 5.34096 2.2814 8.40901 0.438488 11.8924C0.0854807 12.5569 1.09259 13.1487 1.4456 12.479Z" fill="#FABF2B"/>
<path d="M1.54424 8.2637C2.20354 7.00741 3.02895 5.88609 4.03606 4.88936C4.57076 4.35985 3.74535 3.53444 3.21065 4.06395C2.13605 5.12297 1.23796 6.33255 0.537133 7.6719C0.189317 8.33638 1.19643 8.92818 1.54424 8.2637Z" fill="#FABF2B"/>
<path d="M46.5683 41.2699C44.4087 43.7929 41.7352 45.6877 38.6204 46.835C37.9196 47.0945 38.2259 48.221 38.9319 47.9615C42.2387 46.7415 45.1043 44.774 47.3989 42.0953C47.8765 41.5243 47.0563 40.6937 46.5683 41.2699Z" fill="#FABF2B"/>
<path d="M45.5664 45.1478C44.9434 45.8798 44.1907 46.4924 43.3185 46.9077C42.6385 47.2295 43.2303 48.2366 43.9104 47.9148C44.8604 47.4631 45.7169 46.7727 46.397 45.9732C46.8746 45.4074 46.0544 44.5768 45.5664 45.1478Z" fill="#FABF2B"/>
</svg>
