<svg width="371" height="258" viewBox="0 0 371 258" fill="none" xmlns="http://www.w3.org/2000/svg">
<path d="M260.377 53.3813C260.558 53.4174 274.761 43.7025 275.268 42.9802C279.399 37.4184 256.211 52.9479 260.377 53.3813Z" fill="#070A0B"/>
<path d="M321.826 103.328C321.319 104.376 265.305 111.346 273.167 107.048C273.638 106.796 274.254 106.868 274.834 106.796C274.834 106.759 312.08 103.04 312.116 103.04C318.275 102.353 323.493 99.8614 321.826 103.328Z" fill="#070A0B"/>
<path d="M339 100.764C331.536 99.4641 371.21 94.1913 370.413 95.7443C370.377 95.8888 369.471 97.4056 369.326 97.4056C363.891 97.225 339 100.764 339 100.764Z" fill="#070A0B"/>
<path d="M287.732 52.4784C284.036 52.9479 284.073 62.699 290.957 62.0128C295.884 61.3989 298.457 51.1783 287.732 52.4784Z" fill="#070A0B"/>
<path d="M302.478 24.1642C268.239 46.8445 336.681 7.00954 331.319 5.99832C329.471 5.63717 311.246 18.3858 302.478 24.1642Z" fill="#070A0B"/>
<path d="M290.377 201.164C293.529 209.471 300.884 199.684 295.957 195.133C294.833 194.086 288.131 195.205 290.377 201.164Z" fill="#070A0B"/>
<path d="M367.768 179.062C370.304 177.003 292.044 164.76 300.993 170.25C297.986 168.408 365.884 180.615 367.768 179.062Z" fill="#070A0B"/>
<path d="M337.406 132.762C343.964 126.767 331.898 118.244 332.261 130.306C332.333 133.557 335.558 134.46 337.406 132.762Z" fill="#070A0B"/>
<path d="M270.558 164.471C270.957 164.11 271.355 163.605 271.863 163.677C273.058 163.857 283.529 165.194 284.616 165.844C285.631 166.458 284.399 167.866 283.493 167.758C275.341 166.927 268.71 166.133 270.558 164.471Z" fill="#070A0B"/>
<path fill-rule="evenodd" clip-rule="evenodd" d="M109.653 251.834C119.037 245.441 123.349 229.84 112.371 232.295C106.227 233.689 103.904 226.739 103.151 224.486C103.065 224.228 102.999 224.032 102.951 223.917C101.712 220.944 100.742 218.689 99.9585 216.881L99.6338 216.131C98.4965 213.506 97.7856 211.866 97.1994 210.182C96.2221 207.375 95.5912 204.449 93.9088 196.644C93.6222 195.314 93.3052 193.844 92.9507 192.208C92.8575 191.743 99.935 186.389 102.225 184.67C102.545 184.43 102.773 184.26 102.873 184.185L102.878 184.181L102.914 184.154C106.16 181.532 105.851 179.425 105.635 177.946C105.533 177.246 105.451 176.687 105.777 176.281C107.588 174.042 106.791 171.803 105.849 169.527C105.323 168.254 104.855 167.194 104.465 166.312C103.463 164.043 102.975 162.939 103.335 162.35C103.676 161.792 104.779 161.696 106.927 161.511C108.856 161.344 111.629 161.104 115.451 160.39C117.663 159.978 118.927 159.603 119.936 159.303C123.255 158.318 123.814 158.152 146.32 160.174C214.929 166.325 232.898 181.813 241.413 189.151C243.595 191.032 245.157 192.378 246.79 192.894C272.805 201.02 266.682 132.221 263.421 105.134C254.58 31.5317 248.167 26.295 228.131 30.9177L228.028 30.9416C226.359 31.3303 224.677 31.7218 224.073 33.9514C216.935 59.8098 157.479 79.1314 131.248 85.0542C131.112 85.0837 129.639 85.186 127.133 85.36C108.159 86.6773 29.9667 92.1058 24.6541 101.198C23.3269 103.499 19.9926 104.164 16.4687 104.866C12.97 105.564 9.28429 106.299 7.19038 108.71C-7.66459 125.864 3.05998 165.627 16.2483 163.641C26.5831 162.063 27.0802 163.214 27.7716 164.816C28.663 166.881 29.8775 169.694 52.9147 168.372C54.3185 168.297 59.7732 180.423 66.8667 196.192C73.5051 210.95 81.5786 228.897 89.1101 243.022C98.5782 260.769 99.8498 259.713 105.351 255.145C106.544 254.155 107.936 252.999 109.653 251.834ZM102.48 230.67C101.175 228.251 100.125 225.722 99.1101 223.158C86.6933 191.797 90.2151 189.593 94.9016 186.661C95.2611 186.436 95.6276 186.207 95.9942 185.96C103.748 180.723 103.748 180.398 103.349 178.773C103.143 177.709 99.9891 178.766 98.7445 179.183L98.5666 179.242C94.3275 180.651 92.4435 180.615 89.2188 176.245C83.9246 169.098 84.466 166.445 83.5447 165.767C82.7573 165.188 80.9015 166.05 73.4218 166.783C68.0481 167.304 64.2407 167.494 61.6108 167.625C57.1303 167.848 56.0679 167.901 56.5017 169.13C59.7988 178.339 84.3276 230.995 97.1173 252.917C98.8927 255.951 102.661 254.362 105.596 252.592C106.156 252.243 106.59 251.682 107.019 251.127C107.478 250.534 107.932 249.948 108.53 249.631C111.972 247.789 119.219 239.627 116.211 236.449C115.326 235.498 113.704 235.411 111.822 235.308C108.696 235.139 104.854 234.931 102.48 230.67ZM90.2696 173.897C91.6464 176.461 95.1608 177.4 96.3202 177.075C97.346 176.769 98.281 176.507 99.1234 176.27C103.548 175.026 105.422 174.5 104.509 172.164C103.387 169.364 102.654 167.38 102.138 165.983C101.07 163.091 100.93 162.713 100.197 162.81C99.0467 162.979 97.9862 163.132 97.0097 163.273C96.8757 163.292 96.7433 163.311 96.6125 163.33L96.5964 163.332C88.2945 164.53 86.3151 164.815 86.8276 166.06C86.8733 166.175 86.9189 166.29 86.9645 166.405C87.0514 166.624 87.1381 166.843 87.225 167.063C88.1405 169.378 89.0668 171.72 90.2696 173.897ZM240.812 163.424C276.138 263.932 268.747 37.6712 239.29 31.9289C236.223 31.3127 235.465 32.5008 234.702 33.6966C234.303 34.3229 233.902 34.9513 233.167 35.3238C229.363 45.4721 225.559 60.1348 225.341 67.5745C224.798 84.368 226.211 91.6994 226.211 91.6994C225.918 93.6983 231.322 93.5364 236.313 93.3868C239.978 93.277 243.42 93.1739 244.218 93.9385C251.5 100.873 253.24 121.169 246.754 128.284C246.43 128.628 245.733 128.588 244.992 128.545C244.49 128.516 243.969 128.485 243.529 128.573C242.783 128.715 242.037 128.917 241.286 129.121C240.506 129.332 239.722 129.545 238.928 129.692C237.397 129.972 236.126 130.105 235.091 130.214C233.383 130.393 232.316 130.505 231.784 131.095C230.897 132.077 231.486 134.382 233.055 140.52C233.369 141.747 233.721 143.127 234.109 144.68C236.802 155.466 237.786 157.191 238.827 159.019C239.383 159.994 239.955 160.999 240.812 163.424ZM226.863 100.078C228.928 126.55 229.399 127.706 232.117 127.417C232.189 127.407 232.655 127.394 233.283 127.376C234.854 127.331 237.443 127.257 237.443 127.128L237.49 127.123C238.581 127.007 242.666 126.572 243.095 125.575C243.095 125.575 237.515 108.204 239.653 100.8L239.749 100.476C240.904 96.5923 241.198 95.6046 236.754 95.7804L235.838 95.8171C229.68 96.063 227.606 96.1458 226.984 97.1354C226.668 97.6383 226.728 98.3752 226.817 99.4866C226.832 99.673 226.848 99.87 226.863 100.078ZM249 117.955C249.109 120.736 245.377 134.135 241.428 110.804C238.638 94.1552 247.986 89.4242 249 117.955ZM232.334 32.1456C230.595 31.4595 225.595 33.8792 225.015 35.721C214.472 68.2246 216.102 88.1962 224.001 130.306C224.037 130.451 227.117 145.728 226.972 145.764C239.145 197.733 251.899 191.16 250.522 189.463C239.109 175.523 231.464 142.622 227.986 124.997C214.327 55.3315 232.334 32.1456 232.334 32.1456ZM218.892 46.4472C199.037 62.5184 179.001 72.3056 172.95 74.4725C143.074 85.1489 129.137 87.4609 122.213 88.6095C115.904 89.6561 115.418 89.7367 114.001 94.2997C106.175 120.05 106.067 137.132 122.479 155.948C122.527 156.003 122.567 156.052 122.604 156.097C122.669 156.177 122.723 156.244 122.786 156.3C123.09 156.572 123.604 156.611 126.601 156.836C129.582 157.06 135.023 157.469 145.161 158.476C189.13 162.823 200.389 166.899 213.321 171.581C214.572 172.034 215.839 172.493 217.153 172.958C223.566 175.234 239.145 184.624 237.877 184.01C239.668 184.902 237.934 181.227 235.453 175.972C233.117 171.022 230.119 164.671 228.783 159.415C211.042 89.5207 215.75 66.5701 219.058 50.4471C219.303 49.2502 219.541 48.0909 219.762 46.9528C219.834 46.4472 219.254 46.1222 218.892 46.4472ZM18.857 106.759C21.8642 106.29 19.4367 110.551 16.4295 111.274C3.89331 114.452 6.1759 108.818 18.857 106.759ZM15.7773 115.499C13.7121 116.258 5.4875 118.388 5.3788 117.341C4.90779 112.177 24.2555 112.393 15.7773 115.499ZM3.8933 121.278C3.67591 123.697 6.39329 123.589 8.82081 123.228C16.1104 122.132 16.2881 121.579 16.8212 119.92C16.9028 119.666 16.9928 119.386 17.1179 119.075C17.6613 117.774 4.14693 118.75 3.8933 121.278ZM2.8426 130.415C2.58898 133.376 4.40055 144.283 4.61794 145.475L4.65674 145.691C4.80187 146.502 4.87171 146.892 5.10439 147.107C5.32022 147.307 5.67616 147.356 6.36228 147.452L6.42952 147.461C11.357 148.183 18.5671 146.883 18.1686 145.077C16.198 136.259 16.2213 131.118 16.2345 128.196C16.2427 126.382 16.247 125.423 15.7688 124.97C15.2318 124.46 14.0863 124.588 11.6548 124.86C11.4865 124.878 11.3115 124.898 11.1308 124.918C9.86563 125.058 8.28795 125.223 6.32083 125.359C2.5566 125.629 2.72193 128.119 2.82268 129.637C2.84315 129.945 2.86095 130.214 2.8426 130.415ZM18.6396 148.545C16.5382 148.653 5.63243 149.7 6.64692 151.398C8.08183 153.841 11.342 152.769 16.1017 151.203C17.1107 150.871 18.1872 150.517 19.328 150.17C20.27 149.881 19.2918 148.508 18.6396 148.545ZM21.3932 154.251C21.0309 153.095 20.4874 152.445 18.9294 152.914C17.7808 153.276 16.5873 153.47 15.3926 153.664C14.4393 153.819 13.4853 153.974 12.5527 154.215C9.14691 155.045 7.48025 157.826 14.6179 156.237C14.9077 156.201 21.5019 154.612 21.3932 154.251ZM21.9729 157.104C20.6323 156.887 12.2266 157.971 13.7846 159.812C15.0641 161.331 15.4215 161.292 16.666 161.155C16.9016 161.129 17.1689 161.099 17.4802 161.076C17.6278 161.066 17.8151 161.055 18.0324 161.042C20.1088 160.917 24.9271 160.628 24.0743 159.451C23.9395 159.261 23.8028 159.049 23.6629 158.832C23.1641 158.056 22.6237 157.217 21.9729 157.104ZM42.009 152.409C42.5887 156.237 44.038 159.668 46.6467 162.521C47.3136 163.247 47.8297 163.852 48.2562 164.352C50.1003 166.513 50.269 166.71 53.7118 166.241C53.8343 166.227 53.9823 166.214 54.1466 166.199C55.2944 166.094 57.2353 165.916 56.7915 165.157C47.951 149.664 52.4075 150.748 52.8423 151.867C53.3939 153.305 53.8695 154.602 54.2975 155.768C57.5237 164.562 58.043 165.978 68.0233 165.085C68.132 165.085 68.3494 164.507 68.277 164.363C58.277 149.303 64.0741 149.736 64.1466 151.867C64.4364 158.585 71.9363 165.049 73.0958 164.869C73.7344 164.762 74.3708 164.665 74.9838 164.571C77.9181 164.122 80.3144 163.755 79.8349 162.918L79.6783 162.653C78.4296 160.54 71.8923 149.478 74.3639 148.725C75.2447 148.458 75.6702 149.754 76.3463 151.815C76.9494 153.653 77.7519 156.099 79.2551 158.585C81.7551 162.738 84.2551 163.93 89.9435 161.907C90.4507 161.727 90.5956 161.113 90.3058 160.715C88.6754 158.512 83.7116 149.736 85.342 147.678C86.2681 146.48 86.8138 148.247 87.3852 150.097C87.641 150.925 87.9019 151.77 88.2044 152.373C93.0549 162.104 94.5149 161.772 98.2291 160.928C98.9261 160.77 99.7025 160.594 100.596 160.463C101.646 160.318 101.864 159.885 101.284 158.946C92.6971 145.439 97.697 145.511 97.9144 147.028C98.5666 151.975 103.639 160.751 108.168 159.126C110.004 158.461 109.826 158.225 108.837 156.914C107.68 155.379 105.411 152.371 103.965 145.475C103.82 144.644 104.98 144.283 105.306 145.041C105.358 145.165 105.445 145.42 105.567 145.776C106.543 148.63 109.736 157.963 114.762 157.898C115.485 157.898 116.209 157.675 116.939 157.45C117.489 157.28 118.042 157.109 118.603 157.032C120.161 156.779 119.726 156.165 119.038 155.443C99.2912 135.218 107.951 97.6584 115.088 88.8102C115.523 88.2685 115.124 87.5101 114.472 87.5462C108.55 87.7663 101.083 88.6848 88.2853 90.3141L85.6535 90.6494C75.6692 91.9222 62.6429 93.5827 45.0525 95.636C34.4366 96.8639 30.2337 98.2362 27.4439 101.27C19.2193 110.154 17.5889 127.128 19.3642 136.915C24.5816 165.302 37.6612 168.336 35.9583 165.808C31.0671 158.621 30.0163 149.375 32.4439 152.048C32.4439 152.048 33.2047 157.898 37.5525 164.363C39.8807 167.844 42.092 167.364 44.1865 166.909C44.6996 166.798 45.2056 166.688 45.7046 166.638C46.9727 166.53 47.2988 166.277 46.2481 165.194C41.6829 160.354 39.038 151.759 41.2119 151.723C41.6105 151.723 41.9365 152.012 42.009 152.409Z" fill="#070A0B"/>
<path fill-rule="evenodd" clip-rule="evenodd" d="M96.6125 163.33L96.5964 163.332C96.7325 163.313 96.8702 163.293 97.0097 163.273C96.8757 163.292 96.7433 163.311 96.6125 163.33Z" fill="#070A0B"/>
<path fill-rule="evenodd" clip-rule="evenodd" d="M326.421 64.5455C324.58 65.7345 325.392 71.006 328.456 99.7169C330.23 116.573 329.688 120.855 331.02 121.546C331.567 121.83 332.427 121.51 333.891 121.205C333.927 121.205 333.964 121.205 333.964 121.242C338.8 120.633 338.68 120.057 337.633 115.023C337.127 112.589 336.404 109.113 335.92 104.087C334.77 92.2611 334.284 83.6644 333.937 77.5253C333.279 65.8722 333.121 63.0741 329.87 63.8547C328.29 64.2433 327.148 64.0759 326.421 64.5455ZM331.807 116.31C331.938 117.623 332.093 119.174 334.471 118.822C336.283 118.569 336.283 117.63 336.138 116.149C335.075 106.473 334.229 97.3244 333.511 89.5572C332.198 75.3505 331.312 65.7647 330.304 66.0216C330.044 66.0907 329.799 66.1462 329.57 66.1982C326.328 66.9344 326.251 66.9518 329.399 94.4441C329.405 94.5302 329.504 95.3004 329.659 96.5017C330.348 101.855 332.138 115.765 331.754 115.824C331.774 115.979 331.79 116.143 331.807 116.31Z" fill="#070A0B"/>
<path fill-rule="evenodd" clip-rule="evenodd" d="M296.428 189.427C298.348 189.86 298.348 188.56 298.348 187.44C297.658 142.666 300.228 135.218 298.493 134.033C297.951 133.663 296.99 133.904 295.377 133.81C293.985 133.73 293.114 133.658 292.569 134.045C291.145 135.057 291.966 139.209 291.573 154.576C290.866 182.956 289.762 188.449 291.264 189.284C292.073 189.734 293.638 188.833 296.428 189.427ZM297.177 148.407C297.567 139.747 297.728 136.173 296.536 136.229C291.62 136.456 292.343 160.639 292.796 175.778C292.921 179.939 293.025 183.417 292.986 185.526C292.986 187.059 293.669 187.09 294.436 187.125C294.699 187.137 294.973 187.15 295.232 187.224C295.92 187.44 296.391 186.754 296.391 186.104C296.27 168.531 296.82 156.337 297.177 148.407Z" fill="#070A0B"/>
<path fill-rule="evenodd" clip-rule="evenodd" d="M279.743 26.04C281.741 35.4054 283.653 44.3733 283.131 46.375C282.841 47.4584 283.239 47.8918 284.326 47.7835C288.064 47.3712 289.8 47.3334 290.376 46.4993C291.163 45.3603 289.786 42.7369 288.384 35.6488C283.277 10.0931 284.71 1.39401 282.297 0.159034C281.269 -0.366954 279.544 0.461026 276.319 1.91731C274.747 2.61176 277.308 14.6213 279.743 26.04ZM287.51 44.9416C287.574 44.9502 287.637 44.9584 287.696 44.9665C288.576 45.1015 288.078 42.7138 287.692 40.8591C287.458 39.7365 287.265 38.8092 287.442 38.7547C284.197 24.245 283.344 15.096 282.838 9.66004C282.157 2.35054 282.101 1.7549 277.696 3.86753C276.21 4.58983 283.855 39.3686 285.413 44.2803C285.547 44.6815 286.706 44.8351 287.51 44.9416Z" fill="#070A0B"/>
</svg>
