<svg width="172" height="50" fill="none" xmlns="http://www.w3.org/2000/svg"><path d="m30.965 36.382-8.903 3.87v-.387c-1.716.44-3.618.693-5.418.774-8.373-.081-15.019-4.463-15.096-9.676v-1.935c2.75 3.998 8.348 6.678 15.096 6.58 2.282.098 4.617-.265 6.58-.774l.774-1.936c-2.328.695-4.868 1.178-7.354 1.162-8.373.016-15.019-4.366-15.096-9.676v-1.549c2.75 3.697 8.336 6.376 15.096 6.193 3.04.183 6.014-.456 8.515-1.548l.387-1.935c-2.443 1.288-5.61 2.037-8.902 1.935-8.373.102-15.019-4.28-15.096-9.676v-1.548c2.75 3.782 8.348 6.461 15.096 6.58 3.835-.119 7.47-1.133 10.45-2.71l.387-2.322c-2.704 2.004-6.653 3.296-10.837 3.483C8.27 21.1 1.625 16.718 1.548 11.224 1.625 6 8.271 1.617 16.644 1.548c4.99.07 9.626 1.82 12.386 4.645l.268.448 1.952.007-.285-.455C28.22 2.463 22.73 0 16.644 0 7.38 0 0 5.106 0 11.224v20.127c.325 5.972 7.537 10.837 16.644 10.837 6.014 0 11.42-2.366 14.32-5.806Z" fill="#1A1A18"/><path d="m27.344 50 3.125-13.281-8.985 3.906 5.47-23.047H16.405L19.141 6.25h33.593L50 17.578H39.062l-2.343 6.25 12.11-5.078L27.343 50Zm5.468-16.016-1.562 7.813 12.89-19.531-10.546 4.687 4.687-10.937h10.547l1.953-8.203H20.313l-1.954 8.203h10.547L23.828 37.89l8.985-3.907Z" fill="#FEDA02"/><path d="M73.84 28.51c0 1.143-.413 2.04-1.24 2.69-.826.65-1.965.976-3.418.976-1.454 0-2.643-.226-3.569-.677v-1.986a9.723 9.723 0 0 0 1.864.65 7.974 7.974 0 0 0 1.845.237c.832 0 1.445-.158 1.837-.474.399-.317.598-.741.598-1.275 0-.48-.182-.887-.545-1.221-.363-.334-1.113-.73-2.25-1.187-1.172-.474-1.998-1.016-2.479-1.626-.48-.61-.72-1.342-.72-2.197 0-1.072.38-1.916 1.142-2.531.762-.616 1.784-.923 3.068-.923 1.23 0 2.455.27 3.674.808l-.669 1.714c-1.142-.48-2.162-.72-3.058-.72-.68 0-1.195.149-1.547.448-.352.293-.527.682-.527 1.169 0 .334.07.62.21.861.141.235.373.457.695.668.322.211.902.49 1.74.835.944.393 1.635.759 2.074 1.099.44.34.762.723.967 1.151.205.428.308.932.308 1.512Zm7.198 3.666c-1.23 0-2.185-.443-2.865-1.327h-.123c.082.82.123 1.318.123 1.494v3.981h-2.066V22.28h1.67c.047.182.144.616.29 1.301h.106c.644-.984 1.611-1.476 2.9-1.476 1.213 0 2.157.439 2.83 1.318.68.879 1.02 2.112 1.02 3.7s-.346 2.827-1.037 3.718c-.686.89-1.635 1.336-2.848 1.336Zm-.5-8.385c-.821 0-1.422.24-1.803.72-.375.481-.562 1.249-.562 2.303v.308c0 1.184.187 2.042.562 2.575.375.528.988.791 1.837.791.715 0 1.266-.293 1.653-.879.386-.586.58-1.42.58-2.505 0-1.09-.194-1.913-.58-2.47-.381-.562-.944-.843-1.688-.843Zm11.715-1.688c.416 0 .759.03 1.028.088l-.202 1.925a3.905 3.905 0 0 0-.914-.105c-.826 0-1.497.27-2.013.808-.51.54-.764 1.24-.764 2.1V32h-2.066v-9.72h1.617l.273 1.713h.105c.323-.58.742-1.04 1.257-1.38a3.019 3.019 0 0 1 1.679-.51ZM97.157 32h-2.065v-9.72h2.065V32ZM94.97 19.704c0-.369.1-.653.299-.852.205-.2.495-.3.87-.3.363 0 .644.1.843.3.206.199.308.483.308.852 0 .352-.103.63-.308.835-.199.2-.48.299-.843.299-.375 0-.665-.1-.87-.299-.2-.205-.3-.483-.3-.835ZM108.67 32h-2.074v-5.977c0-.75-.153-1.31-.457-1.678-.299-.37-.777-.554-1.433-.554-.873 0-1.512.258-1.916.773-.404.516-.606 1.38-.606 2.593V32h-2.066v-9.72h1.617l.29 1.274h.106c.293-.463.709-.82 1.248-1.073a4.184 4.184 0 0 1 1.793-.378c2.332 0 3.498 1.187 3.498 3.56V32Zm11.083-9.72v1.133l-1.661.308a2.7 2.7 0 0 1 .378.756c.099.298.149.615.149.949 0 1.002-.346 1.79-1.037 2.364-.691.574-1.644.861-2.856.861-.311 0-.592-.023-.844-.07-.445.275-.668.598-.668.967 0 .223.102.39.307.5.211.112.595.168 1.152.168h1.696c1.072 0 1.887.228 2.443.685.557.457.835 1.117.835 1.978 0 1.102-.454 1.951-1.362 2.549-.908.597-2.221.896-3.937.896-1.325 0-2.335-.234-3.033-.703-.697-.469-1.045-1.137-1.045-2.004 0-.597.187-1.101.562-1.511.381-.405.911-.686 1.591-.844a1.59 1.59 0 0 1-.686-.563 1.465 1.465 0 0 1-.263-.826c0-.363.102-.67.307-.923.205-.252.51-.5.914-.747a2.737 2.737 0 0 1-1.23-1.055c-.311-.492-.466-1.066-.466-1.722 0-1.055.331-1.872.993-2.452.668-.58 1.617-.87 2.848-.87.275 0 .562.02.861.061.305.035.533.073.686.114h3.366Zm-7.638 11.232c0 .445.199.788.598 1.028.404.24.97.36 1.696.36 1.125 0 1.963-.16 2.514-.483.551-.322.826-.75.826-1.283 0-.422-.152-.724-.457-.906-.299-.175-.858-.263-1.679-.263h-1.564c-.592 0-1.064.137-1.415.413-.346.281-.519.66-.519 1.134Zm.888-8.086c0 .61.155 1.078.466 1.406.316.328.767.492 1.353.492 1.196 0 1.793-.639 1.793-1.916 0-.633-.149-1.119-.448-1.459-.293-.346-.741-.518-1.345-.518-.597 0-1.052.17-1.362.51-.305.34-.457.834-.457 1.485Zm13.526-3.322c1.213 0 2.157.439 2.83 1.318.68.879 1.02 2.112 1.02 3.7 0 1.594-.343 2.836-1.028 3.727-.686.884-1.638 1.327-2.857 1.327-1.23 0-2.185-.443-2.865-1.327h-.141L123.111 32h-1.547V18.324h2.066v3.252c0 .24-.012.598-.035 1.072-.024.475-.041.777-.053.906h.088c.656-.967 1.623-1.45 2.9-1.45Zm-.536 1.687c-.832 0-1.432.246-1.802.738-.363.487-.55 1.304-.562 2.452v.141c0 1.184.187 2.042.562 2.575.375.528.988.791 1.837.791.733 0 1.286-.29 1.661-.87.381-.58.572-1.418.572-2.513 0-2.21-.756-3.314-2.268-3.314Zm15.407 3.331c0 1.588-.407 2.827-1.221 3.718-.815.89-1.949 1.336-3.402 1.336-.908 0-1.711-.205-2.408-.616-.697-.41-1.233-.998-1.608-1.766s-.563-1.658-.563-2.672c0-1.576.405-2.807 1.213-3.691.809-.885 1.948-1.328 3.419-1.328 1.406 0 2.52.455 3.34 1.363.82.902 1.23 2.12 1.23 3.656Zm-7.075 0c0 2.244.829 3.366 2.487 3.366 1.641 0 2.461-1.122 2.461-3.366 0-2.22-.826-3.331-2.478-3.331-.867 0-1.497.287-1.89.861-.386.575-.58 1.398-.58 2.47ZM149.865 32l-.413-1.354h-.07c-.469.592-.941.997-1.415 1.213-.475.211-1.084.317-1.828.317-.955 0-1.702-.258-2.242-.774-.533-.515-.799-1.245-.799-2.188 0-1.002.372-1.758 1.116-2.268.744-.51 1.878-.788 3.401-.835l1.679-.052v-.519c0-.621-.147-1.084-.44-1.389-.287-.31-.735-.465-1.344-.465-.498 0-.976.073-1.433.22a10.77 10.77 0 0 0-1.318.518l-.668-1.477a7.054 7.054 0 0 1 1.731-.624 7.824 7.824 0 0 1 1.776-.22c1.236 0 2.168.27 2.795.81.632.538.949 1.385.949 2.54V32h-1.477Zm-3.076-1.406c.75 0 1.351-.208 1.802-.624.457-.422.685-1.011.685-1.767v-.844l-1.248.053c-.972.035-1.681.2-2.127.492-.439.287-.659.73-.659 1.327 0 .434.129.771.387 1.011.258.235.644.352 1.16.352Zm12.366-8.49c.416 0 .759.029 1.029.087l-.203 1.925a3.9 3.9 0 0 0-.914-.105c-.826 0-1.497.27-2.012.808-.51.54-.765 1.24-.765 2.1V32h-2.065v-9.72h1.617l.272 1.713h.106a3.86 3.86 0 0 1 1.257-1.38 3.017 3.017 0 0 1 1.678-.51Zm6.117 10.072c-1.212 0-2.159-.44-2.838-1.319-.68-.878-1.02-2.112-1.02-3.7 0-1.593.343-2.833 1.028-3.718.692-.89 1.647-1.335 2.866-1.335 1.277 0 2.25.471 2.918 1.415h.105c-.1-.698-.149-1.248-.149-1.653v-3.542h2.074V32h-1.617l-.361-1.274h-.096c-.662.966-1.632 1.45-2.91 1.45Zm.554-1.67c.85 0 1.468-.237 1.855-.712.386-.48.586-1.257.597-2.33v-.29c0-1.224-.199-2.094-.597-2.61-.399-.515-1.023-.773-1.872-.773-.727 0-1.287.296-1.679.888-.393.586-.589 1.424-.589 2.513 0 1.078.19 1.902.571 2.47.381.563.952.844 1.714.844Z" fill="#243037"/></svg>