<svg width="373" height="256" viewBox="0 0 373 256" fill="none" xmlns="http://www.w3.org/2000/svg">
<path d="M227.636 238.973C225.063 246.255 219.204 248.938 212.36 250.142C209.348 250.69 206.337 251.402 203.161 251.018C202.504 250.909 201.683 251.347 201.026 251.675C200.369 252.004 199.712 252.497 199.165 253.044C196.208 255.946 192.594 256.22 188.816 255.891C187.283 255.782 185.695 255.399 184.217 255.508C181.096 255.727 178.468 254.742 176.059 252.88C173.54 250.909 170.529 249.43 168.448 246.857C168.01 246.31 167.189 246.036 166.477 245.543C165.601 246.036 164.78 246.419 164.068 246.967C162.644 248.007 161.221 248.719 159.359 248.664C158.319 248.664 157.224 249.047 156.184 249.321C151.037 250.69 146.109 247.624 145.178 242.367C144.959 240.999 144.904 239.63 144.74 237.987C142.386 237.221 139.922 237.44 137.513 237.111C135.542 236.837 133.571 236.509 131.709 235.687C129.026 234.483 126.945 232.84 125.631 230.212C124.919 228.843 124.208 227.475 123.386 225.887C121.689 225.394 119.827 224.737 117.911 224.244C114.462 223.368 111.888 221.178 109.698 218.495C109.479 218.276 109.37 217.948 109.151 217.729C106.796 215.1 104.989 212.308 106.358 208.366C105.208 208.147 104.332 207.928 103.456 207.763C100.116 207.052 97.6526 204.971 95.6267 202.343C94.4222 200.7 93.9294 199.003 94.2031 196.758C94.6959 192.925 95.4077 189.202 96.9408 185.643C98.0358 183.07 99.1856 180.496 101.047 178.416C103.456 175.842 103.402 173.324 101.485 170.477C100.116 168.451 98.9118 166.261 97.762 164.071C93.9293 156.788 89.33 149.999 84.8951 143.155C84.2928 142.224 83.6906 141.348 82.9788 140.527C80.0769 137.351 77.175 134.176 74.0541 130.781C73.2328 130.726 72.1924 130.671 70.7141 130.617C70.0023 131.274 69.181 132.259 68.1955 132.971C64.3628 135.654 60.6395 135.325 57.3543 131.931C53.4669 127.934 49.689 123.827 45.8563 119.83C44.159 118.023 42.3521 116.326 40.5453 114.629C40.1073 114.245 39.5049 114.026 38.7932 113.643C34.9057 116.107 30.854 115.121 26.638 114.081C23.0243 109.975 19.4106 105.759 15.6326 101.707C12.4022 98.2028 8.89806 94.8629 5.61288 91.4134C4.02505 89.7161 2.60138 87.8545 1.0683 86.1572C-0.0815159 84.8431 -0.245688 83.5838 0.301842 81.8864C1.45165 78.3275 3.31328 75.1518 5.12013 71.9214C5.5034 71.2644 5.99611 70.6621 6.5984 70.1693C8.07673 68.9647 8.8433 67.2674 9.88361 65.7343C12.1832 62.2849 14.7566 58.9997 17.3847 55.7693C19.1368 53.6339 21.108 51.6628 23.0791 49.6917C29.6494 43.1761 36.1651 36.551 42.9544 30.1997C50.7841 22.9175 59.2708 16.5114 68.9073 11.6932C70.8236 10.7076 72.74 9.61253 74.6016 8.51747C79.8579 5.4513 85.3879 3.20647 91.4655 2.43993C92.3415 2.33042 93.2176 2.0019 94.0389 1.83764C96.5027 2.8232 98.2001 4.52051 100.062 6.21786C105.373 11.2004 109.917 16.8947 115.009 22.0962C115.776 22.8628 116.542 23.684 117.035 24.6148C118.787 28.119 121.306 31.0757 124.317 33.5396C126.343 35.2369 126.672 37.0438 125.686 39.2886C125.029 40.8765 124.372 42.4096 123.715 43.9974C123.387 44.8187 123.003 45.6947 122.62 46.6803C123.66 47.8848 124.646 49.0894 125.686 50.2392C129.519 54.291 133.352 58.2879 137.184 62.3396C138.936 64.2012 139.265 66.5009 138.334 68.8005C137.403 71.1001 136.253 73.2902 135.158 75.5351C135.323 75.9731 135.323 76.4659 135.596 76.7944C140.141 81.5579 145.342 85.3906 151.803 87.088C158.866 88.9496 158.702 88.6758 165.382 85.6644C172.828 82.3244 180.22 78.6013 188.652 78.1632C193.087 77.9442 197.522 77.342 202.012 78.2728C204.53 78.7655 207.213 78.8203 209.732 79.4773C210.444 79.6963 211.265 79.6963 212.031 79.5868C217.507 78.656 223.037 77.78 228.184 75.4803C232.126 73.7282 236.068 71.9214 240.01 70.1145C240.941 69.6765 241.762 68.9647 242.638 68.3624C241.598 64.6393 240.722 61.0803 239.627 57.5761C238.915 55.2765 239.189 53.5244 240.996 51.7723C244.664 48.2681 248.168 44.5449 251.837 40.767C251.782 40.329 251.837 39.6172 251.508 39.1792C249.592 36.332 250.413 33.1563 250.523 30.1449C250.577 28.0643 251.946 26.4217 253.644 25.2171C259.393 21.1107 265.197 16.9494 271 12.8977C273.519 11.1456 276.202 9.61256 278.775 7.86046C282.006 5.7251 285.181 3.58974 288.302 1.23536C289.671 0.195053 290.985 -0.188213 292.573 0.085552C295.092 0.523576 297.172 1.67337 299.253 3.1517C307.794 9.06502 315.569 15.9091 323.016 23.1365C326.246 26.2575 329.531 29.2689 332.762 32.4445C342.398 41.9168 350.83 52.3199 357.784 63.9822C361.945 71.0454 366.161 78.1085 369.556 85.5549C370.596 87.745 371.253 90.1541 371.91 92.5085C372.293 93.8225 371.472 94.9176 370.651 95.8484C368.953 97.8195 367.147 99.7359 365.34 101.652C363.971 103.131 362.602 104.554 361.233 105.978C360.467 106.744 359.81 107.62 358.988 108.332C354.28 112.329 350.064 116.819 345.464 120.925C342.836 123.28 339.715 125.032 336.649 126.893C334.24 128.317 331.557 128.098 329.039 127.058C328.053 126.62 327.232 126.017 326.191 125.36C321.154 129.302 316.5 133.628 311.353 137.406C308.889 136.639 306.425 136.147 304.235 135.052C302.1 133.956 300.293 132.314 298.432 130.945C295.968 131.985 294.818 133.847 293.559 135.599C290.109 140.363 286.879 145.236 283.977 150.382C280.035 157.391 276.64 164.618 273.628 172.119C271.767 176.719 269.248 180.989 266.292 184.986C265.47 186.081 264.649 187.231 263.773 188.326C262.787 189.531 262.514 190.735 263.061 192.214C263.171 192.487 263.225 192.816 263.39 193.09C266.127 199.66 264.594 205.792 261.309 211.706C260.926 212.363 260.433 213.02 260.159 213.732C258.79 217.236 256.162 219.535 253.096 221.452C250.851 222.821 248.606 224.189 247.895 227.037C247.785 227.584 247.183 228.022 246.745 228.46C242.967 232.183 238.696 235.195 234.097 237.823C233.166 238.37 232.071 238.589 231.031 238.808C229.826 238.754 228.731 238.808 227.636 238.973ZM22.8052 83.8575C23.1885 83.2553 23.5718 82.7077 23.9004 82.1054C25.762 79.2583 27.733 76.5207 29.4851 73.6188C32.4965 68.8005 35.3984 63.9275 38.355 59.1092C33.2083 64.256 29.047 70.1146 24.5026 75.6994C24.1193 76.3016 23.7909 76.9039 23.4076 77.5062C23.0243 78.0537 22.6409 78.6013 22.2577 79.2036C21.8744 79.8058 21.546 80.4081 21.1627 81.0651C20.7794 81.9412 20.3414 82.8172 19.9581 83.6385C19.7939 83.8028 19.6844 83.967 19.6296 84.0218C19.6844 83.967 19.7938 83.8028 19.9033 83.5838C20.2866 82.7078 20.7246 81.8317 21.1079 81.0104C21.4912 80.4081 21.8198 79.8058 22.203 79.1488C22.5863 78.6012 22.9695 77.999 23.298 77.4515C23.6813 76.8492 24.0098 76.2469 24.3931 75.6446C26.1452 76.2469 26.3095 76.4659 25.8167 77.6157C25.1597 79.1488 24.5026 80.6819 23.8455 82.1602C23.5718 82.7625 23.1885 83.31 22.8052 83.8575C22.7505 83.967 22.6958 84.0766 22.5863 84.1313C22.5316 84.1861 22.5315 84.2956 22.4767 84.3503C22.5862 84.1861 22.6957 84.0218 22.8052 83.8575ZM25.4882 95.4652C25.3787 95.5199 25.2692 95.5747 25.1597 95.6842C25.105 95.7389 25.1049 95.8484 25.0501 95.9579C25.1596 95.7937 25.324 95.6294 25.4882 95.4652ZM13.3877 74.5496C13.4972 74.4948 13.6615 74.4948 13.7162 74.3853C13.771 74.3306 13.8257 74.221 13.8805 74.1663C13.771 74.2758 13.6067 74.44 13.3877 74.5496C13.333 74.7686 13.2236 74.9876 13.1688 75.0423C13.2236 74.9328 13.333 74.7138 13.3877 74.5496ZM39.8881 80.8462C40.2714 80.2439 40.6547 79.6963 40.9832 79.0941C41.0928 78.8751 41.2022 78.7108 41.3117 78.4918C41.2022 78.7108 41.1476 78.9298 41.0381 79.1488C40.6548 79.7511 40.2714 80.3534 39.8881 80.8462C39.7786 80.9557 39.6144 81.0104 39.5596 81.1199C39.5049 81.1747 39.505 81.3389 39.505 81.4484C39.5597 81.2842 39.7239 81.0652 39.8881 80.8462ZM7.52927 77.7252C7.91254 77.1777 8.29577 76.6302 8.67904 76.0826C8.73379 75.9731 8.78854 75.8636 8.84329 75.6994C8.78854 75.8089 8.73384 75.9731 8.73384 76.0826C8.35057 76.6849 7.96729 77.2325 7.52927 77.7252C7.47452 77.8347 7.36491 77.9442 7.25541 77.999C7.20065 78.0537 7.2006 78.1633 7.2006 78.2728C7.31011 78.1085 7.41976 77.8895 7.52927 77.7252ZM24.7216 64.5845C24.3383 65.1868 24.0098 65.7343 23.6265 66.3366C21.2174 68.3625 21.2174 68.3625 20.6151 71.1549C22.0935 69.4575 23.0242 67.9792 23.6265 66.2818C24.0098 65.6796 24.3383 65.0773 24.7216 64.5298C24.8311 64.475 24.9954 64.4202 25.0501 64.3107C25.1049 64.256 25.105 64.0918 25.1597 64.037C24.9955 64.2013 24.8859 64.4203 24.7216 64.5845ZM34.5224 69.2933C34.4129 69.348 34.2486 69.4028 34.1391 69.5123C34.0844 69.567 34.0844 69.7313 34.0297 69.786C34.1939 69.6218 34.3582 69.4028 34.5224 69.2933C34.851 68.6362 35.1795 68.0339 35.5628 67.3769C36.0555 67.0484 36.6578 66.7746 37.041 66.3366C40.6547 62.1754 43.94 57.7952 47.3894 53.2507C45.254 53.1959 43.8852 54.0172 42.9544 55.605C40.5453 59.5473 38.0813 63.4894 35.6174 67.4317C35.2341 68.0339 34.9057 68.6362 34.5224 69.2933ZM332.598 35.675C332.378 35.5655 332.159 35.4559 331.886 35.3464C332.159 35.4559 332.433 35.5655 332.598 35.675C332.707 35.894 332.707 36.2225 332.816 36.4962C332.871 36.6057 333.2 36.6058 333.419 36.6605C333.364 36.4963 333.364 36.332 333.255 36.2773C333.09 36.0582 332.817 35.894 332.598 35.675ZM73.1232 17.9897C71.9186 18.4278 71.2617 19.3038 70.9879 20.5631C70.4951 20.9464 70.0024 21.2749 69.1263 21.932C70.6594 21.9867 70.7141 21.1654 70.9331 20.5084C71.6449 19.6323 72.3567 18.811 73.1232 17.9897ZM79.8579 15.8544C79.3651 16.2377 78.8722 16.6209 78.3794 17.0042C78.5437 17.1685 78.7081 17.278 78.8724 17.4422C79.2009 16.8947 79.4746 16.3472 79.8031 15.7996C79.9126 15.7449 80.0769 15.6901 80.1864 15.5806C80.2411 15.5259 80.2412 15.3616 80.2412 15.2521C80.1317 15.4164 80.0221 15.6354 79.8579 15.8544ZM262.076 21.3297C261.692 21.8225 261.309 22.3152 260.981 22.808C261.145 22.9175 261.364 23.027 261.528 23.1365C261.692 22.5343 261.911 21.8772 262.076 21.2749C262.24 21.2202 262.349 21.1654 262.514 21.1107C262.349 21.2202 262.24 21.2749 262.076 21.3297ZM22.2577 60.4781C22.7504 60.0948 23.2433 59.7662 23.7361 59.383C23.5718 59.2187 23.4075 59.1092 23.298 58.945C22.9147 59.4925 22.5862 59.9853 22.2577 60.4781C22.2577 60.6423 22.203 60.7518 22.1482 60.8613C22.1482 60.7518 22.2029 60.5876 22.2577 60.4781ZM86.8114 20.1251C87.3042 19.7418 87.8517 19.4133 88.673 18.8111C87.0852 18.6468 87.1948 19.6323 86.8662 20.1799C86.5377 20.3989 86.1544 20.6179 85.8259 20.8369C85.7712 20.8916 85.7712 21.1107 85.7165 21.2202C85.9355 21.2202 86.3735 21.3297 86.3735 21.2749C86.5925 20.9464 86.7019 20.5084 86.8114 20.1251ZM319.183 39.0696C319.347 39.2886 319.512 39.5077 319.731 39.7267C319.84 39.8362 319.95 39.8362 320.114 39.8909C320.059 39.7267 320.059 39.3982 319.95 39.3434C319.731 39.1791 319.402 39.1791 319.128 39.0696C318.8 38.3031 318.526 37.5913 318.033 36.3867C317.65 38.0841 318.8 38.3578 319.183 39.0696ZM341.248 71.9214C341.358 72.5784 341.029 73.4545 342.617 73.8925C341.96 73.0165 341.577 72.5237 341.194 71.9762C341.194 70.9359 341.139 70.005 339.989 69.348C339.332 70.9358 340.153 71.5381 341.248 71.9214ZM106.687 27.6263C106.742 27.9 106.687 28.1738 106.796 28.4476C106.851 28.5571 107.125 28.6118 107.289 28.6666C107.234 28.5571 107.289 28.3928 107.18 28.2833C107.015 28.0643 106.796 27.9 106.632 27.681C105.975 26.9145 105.756 25.6004 103.73 25.7647C104.989 26.586 105.865 27.1335 106.687 27.6263ZM298.322 62.1754C298.377 62.4491 298.432 62.7229 298.486 62.9967C298.541 63.1062 298.651 63.2157 298.76 63.3252C298.815 63.1062 298.979 62.8324 298.87 62.7229C298.705 62.5039 298.432 62.3944 298.213 62.2301C298.213 60.9708 297.775 60.04 296.296 59.1639C296.57 60.7518 297.172 61.6278 298.322 62.1754ZM273.628 37.4271C273.628 36.1677 273.026 35.2369 272.041 34.4704C271.657 31.8423 270.946 29.3784 268.263 27.7905C266.511 28.6118 264.594 29.1046 262.678 28.119C262.568 28.0643 262.13 28.4476 262.076 28.7213C261.966 28.9403 262.076 29.4331 262.185 29.5426C262.952 29.9259 263.828 30.1996 264.649 30.4734C265.58 30.8019 265.635 32.6088 267.168 32.0065C267.606 31.3495 268.044 30.6377 268.536 29.9259C269.905 31.5685 271.055 32.992 272.15 34.3609C272.205 35.6202 272.369 36.8248 273.628 37.4271C274.34 39.0697 274.34 39.0696 276.257 40.4932C274.943 39.0149 274.286 38.2484 273.628 37.4271ZM323.892 77.6705C323.892 77.8347 323.837 77.9442 323.892 78.1085C323.892 78.218 324.001 78.3275 324.056 78.3822C324.001 78.1632 323.892 77.9442 323.837 77.7252C323.235 76.8492 322.687 75.9184 322.03 75.0971C321.264 74.221 320.716 74.8233 320.278 75.5351C319.512 74.7686 318.69 74.1115 318.088 73.2355C316.774 71.4834 315.569 69.7313 314.419 67.9245C313.051 65.8986 311.627 63.8727 311.134 61.3541C310.806 59.8757 309.985 58.5617 308.671 57.5761C307.521 59.7663 307.849 61.6278 309.273 63.5442C312.667 68.1434 315.952 72.7975 319.292 77.4515C319.511 77.78 319.949 77.9442 320.497 78.3275C320.442 77.2324 320.387 76.3564 320.333 75.4803C321.483 76.1921 322.687 76.9587 323.892 77.6705ZM89.1111 6.43687C87.9066 6.27261 86.6472 5.99886 85.1141 7.09392C87.0305 7.91522 87.9613 6.76541 89.1111 6.32738C89.2754 6.32738 89.4396 6.38214 89.5491 6.32738C89.6586 6.27263 89.7134 6.16311 89.7681 6.0536C89.5491 6.21786 89.3301 6.32737 89.1111 6.43687ZM324.111 36.77C324.001 36.6605 323.947 36.551 323.837 36.4415C323.782 36.3868 323.618 36.3867 323.563 36.3867C323.782 36.4962 324.001 36.6057 324.165 36.7152C324.385 38.1936 325.206 38.6864 326.684 38.4126C326.246 36.8248 325.151 36.8248 324.111 36.77ZM65.6221 65.6248C67.9217 64.475 67.9217 64.475 68.524 62.8871C67.5932 63.7632 66.6076 64.7488 65.6221 65.6248C65.6221 65.7891 65.5126 65.8986 65.4578 66.0081C65.5126 65.8986 65.5673 65.7891 65.6221 65.6248ZM20.8888 55.7145C22.7504 54.729 24.2288 53.4149 25.0501 51.4986C25.5429 51.1153 26.0356 50.6772 26.9117 50.0202C25.3786 50.075 25.2144 50.7868 25.0501 51.4986C22.9695 52.2651 21.6554 53.7434 20.8888 55.7145C19.52 56.7001 19.5201 56.7001 19.2463 58.2332C19.7938 57.4119 20.3413 56.5906 20.8888 55.7145ZM23.0791 90.4279C24.3932 89.2234 25.4334 87.9093 25.5429 86.0477C24.0645 87.1427 23.4075 88.7305 23.1337 90.4826C23.0242 90.7017 22.8601 90.8659 22.7506 91.0849C22.8601 90.8659 22.9696 90.6469 23.0791 90.4279ZM303.086 22.5343C303.14 22.808 303.14 23.1365 303.25 23.4103C303.25 23.465 303.469 23.5198 303.578 23.5745C303.414 23.1913 303.25 22.9175 303.086 22.5343C303.524 21.8772 303.797 21.1654 303.086 20.5631C302.429 20.0156 301.662 19.6324 300.512 18.8658C301.06 20.8369 301.881 21.8772 303.086 22.5343ZM29.4305 92.0157C32.4419 88.7853 32.8251 88.0188 32.6609 85.3907C31.7301 86.9785 30.9634 88.1831 30.3064 89.4971C29.9231 90.3184 29.7589 91.1945 29.4851 92.0705C29.3756 92.2895 29.2661 92.5085 29.2114 92.7275C29.3209 92.4538 29.3757 92.2347 29.4305 92.0157ZM309.273 25.9837C308.889 24.3411 308.178 22.9175 306.809 21.5487C306.699 23.7936 306.699 23.7936 309.273 25.9837C310.094 28.7761 312.175 30.7472 314.146 32.6635C314.255 32.773 314.857 32.335 315.241 32.116C315.296 32.0065 315.296 31.9517 315.35 31.8422C315.405 31.9517 315.46 32.116 315.515 32.2255C315.405 32.1708 315.296 32.1708 315.241 32.116C314.365 31.3495 313.379 30.6377 312.558 29.7616C311.408 28.5571 310.368 27.243 309.273 25.9837ZM71.5901 32.6088C74.3825 31.2947 75.5871 28.5023 77.4487 26.3122C77.7772 25.9289 78.27 25.3814 77.613 24.6696C77.2845 24.9434 76.8464 25.1624 76.5727 25.4909C74.9301 27.8453 73.2875 30.2544 71.6449 32.6088C71.5354 32.7183 71.4259 32.7731 71.3164 32.8826C71.2617 32.9373 71.2616 33.0468 71.2068 33.1563C71.3711 32.992 71.4806 32.8278 71.5901 32.6088ZM41.9141 50.3488C42.5712 49.199 43.2829 47.9943 43.8851 46.8445C44.4874 45.7495 45.6372 44.8734 45.5825 42.9571C44.8159 43.5594 44.3232 43.9427 43.8851 44.2712C42.4068 45.4757 41.2023 46.8446 42.0236 48.9799C42.2426 49.3632 42.0236 49.9107 41.9141 50.3488C41.4213 50.732 40.9833 51.1153 40.4905 51.4986C40.6547 51.6628 40.819 51.7723 40.9832 51.9366C41.3118 51.389 41.6404 50.8415 41.9141 50.3488ZM76.4084 32.2803C73.7255 34.3061 72.1924 37.0985 70.9331 40.0552C70.8236 40.1099 70.6594 40.1647 70.6046 40.2742C70.5499 40.3289 70.5499 40.4932 70.4952 40.6027C70.6047 40.3837 70.7688 40.2194 70.8783 40.0004C73.7255 38.1388 76.2442 36.0035 76.299 32.2255C76.4085 32.1708 76.518 32.116 76.6275 32.0065C76.6822 31.9517 76.6822 31.8423 76.7369 31.7327C76.6274 31.9518 76.5179 32.116 76.4084 32.2803ZM317.376 29.4879C317.486 29.7616 317.486 30.0902 317.65 30.3092C317.759 30.4734 318.088 30.4734 318.362 30.5282C318.307 30.3092 318.252 29.9807 318.088 29.8164C317.869 29.6521 317.54 29.5974 317.267 29.5426C316.172 26.1479 313.598 23.7936 311.353 21.1654C311.025 20.7274 310.258 20.6727 309.711 20.3989C308.397 19.1396 307.247 17.6065 305.659 16.6757C300.676 13.719 297.063 9.39356 293.285 5.17758C292.792 4.63005 292.299 4.19203 291.861 3.80875C289.507 4.6848 289.616 6.49161 289.397 8.1342C289.233 8.68173 288.74 9.44829 288.959 9.77681C289.835 11.2004 290.821 12.5692 292.026 13.7738C293.175 14.9784 294.27 16.4567 296.734 17.0042C295.146 14.9783 293.942 13.3905 292.683 11.8574C291.642 10.5981 290.492 9.33877 289.397 8.1342C290.054 7.36766 290.657 6.54638 291.369 5.67033C291.807 6.10836 292.245 6.38211 292.354 6.76538C293.121 9.22926 294.763 11.0361 296.68 12.5692C299.143 14.5951 301.936 16.2377 304.4 18.2088C305.988 19.4681 307.794 20.1799 309.711 20.5084C311.846 23.8483 314.201 26.9692 317.376 29.4879ZM350.283 84.0766C349.626 82.3792 349.626 82.3792 347.764 81.0104C348.969 82.434 349.626 83.2553 350.283 84.0766C350.283 84.4051 350.228 84.7336 350.392 85.0073C351.98 88.0188 353.568 90.9754 355.211 93.9321C355.265 94.0416 355.703 93.8774 356.579 93.7679C354.17 90.4827 353.294 86.6499 350.283 84.0766ZM57.8471 49.0347C61.3513 46.516 63.8699 43.1761 66.06 39.5077C66.1148 39.4529 65.7316 39.1791 65.4578 38.8506C62.6107 42.0263 59.873 45.2567 57.9019 49.0894C57.7924 49.1989 57.7377 49.2537 57.6282 49.3632C57.5734 49.418 57.5733 49.5274 57.5186 49.6369C57.6828 49.4179 57.7923 49.1989 57.8471 49.0347ZM64.089 61.7921C67.1552 59.6567 70.9879 55.386 72.3019 52.6484C70.0023 53.4697 66.6624 57.3024 64.1438 61.8469C64.0343 62.0659 63.9247 62.2849 63.8699 62.5039C63.9794 62.2849 64.0342 62.0111 64.089 61.7921ZM63.7605 56.1526C64.5818 55.4955 65.5673 54.948 66.2791 54.1814C68.743 51.389 70.9879 48.4871 72.3567 44.9282C72.4662 44.8187 72.5757 44.764 72.6304 44.6544C72.6852 44.5997 72.6852 44.4902 72.6852 44.3807C72.5757 44.5997 72.4662 44.8187 72.3567 44.983C69.6739 47.2278 65.5673 52.6484 63.7605 56.2073C63.432 56.4811 63.0487 56.7548 62.7202 57.0286C62.6107 57.1381 62.775 57.4119 62.775 57.6309C62.8845 57.5214 63.0486 57.4666 63.1581 57.3571C63.3771 56.9739 63.5415 56.5358 63.7605 56.1526ZM361.397 85.1169C362.876 90.2636 363.369 91.2492 366.051 93.713C366.106 93.6035 366.271 93.4393 366.271 93.3845C365.121 91.0302 363.916 88.7306 362.712 86.3762C362.493 85.9929 362.109 85.7192 361.781 85.3907C361.671 85.2812 361.507 85.2264 361.397 85.1716C360.083 81.5032 357.346 78.875 354.334 75.4803C355.43 78.8203 357.674 83.2553 358.934 84.1861C359.536 84.6789 360.521 84.7884 361.397 85.1169ZM333.474 77.7252C333.528 77.9442 333.638 78.218 333.692 78.437C333.857 78.218 334.021 78.0537 334.185 77.8347C334.733 78.218 335.28 78.656 336.43 79.4773C335.28 76.1374 334.569 73.5092 333.528 70.9906C332.926 69.5123 331.831 68.1982 329.641 66.7199C330.353 68.4172 330.517 69.2933 331.01 69.9503C332.652 72.3047 333.419 74.9328 333.474 77.7252ZM335.718 41.643C335.664 41.3693 335.664 41.0955 335.554 40.8765C335.499 40.767 335.445 40.6575 335.335 40.548C335.28 40.7122 335.116 40.9312 335.171 41.0407C335.28 41.2597 335.554 41.424 335.718 41.5883C335.828 42.0263 335.883 42.5191 336.102 42.9024C338.894 47.2826 341.741 51.6081 344.643 55.9335C344.807 56.2073 345.355 56.2073 345.902 56.3716C344.26 52.5936 339.387 45.5305 335.718 41.643ZM52.8647 42.9571C53.8503 42.2453 54.9453 41.643 55.7118 40.767C58.559 37.7556 61.2419 34.6347 63.9795 31.5137C64.2533 31.24 64.3628 30.8019 65.0199 29.4879C59.7636 33.8681 55.6571 37.8103 52.8647 43.0118C52.7552 43.1213 52.5909 43.1761 52.4814 43.2856C52.4266 43.3404 52.4266 43.5046 52.4266 43.6141C52.6456 43.3951 52.7552 43.1761 52.8647 42.9571ZM59.1065 55.7145C62.3369 53.2506 66.1149 48.6514 67.5385 45.4757C66.7719 45.4757 65.8411 45.1472 65.4578 45.4757C64.6365 46.1327 64.1438 47.1183 63.4868 47.9944C62.556 49.1989 62.1726 50.8415 60.4753 51.2796C60.4205 51.2248 60.311 51.1153 60.2562 51.0605C60.311 51.0058 60.4205 51.0058 60.4753 50.951C60.4753 51.0605 60.4753 51.17 60.4753 51.2796C60.092 52.7579 59.5992 54.2362 59.1065 55.7145ZM44.1588 66.5009C43.3923 67.2127 42.4616 67.8149 41.8593 68.6362C40.3262 70.5526 38.9574 72.5784 37.3695 74.4948C35.5079 76.7944 34.0297 79.2035 34.1939 82.2697C34.0297 82.434 33.8654 82.5982 33.8654 82.653C33.8654 82.5982 34.0296 82.434 34.1391 82.215C36.7673 78.3275 39.4502 74.4401 42.0236 70.4978C42.8449 69.2385 43.3924 67.8149 44.0494 66.4461C44.9254 65.9533 45.7468 65.4606 45.6373 64.1465C44.3232 64.475 44.2683 65.4606 44.1588 66.5009ZM53.1932 49.5275C56.9164 46.3518 62.4463 39.7814 64.3627 36.4415C62.7201 36.3868 61.5704 37.5913 60.5301 39.0149C58.997 41.0955 57.2449 43.0666 55.7118 45.202C54.7262 46.5708 54.0691 48.1039 53.2479 49.5822C52.7551 49.9655 52.2624 50.3487 51.7696 50.7868C51.9338 50.8963 52.0981 51.0605 52.2623 51.17C52.5909 50.6225 52.8647 50.075 53.1932 49.5275ZM45.6373 69.2933C46.1301 68.91 46.6776 68.5815 47.0609 68.1435C49.6343 64.913 52.2624 61.7373 54.7263 58.3974C55.8213 56.9738 56.5878 55.2765 57.5186 53.6887C57.6281 53.4696 57.7376 53.1959 57.8471 52.9769C57.7376 53.1959 57.6281 53.4149 57.5186 53.6339C56.6425 54.4552 55.7118 55.2217 54.8905 56.0978C54.124 56.8643 53.5764 57.7951 52.7551 58.4522C49.3057 61.3541 47.1155 65.0773 45.7467 69.348C45.6372 69.567 45.4729 69.786 45.3634 69.9503C45.4729 69.786 45.5825 69.567 45.6373 69.2933ZM49.1962 42.6286C49.689 42.3001 50.346 42.081 50.7293 41.643C53.6859 38.5221 56.6426 35.3465 59.4898 32.1708C60.6943 30.8567 61.6799 29.3236 62.5559 27.0788C61.6251 27.5715 61.187 27.681 60.968 27.9548C57.5186 31.897 54.124 35.8392 50.7841 39.8909C50.127 40.7122 49.7984 41.7525 49.3056 42.6833C48.8129 43.0666 48.3749 43.5046 47.8822 43.8879C48.0464 43.9974 48.1559 44.1069 48.3201 44.2164C48.5939 43.6689 48.8677 43.1213 49.1962 42.6286ZM356.47 88.2926C356.579 88.5116 356.415 88.2926 356.47 88.2926C357.127 87.088 357.784 85.8834 356.689 84.5146C354.389 81.6127 352.144 78.7108 349.845 75.8636C349.188 75.0423 348.531 74.2758 347.819 73.5092C347.983 75.8089 349.023 77.6157 350.173 79.313C352.199 82.3244 353.677 85.7739 356.47 88.2926ZM52.7005 30.2544C52.9195 29.0498 54.3429 28.1191 53.5764 26.0932C52.6456 27.243 51.8243 27.9548 51.3863 28.8856C50.9482 29.7069 51.6054 30.3092 52.4814 30.5282C50.4555 33.3753 48.4296 36.2225 45.4182 38.0293C44.5422 37.3176 43.8851 36.77 43.0091 36.0582C42.2425 37.0985 41.0927 37.9198 41.0927 38.7411C41.0927 40.1647 40.9833 41.424 40.3262 42.6833C40.2167 42.8476 40.4905 43.3404 40.6547 43.4499C41.038 43.6141 41.5308 43.7784 41.8593 43.6141C42.4068 43.3951 42.8449 42.9023 43.2829 42.4643C47.8822 37.9198 52.4267 33.3753 56.9712 28.7761C57.2449 28.5023 57.2448 28.0095 57.5186 27.1882C56.5878 27.6263 55.9856 27.7358 55.6024 28.0643C54.7811 28.9951 54.0145 30.0354 52.7005 30.2544ZM324.275 63.818C322.797 63.38 322.194 62.0659 321.373 60.9708C320.114 59.2187 318.964 57.4119 317.759 55.605C317.431 55.1123 316.993 54.5647 316.5 54.2909C316.226 54.1267 315.624 54.3457 315.241 54.51C315.022 54.6195 314.857 55.0027 314.857 55.2765C314.912 55.7145 315.131 56.1526 315.35 56.5358C319.238 61.9016 323.07 67.2674 327.013 72.5784C327.451 73.1807 327.889 74.2758 329.093 74.002C328.984 72.0309 327.67 70.6621 326.794 69.0743C325.863 67.3222 324.22 65.9533 324.165 63.7632C324.439 63.818 324.768 63.9275 325.042 63.9275C325.261 63.9275 325.48 63.7085 325.644 63.599C325.48 63.38 325.151 62.9967 325.096 63.0514C324.823 63.2705 324.549 63.5442 324.275 63.818ZM332.762 62.7777C331.776 61.8469 330.626 61.0256 329.86 59.9853C327.56 56.9191 325.37 53.6887 323.125 50.5677C322.632 49.8559 322.194 48.9252 320.99 49.1442C319.84 50.294 320.497 51.4438 321.209 52.4294C323.673 55.7693 326.137 59.1092 328.71 62.3944C330.407 64.5845 332.214 66.6651 334.076 68.7457C334.623 69.348 335.335 69.567 336.102 68.5267C335.445 67.5959 334.623 66.6651 334.021 65.6248C333.473 64.694 333.145 63.7085 332.762 62.7777C333.364 62.8872 333.966 63.1062 335.116 63.3799C331.502 57.9594 328.217 52.9221 324.932 47.9396C324.658 47.5563 324.33 47.2278 324.056 46.8993C323.947 46.7898 323.782 46.735 323.673 46.735C323.563 46.735 323.454 46.8446 323.07 46.9541C323.454 47.7754 323.673 48.6514 324.165 49.3084C326.465 52.5936 328.765 55.8241 331.119 59.1092C331.831 60.259 332.981 61.1898 332.762 62.7777ZM318.581 69.129C319.95 70.5526 321.373 71.9762 322.742 73.3997C324.056 74.8233 325.315 76.3016 326.575 77.78C325.48 73.2355 322.687 69.8408 319.895 66.3914C317.048 62.8872 315.733 58.2332 311.956 55.167C311.846 59.1092 311.846 59.1092 313.762 61.6279C314.529 62.6134 315.186 63.6537 315.953 64.6392C316.938 65.8986 317.705 67.1579 317.869 68.8005C317.924 69.2933 317.924 70.2241 318.033 70.2241C318.964 70.3336 318.526 69.6218 318.581 69.129ZM271.657 28.0095C271.822 27.462 272.041 26.9145 272.205 26.3669C272.205 26.2574 272.041 26.0384 271.986 26.0384C271.767 26.0932 271.329 26.2574 271.329 26.3122C271.438 26.8597 271.603 27.4073 271.712 28.0095C274.176 31.1305 277.187 33.8681 278.447 37.8103C282.444 43.0666 286.441 48.3776 290.492 53.6339C290.93 54.1815 291.642 54.729 292.683 53.7982C292.354 53.1959 292.025 52.5388 291.587 51.9366C287.7 46.5708 283.867 41.205 279.925 35.8939C277.626 32.773 275.271 29.7069 271.657 28.0095ZM302.1 52.2651C302.1 53.2507 302.264 54.1267 304.071 54.7837C303.086 53.5792 302.538 52.9769 302.045 52.3198C301.607 51.6628 301.224 51.0058 300.786 50.4035C297.391 45.64 293.942 40.8765 290.657 36.0582C289.89 34.9632 289.452 33.5944 288.959 32.335C288.905 32.1708 289.124 31.7328 289.343 31.5685C289.562 31.459 290 31.4042 290.164 31.5685C290.602 31.9518 290.985 32.4993 291.314 32.9373C295.694 38.5221 300.02 44.1617 304.4 49.6917C305.002 50.4583 305.768 51.17 306.48 51.8818C306.809 51.0058 306.59 50.513 306.316 50.075C304.947 48.2134 303.578 46.3518 302.155 44.4902C298.651 39.7814 294.927 35.1822 292.409 29.8711C290.766 26.4217 288.74 23.5198 285.346 21.6035C284.305 21.0012 283.539 19.9608 282.663 19.1396C282.061 18.592 283.429 17.2232 281.841 17.0042C281.13 18.0445 281.02 19.0848 281.787 20.0156C282.608 21.1107 283.594 22.0962 284.579 23.0818C285.893 24.3958 287.317 25.6004 288.631 26.8597C289.069 27.2978 289.343 27.8453 289.562 28.4476C289.671 28.6666 289.507 29.0499 289.288 29.2141C289.124 29.3784 288.686 29.5426 288.467 29.4879C287.755 29.1593 287.043 28.8308 286.495 28.3381C285.291 27.1335 284.251 25.8194 283.101 24.5601C281.513 22.7532 281.458 22.808 278.885 21.6582C278.994 21.932 279.049 22.2605 279.213 22.5343C280.473 24.9434 282.772 26.805 282.827 29.8711C282.827 30.5829 283.813 31.678 284.579 31.897C287.098 32.6088 287.974 34.8537 289.343 36.6605C292.792 41.205 296.187 45.8043 299.691 50.294C300.238 51.1153 301.279 51.6081 302.1 52.2651ZM107.453 38.9601C99.9523 42.7381 92.889 47.1183 86.1544 52.0461C82.048 55.0575 77.9963 58.1784 74.2183 61.6279C70.8236 64.7488 67.648 68.1434 63.8153 70.7716C62.9393 71.3739 62.2273 72.1952 61.4608 73.0165C56.752 77.8895 52.0434 82.8173 47.3346 87.6903C47.1156 87.9093 46.8966 88.1283 46.6228 88.2926C41.7498 91.961 38.4098 97.053 34.5771 101.707C34.4128 101.926 34.4677 102.309 34.3582 102.802C35.2342 104.992 37.26 106.525 38.9026 108.332C41.695 111.398 44.597 114.41 47.3894 117.531C49.47 119.83 51.4411 122.185 53.5217 124.484C54.7263 125.853 55.9855 127.167 57.6828 127.988C58.1756 127.496 58.6685 127.277 58.8328 126.893C60.9134 122.349 64.1985 118.626 66.8266 114.41C70.3856 108.715 75.1492 104.061 80.0769 99.6264C83.8549 96.2317 87.6328 92.7823 91.4655 89.3876C92.1773 88.7853 92.8343 88.0735 93.6556 87.6903C97.3788 85.9382 99.8975 82.653 103.183 80.3534C106.468 78.0537 109.917 76.0279 113.257 73.7283C118.24 70.3336 122.894 66.5009 128.424 63.9822C129.738 63.38 131.435 63.1609 132.256 61.4636C131.545 60.5328 130.942 59.6567 130.23 58.8902C124.536 52.8126 118.842 46.735 113.093 40.6575C112.655 40.2194 112.162 39.8362 111.669 39.4529C110.355 38.3578 108.877 38.1936 107.344 38.9601H107.453ZM137.075 118.352C137.951 118.571 138.881 118.735 139.812 118.954C139.703 119.228 139.538 119.447 139.484 119.666C139.429 119.775 139.539 119.94 139.593 120.323C141.072 120.268 142.605 120.214 144.083 120.049C145.288 119.94 146.547 119.556 147.751 119.611C152.186 119.666 156.293 118.352 160.345 116.819C161.659 116.326 162.973 115.833 164.287 115.45C168.174 114.3 172.117 113.698 176.059 115.231C177.154 115.669 178.358 115.998 179.672 115.505C179.18 115.067 178.851 114.738 178.03 113.972C180.329 114.41 182.027 114.738 183.834 115.067C184.107 116.983 185.038 118.133 187.064 118.461C189.966 118.954 192.813 119.721 195.66 120.433C202.614 122.239 209.403 122.02 216.028 118.954C216.85 118.571 217.726 118.242 218.602 118.023C218.821 117.969 219.149 118.242 219.642 118.516C219.478 119.611 219.259 120.761 219.095 121.747C216.412 123.115 213.784 122.896 211.21 123.17C208.582 123.499 206.063 124.046 203.381 123.882C200.807 123.718 198.234 123.608 195.66 123.444C195.715 124.046 195.605 124.375 195.77 124.594C200.095 130.233 204.366 135.928 208.746 141.512C216.85 151.861 225.008 162.154 233.166 172.448C237.765 178.306 242.529 183.946 247.84 189.202C249.482 190.845 251.125 192.487 253.26 193.309C255.341 192.925 256.655 191.502 257.969 190.243C262.349 185.862 266.127 180.935 269.139 175.569C270.672 172.886 271.712 169.929 272.862 167.082C275.6 160.347 278.994 153.941 282.28 147.426C286.441 139.268 291.533 131.712 297.775 124.977C299.527 123.061 301.552 121.363 303.414 119.556C303.305 117.75 302.319 116.326 301.333 114.957C294.325 105.54 287.153 96.2317 278.337 88.3473C274.669 85.0621 271.219 81.5032 267.77 77.9442C264.54 74.6043 261.528 71.0454 258.407 67.6507C256.984 66.0628 255.505 64.475 252.987 64.037C250.249 67.0484 246.8 69.0195 243.186 70.8811C239.901 72.5237 236.616 74.2758 233.33 75.9731C232.235 76.5207 231.031 76.9039 229.881 77.3967C224.46 79.6963 218.766 80.9009 212.853 81.5032C207.761 82.0507 202.723 82.2149 197.741 80.6819C196.701 80.3533 195.606 80.2986 194.511 80.2439C186.243 79.8606 178.577 81.7222 171.405 85.8834C163.63 90.3732 155.91 94.8629 148.135 99.2979C147.314 99.7359 146.492 100.119 145.616 100.448C141.729 102.036 137.896 103.569 134.556 106.197C133.461 107.018 132.092 107.511 130.888 108.168C130.231 108.551 129.464 108.825 128.916 109.318C128.095 110.029 127.548 111.015 127.767 112.22C128.259 115.45 132.859 118.954 136.308 118.68C136.527 118.68 136.801 118.461 137.075 118.352ZM154.486 90.9754C151.037 89.7161 148.299 88.7305 145.561 87.6355C144.412 87.1974 143.152 86.8142 142.276 86.0477C138.936 83.091 135.651 80.0249 132.421 76.9039C130.45 74.9876 128.643 72.8522 126.672 70.8811C125.303 69.4575 124.208 69.348 122.565 70.3883C120.868 71.4834 119.28 72.688 117.583 73.783C114.243 75.9731 110.574 77.8347 107.508 80.3534C100.062 86.3762 92.7248 92.5632 85.6617 99.0241C80.4054 103.788 75.5323 108.989 70.5498 114.081C69.2905 115.395 68.0312 116.764 67.5385 118.735C68.1407 119.502 68.6336 120.268 69.2906 120.925C76.518 128.536 83.581 136.366 89.0563 145.4C91.9582 150.163 94.8602 154.872 97.8168 159.581C99.8427 162.866 101.869 166.151 103.949 169.382C104.387 170.093 105.263 170.477 106.139 171.189C107.125 170.093 107.837 169.053 108.767 168.287C110.246 166.973 111.724 165.494 113.476 164.673C115.995 163.523 118.459 164.235 120.977 165.494C124.646 167.246 126.891 169.82 127.383 173.871C127.493 174.528 127.986 175.185 128.369 175.952C129.3 175.569 130.066 175.295 130.723 175.021C132.092 174.419 133.625 174.364 134.775 175.021C137.677 176.719 140.798 178.252 142.003 181.811C142.386 182.96 143.097 184.055 143.426 185.205C143.754 186.465 143.809 187.833 144.028 189.257C145.397 189.038 146.492 188.49 147.478 188.764C150.599 189.531 153.72 190.462 156.731 191.611C158.374 192.214 159.25 193.692 159.688 195.499C160.29 198.072 160.509 200.591 159.688 203.438C161.111 203.164 162.097 202.945 163.137 202.836C164.232 202.726 165.272 202.726 166.367 202.726C169.488 202.726 170.748 203.657 171.952 206.614C173.102 209.516 173.704 212.582 173.54 215.703C173.266 221.123 172.609 226.489 170.802 231.636C169.872 234.428 169.05 237.221 168.174 240.068C167.627 241.875 167.901 243.462 169.434 244.667C171.131 246.036 172.883 247.295 174.526 248.719C176.497 250.416 178.742 251.073 181.26 251.566C185.75 252.387 190.185 251.511 194.675 251.675C196.427 251.73 197.85 250.69 198.836 249.047C198.562 248.445 198.398 247.788 197.96 247.405C193.689 243.189 190.295 238.042 185.257 234.592C182.574 232.731 181.041 230.103 179.891 227.201C179.563 226.379 180.001 225.722 180.987 225.668C181.151 225.722 181.315 225.777 181.425 225.887C184.491 229.938 187.666 233.881 191.554 237.221C194.456 239.739 197.029 242.696 199.548 245.543C201.847 248.171 204.859 248.773 207.98 248.226C212.908 247.35 217.507 245.598 221.394 242.313C222.325 241.546 223.146 240.56 223.749 239.52C224.46 238.206 224.406 236.837 223.201 235.687C219.642 232.293 216.247 228.679 212.415 225.558C207.87 221.835 203.6 217.838 199.603 213.622C199 213.02 198.727 212.034 198.453 211.158C198.234 210.392 198.453 209.625 199.876 209.461C200.971 210.611 202.45 211.815 203.49 213.239C205.133 215.538 207.268 217.29 209.294 219.152C214.003 223.423 218.547 227.803 223.201 232.074C224.241 233.005 225.282 233.99 226.431 234.647C228.841 236.071 231.359 236.345 233.878 234.757C237.656 232.348 241.379 229.829 244.281 226.38C244.828 225.777 244.993 224.846 245.266 224.299C242.365 222.547 239.408 221.342 237.163 219.371C229.99 213.02 223.092 206.395 216.576 199.277C216.083 198.729 215.755 198.072 215.152 197.141C215.864 196.813 216.357 196.43 216.904 196.43C217.288 196.43 217.726 196.813 218.054 197.141C222.818 201.576 227.526 206.011 232.235 210.446C232.783 210.994 233.276 211.596 233.823 212.144C236.889 215.484 240.448 218.112 244.719 219.754C246.909 220.63 249.099 220.466 250.961 219.316C252.768 218.221 254.794 216.962 255.943 215.21C259.229 210.118 261.692 204.588 261.2 198.291C261.035 196.484 260.816 194.623 259.721 192.871C257.86 193.692 256.655 195.116 255.232 196.265C253.753 197.525 252.877 197.634 251.563 196.375C248.497 193.528 245.485 190.626 242.638 187.614C237.601 182.358 233.33 176.5 228.731 170.86C225.994 167.575 224.515 163.304 220.792 160.731C217.123 155.967 213.4 151.204 209.732 146.385C204.311 139.268 198.015 132.807 193.251 125.141C192.704 124.265 191.828 123.499 191.006 122.787C190.459 122.294 189.747 121.966 189.035 121.747C187.009 121.09 184.929 120.487 182.903 119.885C177.209 118.133 171.405 117.312 165.546 118.516C161.002 119.447 156.512 120.652 152.186 122.185C149.887 123.006 147.697 123.991 145.288 124.101C142.659 124.21 140.031 124.046 137.458 123.882C136.418 123.827 135.323 123.444 134.392 122.951C130.34 120.761 127.055 117.804 125.193 113.534C123.77 110.358 124.7 107.894 127.876 106.197C129.519 105.321 131.107 104.39 132.749 103.569C137.677 100.995 142.331 97.9291 147.532 95.9032C149.942 94.9724 152.132 93.3845 154.486 90.9754ZM312.832 131.602C314.036 132.095 314.912 131.328 315.679 130.617C318.471 128.153 321.209 125.689 323.892 123.115C326.137 120.98 328.217 118.735 330.407 116.49C331.01 115.833 331.612 115.121 332.214 114.464C331.831 113.588 331.557 112.877 331.174 112.22C324.111 101.105 316.117 90.7564 306.207 81.9412C301.005 77.3419 296.351 72.1952 291.423 67.2674C291.204 67.0484 290.985 66.8294 290.766 66.6104C286.057 61.2993 281.349 55.9883 276.53 50.732C274.888 48.9252 273.026 47.2278 271.274 45.4757C269.303 43.5046 267.332 41.5335 265.361 39.6171C264.485 38.7959 263.554 38.0841 262.623 37.3175C257.038 40.0004 252.603 43.8332 247.84 47.2278C246.635 48.1039 245.65 49.4179 244.719 50.6225C244.226 51.2795 244.062 52.2103 243.788 52.9769C245.869 54.0172 247.84 54.6195 249.373 55.7693C252.001 57.8499 254.52 60.2043 256.819 62.6682C260.816 66.9389 264.594 71.4286 268.536 75.8089C270.398 77.8895 272.26 79.9154 274.286 81.8317C276.64 84.0766 279.213 86.0477 281.513 88.2926C285.127 91.8515 288.74 95.4652 292.135 99.2979C294.982 102.528 297.501 106.087 300.129 109.537C305.057 116.107 309.82 122.732 312.229 130.726C312.394 131.109 312.667 131.328 312.832 131.602ZM157.607 200.591C157.552 199.824 157.498 198.62 157.498 197.36C157.388 195.116 156.348 193.637 154.103 192.98C152.351 192.433 150.599 191.83 148.847 191.228C147.04 190.571 145.616 190.9 144.193 192.268C141.948 194.458 140.086 196.868 138.662 199.605C136.199 204.205 133.68 208.804 131.38 213.513C130.121 216.141 129.026 218.878 128.205 221.671C127.712 223.423 127.657 225.339 127.712 227.146C127.767 229.281 128.917 231.033 130.833 231.964C132.913 232.95 135.104 233.771 137.458 233.716C140.25 233.607 142.605 232.84 144.083 230.267C145.288 228.132 146.766 226.16 147.916 223.97C150.215 219.426 152.241 214.772 154.65 210.282C156.238 207.38 156.95 204.259 157.607 200.591ZM140.25 189.969C139.977 187.833 139.703 185.753 139.374 183.617C138.936 180.88 136.965 179.401 134.556 178.471C133.023 177.868 131.545 177.978 130.23 179.073C129.026 180.059 127.876 181.099 126.672 182.084C124.481 183.946 121.744 185.26 120.868 188.326C120.704 188.874 120.046 189.202 119.663 189.695C118.787 190.79 117.802 191.776 117.145 192.98C115.119 196.922 112.983 200.865 111.286 205.026C108.822 211.049 109.424 213.184 113.914 217.893C114.024 218.002 114.133 218.167 114.243 218.221C116.269 219.864 118.294 221.616 120.923 222.164C122.51 222.492 123.605 222.054 124.427 220.63C125.248 219.152 126.124 217.619 126.562 216.031C127.438 212.527 129.245 209.461 131.107 206.449C133.625 202.343 136.199 198.346 138.717 194.294C139.539 193.035 140.25 191.721 140.25 189.969ZM170.036 219.316C170.803 212.144 170.638 211.651 169.379 208.53C168.448 206.23 166.915 205.19 164.506 205.026C162.699 204.916 161.275 205.354 160.071 206.887C154.979 213.567 151.529 221.068 148.792 229.008C147.752 232.074 147.204 235.195 148.792 238.37C149.285 239.356 148.792 240.779 149.723 241.82C151.803 244.229 154.158 245.981 157.552 246.091C160.728 246.2 162.973 245.105 164.177 242.203C164.999 240.232 165.601 238.151 166.203 236.071C166.751 234.154 167.298 232.238 167.682 230.267C168.667 226.051 169.488 221.835 170.036 219.316ZM97.3787 192.378C97.324 194.075 97.1598 195.006 97.2693 195.937C97.543 198.948 98.5286 201.631 101.047 203.602C102.635 204.807 104.497 205.026 106.358 204.643C108.001 204.314 108.165 202.726 108.713 201.467C110.027 198.51 111.012 195.28 112.874 192.706C116.159 188.271 119.061 183.453 123.551 180.004C124.536 179.237 125.248 178.252 125.358 176.938C125.96 170.751 121.196 167.52 116.597 167.137C115.447 167.027 114.133 167.52 113.148 168.177C111.779 169.108 110.465 170.258 109.424 171.572C105.099 176.992 101.321 182.851 98.3644 189.147C97.7074 190.352 97.543 191.776 97.3787 192.378ZM311.901 50.6225C311.737 48.1039 310.204 46.4065 308.835 44.5997C304.016 38.2483 298.924 32.0065 295.749 24.2863C293.394 23.6841 291.807 21.7677 290.164 19.9609C288.686 18.373 287.152 16.8947 285.619 15.4164C285.236 15.0331 284.689 14.5951 283.867 15.5806C286.058 18.373 287.755 21.6582 291.204 23.4103C292.902 24.2863 294.161 25.3814 294.544 27.5168C294.763 28.7761 295.749 29.9806 296.57 31.0757C301.333 37.3175 306.097 43.5594 310.915 49.7465C311.189 50.0202 311.572 50.294 311.901 50.6225ZM283.484 36.0035C288.795 44.1617 295.092 50.6773 301.005 57.4666C301.06 57.5761 301.498 57.3571 301.936 57.2476C301.443 56.4263 301.005 55.605 300.458 54.8932C296.132 49.0894 291.806 43.2856 287.481 37.5365C287.098 37.0438 286.715 36.4415 286.222 36.2225C285.565 36.0035 284.798 36.113 283.484 36.0035ZM323.454 40.2742C324.603 42.9023 325.315 45.5853 326.794 47.7754C330.407 53.0864 334.404 58.1784 338.292 63.3252C338.401 63.4347 338.785 63.3799 339.058 63.3799C339.113 63.2704 339.223 63.1062 339.277 62.9967C339.332 62.6682 339.442 62.2849 339.277 62.1206C334.295 55.4955 329.805 48.5419 325.644 41.3692C325.425 40.986 324.987 40.7122 324.658 40.4384C324.439 40.2742 324.111 40.3289 323.454 40.2742ZM119.663 43.4499C121.853 41.424 122.784 39.3434 121.58 36.6058C117.145 36.4963 117.145 36.4962 114.188 37.8651C115.392 40.2742 117.473 41.8073 119.663 43.4499ZM303.524 62.3396C307.411 69.0742 312.229 74.3306 316.883 79.8606C317.595 78.9846 317.102 78.437 316.774 78.0537C312.996 72.8522 309.163 67.6507 305.33 62.4492C305.221 62.2849 304.783 62.3944 303.524 62.3396ZM328.984 122.623C329.203 123.28 329.258 123.827 329.531 124.101C331.283 125.525 334.514 125.306 336.211 123.499C337.635 121.966 336.266 120.652 335.499 119.392C335.28 119.064 334.788 118.845 334.295 118.516C333.638 118.899 332.871 119.173 332.324 119.611C331.229 120.597 330.134 121.637 328.984 122.623ZM319.84 43.6141C319.84 43.3404 319.95 42.9571 319.785 42.7381C316.062 37.208 311.353 32.5541 306.754 27.8453C306.645 27.7358 306.48 27.681 306.316 27.7358C306.206 27.7358 306.097 27.9 305.823 28.1738C309.711 33.1016 313.653 38.0841 317.595 43.0118C317.978 43.4499 318.526 43.7784 319.074 44.0522C319.238 44.0522 319.566 43.7236 319.84 43.6141ZM252.877 33.5943C252.603 35.6202 252.822 37.3175 254.52 38.6316C256.71 37.5365 258.955 36.8795 260.159 34.5251C258.188 31.7327 255.834 31.9517 252.877 33.5943ZM335.664 101.597C335.007 98.0385 332.981 94.4796 328.217 87.8545C327.889 87.4165 327.505 86.8142 326.739 87.2522C327.889 91.304 332.159 98.3671 335.664 101.597ZM335.828 81.7769C337.306 87.0332 340.318 91.4135 343.712 95.5747C344.041 96.0127 344.534 96.615 345.3 95.6842C342.124 91.0849 339.004 86.4309 335.828 81.7769ZM349.516 99.0789C350.994 98.3671 350.666 97.4363 350.118 96.6698C348.257 93.8226 346.341 91.0302 344.424 88.2378C344.15 87.7997 343.876 87.0332 342.946 87.6355C344.972 91.5777 346.833 95.5747 349.516 99.0789ZM32.606 106.635C31.1277 106.799 30.7992 107.894 30.5802 108.88C30.1422 111.125 31.7299 112.658 34.0843 112.22C35.2889 112.001 35.8913 110.96 35.3985 109.865C34.6867 108.551 33.9201 107.292 32.606 106.635ZM332.433 83.5838C335.937 90.8659 338.401 94.5892 340.975 96.7793C339.223 92.399 335.609 86.7047 332.433 83.5838ZM341.467 104.499C341.741 104.335 342.015 104.116 342.289 103.952C340.756 99.9002 337.799 96.7793 335.335 93.3298C335.171 93.0561 334.678 93.0013 333.474 92.4538C336.485 96.9982 339.004 100.776 341.467 104.499ZM292.956 18.2088C291.314 14.9783 290.438 14.0475 287.317 12.6239C288.412 15.7449 289.507 16.8399 292.956 18.2088ZM351.706 94.4249C351.049 89.8804 348.695 86.0477 346.012 84.1313C348.038 87.6903 349.899 91.0302 351.706 94.4249ZM82.5955 42.0263C82.5408 41.9168 82.4859 41.6978 82.3217 41.643C82.2122 41.5883 81.9932 41.643 81.8837 41.7526C80.0221 43.9427 78.1606 46.1875 76.299 48.4324C76.1895 48.5966 76.3537 48.9799 76.4084 49.2537C78.708 48.3229 78.9271 48.1039 82.5955 42.0263ZM341.577 80.6819C339.934 75.6993 338.401 72.9069 336.485 71.3191C336.485 71.8666 336.321 72.3594 336.54 72.6879C338.237 75.0971 338.894 78.1632 341.577 80.6819ZM303.086 67.8697C305.549 72.5784 307.082 74.3305 309.711 75.4256C308.013 73.0712 306.59 71.1001 305.111 69.1837C304.838 68.8552 304.4 68.691 303.086 67.8697ZM353.842 96.9435C354.225 98.5861 354.608 99.7359 354.718 100.886C354.882 102.09 354.772 103.295 356.032 104.007C357.017 101.543 357.127 101.324 356.853 100.119C356.689 99.4074 356.415 98.6408 355.922 98.0933C355.484 97.6553 354.772 97.4363 353.842 96.9435ZM318.635 53.1959C315.733 48.7609 314.365 47.3373 312.229 46.1328C314.967 50.6773 314.967 50.6773 318.635 53.1959ZM71.0426 26.6955C75.7513 22.9723 75.9156 22.808 76.7369 20.1251C74.2183 21.2749 73.616 21.932 71.0426 26.6955ZM274.559 23.5745C274.395 23.7935 274.012 24.0126 274.012 24.2316C274.121 24.9434 274.231 25.7646 274.614 26.3122C276.421 28.9403 277.078 29.4879 279.268 30.5282C278.939 28.8856 277.461 28.3928 276.749 27.3525C275.819 26.2027 275.271 24.8338 274.559 23.5745ZM331.393 39.7814C332.817 43.6141 335.007 46.5708 337.744 48.2134C335.828 45.3662 334.185 42.9571 332.543 40.6027C332.324 40.2742 331.886 40.11 331.393 39.7814ZM104.113 30.6924C104.332 30.4734 104.497 30.2544 104.716 30.0354C104.004 29.1046 103.347 28.119 102.526 27.1882C102.361 27.024 101.54 27.024 101.431 27.243C101.266 27.5168 101.212 28.2286 101.431 28.4476C102.252 29.2689 103.183 29.9259 104.113 30.6924ZM274.614 13.281C273.026 13.938 271.384 14.5951 270.179 16.9494C272.643 16.0734 273.683 14.7046 274.614 13.281ZM362.712 93.8773C362.109 96.6149 362.109 96.615 363.916 98.0386C363.478 96.396 363.095 95.1366 362.712 93.8773ZM98.2001 25.5456C99.2952 25.2719 99.7879 24.8339 99.3499 24.1768C98.9666 23.5745 98.3096 23.1365 97.6526 22.7533C97.4336 22.589 96.9407 22.8628 96.1741 23.0818C97.1049 24.0673 97.7074 24.8886 98.2001 25.5456ZM271.712 39.1792C272.807 41.8073 272.807 41.8073 274.943 43.0666C273.793 41.6978 272.753 40.4385 271.712 39.1792ZM85.8259 43.1214C88.016 43.2856 88.6183 42.4643 89.0563 41.5335C89.1658 41.3145 89.0563 40.9312 88.8921 40.7122C88.7278 40.548 88.2351 40.4932 88.1256 40.6027C87.4686 41.205 86.921 41.8621 85.8259 43.1214ZM18.5893 77.7252C18.1513 78.4918 17.6586 79.2035 17.2753 79.9701C17.0015 80.4629 16.9467 81.0651 16.5635 82.4887C18.2061 80.7914 18.8631 79.5868 18.5893 77.7252ZM345.574 66.0628C345.902 68.472 345.902 68.472 348.64 71.2096C347.381 69.0195 346.614 67.7602 345.574 66.0628ZM310.149 38.2483C310.806 40.8765 310.806 40.8765 313.27 42.1905C311.956 40.548 311.08 39.3981 310.149 38.2483ZM80.0769 30.6377C80.734 29.8711 81.3909 29.2689 81.8289 28.5571C81.9932 28.2833 81.7742 27.7905 81.7195 27.3525C81.3362 27.4072 80.7886 27.2977 80.6243 27.5168C79.9673 28.338 79.3104 29.2141 80.0769 30.6377ZM316.445 21.9867C315.405 19.5229 315.405 19.5228 313.543 19.3586C314.529 20.1799 315.241 20.8369 316.445 21.9867ZM332.707 46.8993C332.488 47.0088 332.269 47.1183 332.05 47.2278C332.378 47.7206 332.652 48.2681 333.035 48.7062C333.364 49.0894 333.474 49.9107 334.459 49.4179C333.857 48.5966 333.254 47.7753 332.707 46.8993ZM305.933 130.179C306.097 130.179 306.206 130.233 306.316 130.179C307.083 129.741 307.63 128.536 307.356 127.934C307.302 127.824 307.137 127.715 307.028 127.715C306.371 127.715 305.714 128.755 305.769 129.795C305.769 129.905 305.878 130.069 305.933 130.179ZM342.891 46.9541C342.727 47.1183 342.508 47.3373 342.344 47.5016C342.836 48.1039 343.329 48.7062 343.877 49.3632C344.041 49.2537 344.205 49.0894 344.369 48.9799C343.877 48.3229 343.384 47.6659 342.891 46.9541ZM359.646 100.174C359.81 98.9146 360.029 98.4218 359.919 98.0386C359.864 97.7101 359.426 97.491 359.207 97.2172C359.043 97.6005 358.769 97.9838 358.769 98.3124C358.824 98.6956 359.153 99.0789 359.646 100.174ZM93.1628 18.4278C92.9985 18.6468 92.7795 18.8658 92.6152 19.0301C92.9985 19.4681 93.3819 19.9061 93.7652 20.3441C93.8199 20.3989 94.1484 20.4536 94.2031 20.3989C94.3126 20.1799 94.5317 19.7419 94.4222 19.6324C94.0389 19.1943 93.6008 18.8111 93.1628 18.4278ZM305.44 32.2803C305.604 34.5251 306.207 35.1822 307.521 35.1822C307.028 34.4704 306.535 33.8134 305.44 32.2803ZM101.047 14.595C101.595 15.1973 102.197 15.8544 102.854 16.6209C103.237 15.1426 102.252 14.8141 101.047 14.595ZM325.972 30.0354C325.644 31.5137 326.246 32.116 328.327 32.4993C327.122 31.24 326.52 30.6377 325.972 30.0354ZM303.195 42.5191C302.921 42.1358 302.702 41.8073 302.429 41.4788C302.429 41.4788 302.155 41.6978 301.991 41.8073C302.319 42.1358 302.593 42.4643 302.921 42.7381C302.921 42.7381 303.086 42.6286 303.195 42.5191ZM268.92 24.3958C268.756 24.1768 268.591 23.9578 268.427 23.7388C267.934 24.1768 267.387 24.6148 266.894 24.9981C267.003 25.1624 267.113 25.3267 267.277 25.4909C267.825 25.1076 268.372 24.7791 268.92 24.3958ZM338.456 55.0575C338.237 55.167 338.018 55.2765 337.799 55.386C338.182 55.9336 338.566 56.4263 338.949 56.9739C339.113 56.8644 339.277 56.7548 339.496 56.6453C339.168 56.0978 338.784 55.5503 338.456 55.0575ZM342.891 118.023C342.617 117.75 342.398 117.421 342.124 117.147C341.96 117.366 341.632 117.64 341.687 117.804C341.741 118.133 342.015 118.461 342.234 118.735C342.398 118.516 342.617 118.297 342.891 118.023ZM30.9635 45.0924C31.1278 45.2567 31.2372 45.3662 31.4015 45.5305C31.8395 45.0925 32.2776 44.7092 32.6609 44.2712C32.5514 44.1069 32.3871 43.9974 32.2775 43.8331C31.8395 44.2712 31.4016 44.6544 30.9635 45.0924ZM352.09 73.0165C352.254 72.1404 352.144 71.3191 351.049 71.5381C351.378 72.0857 351.761 72.5237 352.09 73.0165ZM339.661 51.2248C339.441 51.389 339.223 51.5533 339.004 51.7176C339.387 52.2104 339.77 52.7031 340.153 53.1959C340.318 53.0864 340.482 52.9769 340.646 52.8674C340.318 52.2651 339.989 51.7176 339.661 51.2248ZM305.44 77.5609C305.44 77.6704 305.331 77.8895 305.385 77.8895C305.55 77.999 305.714 78.0537 305.878 78.1085C305.823 77.999 305.823 77.8347 305.769 77.7252C305.714 77.6157 305.549 77.6157 305.44 77.5609ZM90.7537 12.7882C90.8084 12.624 90.8633 12.5145 90.8633 12.3502C90.5895 12.3502 90.2609 12.1859 90.0966 12.2954C89.9324 12.4049 89.9872 12.7882 89.9324 13.0073C90.2609 12.9525 90.4799 12.8977 90.7537 12.7882ZM37.3147 50.6225C37.0957 50.7868 36.7672 50.8415 36.6577 51.0605C36.603 51.2248 36.7672 51.4986 36.822 51.7176C37.0957 51.4438 37.3696 51.17 37.5886 50.8415C37.5338 50.7868 37.4242 50.732 37.3147 50.6225ZM305.769 125.032C305.823 124.922 305.823 124.758 305.878 124.649C305.604 124.649 305.33 124.484 305.111 124.594C305.002 124.648 305.002 125.032 304.947 125.251C305.276 125.196 305.495 125.086 305.769 125.032ZM321.537 57.6309C321.373 57.4119 321.264 57.1928 321.045 57.0286C321.045 57.0286 320.88 57.1381 320.771 57.1929C320.935 57.4119 321.045 57.6309 321.264 57.7951C321.264 57.8499 321.428 57.6856 321.537 57.6309ZM83.1431 25.1076C83.0336 25.1076 82.8693 25.1624 82.7598 25.1624C82.8693 25.3814 82.924 25.6552 83.0883 25.8742C83.0883 25.9289 83.3073 25.8194 83.4716 25.7647C83.3621 25.5456 83.2526 25.3267 83.1431 25.1076ZM95.4625 27.5715C95.2435 27.681 94.8601 27.681 94.8053 27.8453C94.7506 28.0643 94.915 28.3381 94.9697 28.6118C95.1888 28.5023 95.5719 28.4475 95.6814 28.2833C95.7909 28.1738 95.572 27.8453 95.4625 27.5715ZM89.823 45.2567C89.7134 45.2567 89.4944 45.2567 89.4396 45.3115C89.3301 45.421 89.2753 45.5852 89.2206 45.6947C89.4396 45.6947 89.6587 45.6948 89.823 45.64C89.823 45.64 89.823 45.3662 89.823 45.2567ZM35.4531 41.2598C35.5626 41.0407 35.6175 40.8217 35.727 40.6027C35.6175 40.6027 35.3984 40.6027 35.3437 40.6575C35.2342 40.8217 35.1795 41.0955 35.07 41.3145C35.2343 41.2598 35.3436 41.2598 35.4531 41.2598ZM343.931 57.7951C343.712 57.6856 343.493 57.5761 343.274 57.4666C343.274 57.5761 343.219 57.7404 343.274 57.7951C343.438 57.9594 343.658 58.0142 343.877 58.1237C343.877 58.0142 343.931 57.9046 343.931 57.7951ZM307.411 39.2886C307.302 39.1791 307.192 39.0696 307.137 38.9601C307.028 39.0696 306.918 39.2339 306.864 39.3434C306.973 39.3982 307.083 39.5624 307.247 39.5624C307.247 39.5624 307.356 39.3981 307.411 39.2886ZM292.573 61.9564C292.518 61.7373 292.464 61.4636 292.409 61.2446C292.409 61.1898 292.19 61.2446 292.08 61.2446C292.135 61.4636 292.19 61.7373 292.245 61.9564C292.245 62.0111 292.409 61.9564 292.573 61.9564ZM350.447 108.387C350.447 108.223 350.502 108.113 350.502 107.949C350.392 108.058 350.228 108.113 350.118 108.277C350.064 108.387 350.173 108.551 350.228 108.661C350.283 108.606 350.392 108.496 350.447 108.387ZM310.039 51.8818C309.875 51.6628 309.656 51.4438 309.492 51.2796C309.437 51.2796 309.273 51.3891 309.163 51.4438C309.327 51.6628 309.492 51.8818 309.656 52.1009C309.711 52.1009 309.93 51.9366 310.039 51.8818ZM330.243 43.7784C330.188 43.5594 330.188 43.3404 330.134 43.1214C330.079 43.0119 329.915 42.9571 329.805 42.9024C329.75 43.1214 329.531 43.3951 329.586 43.4499C329.75 43.6141 330.024 43.6689 330.243 43.7784ZM302.538 8.40798C302.483 8.46274 302.319 8.57225 302.319 8.627C302.319 8.7365 302.429 8.846 302.483 8.9555C302.593 8.846 302.757 8.7365 302.867 8.627C302.757 8.51749 302.648 8.46274 302.538 8.40798ZM279.98 15.0878C280.035 14.9783 280.144 14.8688 280.144 14.7046C280.144 14.6498 279.925 14.5403 279.87 14.5403C279.761 14.5951 279.706 14.7593 279.651 14.8688C279.761 14.9783 279.87 15.0331 279.98 15.0878ZM102.964 35.2917C102.909 35.1822 102.854 35.0727 102.799 35.0179C102.69 34.9632 102.58 34.9632 102.416 34.9632C102.471 35.1274 102.526 35.2917 102.635 35.4012C102.635 35.4559 102.854 35.3465 102.964 35.2917ZM12.0737 86.1572C12.0189 86.0477 11.9642 85.9382 11.9094 85.8287C11.7999 85.8834 11.6357 86.0477 11.6357 86.0477C11.7452 86.2119 11.8547 86.3762 11.9642 86.4857C12.019 86.3762 12.0189 86.2667 12.0737 86.1572ZM96.9408 12.5145C96.9408 12.624 96.9408 12.7335 96.9408 12.843C97.105 12.7882 97.2693 12.7882 97.4335 12.7335C97.3788 12.624 97.324 12.4597 97.2693 12.4597C97.1598 12.4049 97.0503 12.4597 96.9408 12.5145ZM89.4396 25.9837C89.4944 25.8742 89.5491 25.7647 89.6039 25.6552C89.4944 25.6004 89.3849 25.4909 89.2754 25.4909C89.2206 25.4909 89.1111 25.7099 89.1111 25.7647C89.1659 25.8742 89.3301 25.9289 89.4396 25.9837ZM91.6297 21.1107C91.5202 21.3297 91.4654 21.4939 91.4107 21.6582C91.5202 21.6582 91.6297 21.6035 91.794 21.6035C91.7392 21.494 91.6845 21.3844 91.6297 21.1107ZM341.194 60.1495L341.248 59.7662L340.92 59.821L341.194 60.1495ZM46.13 33.5396C46.0205 33.6491 45.9111 33.7586 45.8563 33.8133C46.0206 33.9229 46.1848 33.9776 46.3491 34.0871C46.4038 33.9776 46.5133 33.8134 46.4585 33.7039C46.4038 33.6491 46.2395 33.5944 46.13 33.5396ZM67.5933 15.3616L67.3194 15.3069V15.5806L67.5933 15.3616ZM267.825 35.0179C267.825 35.1274 267.825 35.2369 267.825 35.3464C267.989 35.2917 268.153 35.2917 268.317 35.2369C268.263 35.1274 268.208 35.0179 268.099 34.9632C268.044 34.9084 267.934 35.0179 267.825 35.0179ZM247.949 57.9594C247.895 58.0689 247.84 58.1784 247.73 58.2879C247.895 58.2332 248.059 58.1784 248.223 58.1237C248.168 58.0689 248.059 58.0142 247.949 57.9594ZM89.823 23.3008C89.823 23.4103 89.8228 23.5198 89.8776 23.6841C90.0418 23.6293 90.2609 23.6293 90.4252 23.5745C90.3704 23.465 90.3156 23.3008 90.2061 23.3008C90.0966 23.246 89.9872 23.3008 89.823 23.3008ZM358.222 75.5898L358.112 75.2613L357.948 75.5351L358.222 75.5898ZM352.637 63.599L352.747 63.8727L352.911 63.599H352.637ZM332.598 90.0994L332.488 89.7708L332.324 90.0446L332.598 90.0994ZM96.6123 35.456L96.229 35.5654L96.5575 35.7297L96.6123 35.456ZM53.1932 65.2963L52.9742 65.2415L53.029 65.5153L53.1932 65.2963ZM49.7438 50.3488L50.0174 50.4035L49.9628 50.1297L49.7438 50.3488ZM244.007 57.7404L244.281 57.7951L244.226 57.4666L244.007 57.7404ZM256.984 28.8856L256.765 28.7213L256.71 28.9403L256.984 28.8856ZM334.295 107.511L334.404 107.894L334.569 107.566L334.295 107.511ZM333.857 112.22L333.966 112.493L334.131 112.22H333.857ZM351.706 100.995L352.035 101.05L351.925 100.667L351.706 100.995Z" fill="#070A0B"/>
<path d="M60.2564 102.473C59.8731 105.43 58.7234 107.839 55.7668 108.934C52.8648 110.029 49.3058 109.153 47.2799 106.963C43.8853 103.294 43.4472 99.2427 46.0754 95.629C47.2799 93.9317 48.9225 92.7819 51.0031 92.5081C51.8792 92.3986 52.8647 92.3987 53.7408 92.6724C57.0807 93.5485 60.5301 98.8595 60.2564 102.473ZM49.4154 105.758C50.7842 105.977 51.5506 106.306 52.2077 106.142C55.2191 105.375 57.3545 101.761 56.3141 98.9143C55.9856 97.9835 55.1097 97.1621 54.3431 96.4503C53.9599 96.1218 53.0838 95.9028 52.6458 96.0671C51.6602 96.4503 50.6747 96.9979 49.963 97.7644C49.3059 98.4214 48.3202 99.2428 48.9773 100.447C50.7841 100.612 50.8389 98.969 51.6055 98.1477C52.2625 97.4359 53.4124 97.4907 54.0694 98.1477C54.9455 98.969 55.1644 100.393 54.2883 100.995C52.5362 102.254 51.5508 104.061 49.4154 105.758Z" fill="#070A0B"/>
<path d="M309.163 109.756C309.711 106.58 310.97 104.554 313.488 103.514C315.843 102.529 317.978 103.076 320.004 104.554C323.289 107.018 324.384 110.084 323.125 113.37C322.03 116.217 319.84 117.695 316.719 117.695C313.598 117.75 311.134 116.326 310.094 113.589C309.546 112.275 309.382 110.741 309.163 109.756ZM314.146 108.497C312.393 110.358 312.339 112.056 313.434 113.808C314.255 115.122 315.46 115.286 316.774 114.957C315.898 112.767 315.076 110.796 314.146 108.497ZM315.624 106.416C316.281 107.237 316.938 107.84 317.376 108.606C317.814 109.318 318.033 110.139 318.416 111.07C319.073 110.796 319.621 110.577 320.114 110.303C320.333 110.194 320.442 109.756 320.387 109.482C320.278 108.935 320.168 108.278 319.895 107.84C318.909 106.416 317.65 105.814 315.624 106.416Z" fill="#070A0B"/>
<path d="M139.976 203.602C143.48 205.245 146.054 207.873 149.996 206.833C152.022 204.643 153.008 201.796 153.446 198.675C153.61 197.744 153.665 197.744 155.581 197.361C155.636 197.963 155.8 198.565 155.69 199.167C155.088 202.398 153.555 205.3 151.748 207.983C150.106 210.447 147.587 210.939 144.74 210.227C141.619 209.516 139.976 207.709 139.976 203.602Z" fill="#070A0B"/>
<path d="M136.582 186.41C135.925 187.888 135.487 189.531 134.556 190.955C133.132 193.145 131.216 194.897 128.971 196.32C127.821 197.087 126.726 197.196 125.467 196.704C124.043 196.101 122.565 195.499 121.853 194.021C121.634 193.528 121.634 192.707 121.908 192.323C122.182 191.94 123.003 191.776 123.496 191.885C124.043 191.995 124.591 192.378 125.084 192.761C127.11 194.404 128.424 193.856 129.957 192.269C131.107 191.119 132.037 189.64 132.913 188.217C133.406 187.45 133.571 186.465 134.118 185.753C134.392 185.37 135.104 185.205 135.651 185.205C135.98 185.151 136.199 185.808 136.582 186.41Z" fill="#070A0B"/>
<path d="M165.053 220.192C162.699 220.794 160.892 220.575 159.25 219.645C158.647 219.316 158.1 218.604 157.936 217.947C157.771 217.345 158.209 216.633 158.373 215.812C159.797 216.524 160.892 217.236 162.151 217.674C163.466 218.112 164.67 217.564 165.218 216.305C166.039 214.498 166.641 212.636 167.298 210.829C168.339 210.556 168.886 211.213 168.722 211.979C168.393 213.622 167.955 215.264 167.298 216.743C166.805 217.947 165.82 219.042 165.053 220.192Z" fill="#070A0B"/>
<path d="M119.389 172.065C119.718 176.171 118.13 178.471 116.323 180.497C115.119 181.811 113.476 182.906 111.833 183.672C110.081 184.494 108.22 184.11 106.632 182.796C105.756 182.084 105.756 181.263 106.249 180.332C106.687 179.456 107.289 178.745 108.384 178.964C109.15 179.128 109.808 179.511 110.519 179.73C112.929 180.497 113.64 180.278 115.173 178.087C116.049 176.828 116.706 175.405 117.528 174.091C117.856 173.653 118.294 173.269 119.389 172.065Z" fill="#070A0B"/>
</svg>
