<svg width="260" height="240" viewBox="0 0 260 240" fill="none" xmlns="http://www.w3.org/2000/svg">
<path d="M132.57 130.022C137.096 131.003 139.912 132.839 142.096 135.529C142.919 136.541 143.615 137.712 144.026 138.946C145.545 143.535 146.906 148.187 148.267 152.839C148.425 153.377 148.298 153.978 148.298 154.738C145.64 155.972 142.982 156.415 140.165 156.162C134.153 155.624 128.14 155.371 122.159 156.636C118.773 157.364 116.209 155.655 113.646 153.915C113.171 153.598 112.887 152.617 112.95 151.984C113.171 149.358 113.488 146.731 113.868 144.136C114.184 141.921 114.975 139.832 116.431 138.124C119.058 134.991 121.241 131.446 125.323 129.358C124.058 128.345 123.013 127.617 122.064 126.763C120.355 125.244 119.216 123.44 119.279 121.003C119.342 119.104 119.247 117.174 119.216 115.275C119.184 113.471 119.595 111.826 120.671 110.307C121.684 108.883 122.412 107.3 124.152 106.509C126.621 105.402 129.089 104.516 131.811 104.959C132.634 105.085 133.551 105.465 134.153 106.003C135.577 107.269 136.937 108.63 138.108 110.117C140.007 112.554 141.02 115.244 139.722 118.345C139.564 118.756 139.532 119.199 139.469 119.642C138.805 123.661 137.412 127.269 132.57 130.022ZM133.804 142.522C133.804 142.396 133.836 142.301 133.836 142.174C133.994 142.269 134.121 142.396 134.279 142.491C134.153 142.522 134.058 142.554 133.963 142.617C133.773 142.839 133.52 142.997 133.456 143.25C133.425 143.408 133.678 143.63 133.773 143.82C133.899 143.63 134.121 143.44 134.089 143.25C134.089 142.997 133.899 142.744 133.804 142.522ZM141.653 142.301C141.463 142.902 141.273 143.535 141.083 144.136C141.21 144.168 141.368 144.2 141.494 144.2C141.558 143.598 141.621 142.965 141.653 142.301C141.146 141.478 140.64 140.655 139.88 139.358C140.134 141.984 140.134 141.984 141.653 142.301ZM142.444 137.839C142.412 138.092 142.38 138.345 142.349 138.63C142.38 138.377 142.444 138.124 142.475 137.87C141.463 136.826 140.482 135.75 139.437 134.737C139.058 134.389 138.551 133.915 137.982 134.611C140.197 136.984 140.197 136.984 142.444 137.839ZM134.121 133.946C134.691 135.655 132.982 136.478 132.602 137.807C132.412 138.408 132.032 139.136 132.95 139.516C133.14 139.421 133.298 139.389 133.361 139.294C134.184 137.997 135.007 136.7 135.925 135.181C135.165 134.737 134.596 134.389 133.994 134.01C133.583 132.301 132.792 131.731 131.969 132.649C130.672 134.041 129.437 135.465 128.393 137.016C127.982 137.586 127.665 138.63 129.247 139.389C130.355 137.238 131.463 134.801 134.121 133.946ZM135.039 109.547C133.963 108.851 133.14 108.281 132.285 107.775C131.399 107.237 130.608 107.395 130.007 108.218C129.469 108.946 129.121 109.706 130.102 110.402C131.083 110.149 131.874 108.851 133.077 109.8C132.38 112.269 132.38 112.269 132.887 113.725C134.596 112.775 133.836 110.813 135.039 109.547ZM130.07 141.32C129.564 142.206 129.089 142.839 128.836 143.567C128.709 143.915 129.089 144.421 129.279 144.959C130.735 143.946 131.21 142.965 130.07 141.32ZM121.652 146.541C119.501 147.871 119.501 147.902 119.121 150.276C120.292 148.978 121.779 148.472 121.652 146.541ZM135.039 152.649C134.849 152.807 134.564 153.029 134.311 153.282C134.596 153.535 134.849 153.82 135.134 154.073C135.229 154.136 135.418 154.136 135.545 154.105C135.861 153.947 136.178 153.725 136.494 153.535C136.21 153.282 135.956 152.997 135.64 152.744C135.545 152.649 135.355 152.681 135.039 152.649ZM137.317 145.149C138.52 144.231 138.931 143.44 138.14 142.269C136.874 142.807 136.684 143.63 137.317 145.149ZM123.836 144.864C123.963 144.833 124.152 144.833 124.247 144.769C124.944 144.358 125.355 143.82 125.07 142.997C125.007 142.807 124.627 142.554 124.437 142.586C123.52 142.681 123.298 143.377 123.393 144.168C123.456 144.421 123.678 144.643 123.836 144.864ZM127.507 115.244C128.203 114.073 128.108 113.218 127.57 112.269C126.178 113.25 126.463 114.073 127.507 115.244ZM127.823 125.687C127.728 125.434 127.634 125.149 127.539 124.896C127.285 125.149 127.001 125.402 126.747 125.655C127.001 125.908 127.254 126.193 127.507 126.446C127.602 126.193 127.728 125.94 127.823 125.687ZM122.222 121.699C122.064 123.503 122.064 123.503 123.393 123.82C122.982 123.092 122.665 122.554 122.222 121.699ZM137.286 137.997C137.159 138.06 136.969 138.092 136.906 138.187C136.716 138.662 136.558 139.136 136.431 139.611C136.431 139.643 136.716 139.801 136.748 139.769C137.064 139.389 137.412 139.01 137.665 138.598C137.697 138.503 137.412 138.219 137.286 137.997ZM120.418 152.902C119.975 152.871 119.532 152.776 119.184 152.839C119.026 152.871 118.994 153.314 118.899 153.567C119.279 153.662 119.659 153.82 120.007 153.757C120.133 153.757 120.228 153.314 120.418 152.902ZM124.247 113.123C124.089 112.744 123.994 112.49 123.899 112.237C123.583 112.49 123.203 112.712 122.95 113.028C122.887 113.123 123.14 113.471 123.266 113.693C123.583 113.535 123.931 113.345 124.247 113.123ZM124.595 118.693C124.817 118.693 125.007 118.661 125.228 118.661C125.26 118.028 125.292 117.364 125.292 116.731C125.292 116.636 125.07 116.446 125.007 116.478C124.785 116.541 124.437 116.699 124.437 116.826C124.437 117.427 124.532 118.06 124.595 118.693ZM131.146 147.491C130.988 147.333 130.893 147.238 130.83 147.143C130.545 147.396 130.26 147.681 130.007 147.965C129.975 147.997 130.26 148.25 130.387 148.408C130.64 148.092 130.893 147.776 131.146 147.491ZM127.823 154.136C128.14 154.041 128.52 154.01 128.615 153.82C128.709 153.662 128.488 153.314 128.425 153.06C128.172 153.219 127.887 153.314 127.728 153.535C127.634 153.63 127.792 153.947 127.823 154.136ZM126.842 140.655C126.779 140.56 126.716 140.434 126.621 140.339C126.526 140.56 126.399 140.75 126.336 140.972C126.304 141.067 126.463 141.193 126.526 141.288C126.621 141.067 126.747 140.877 126.842 140.655ZM130.102 117.111C130.197 117.079 130.323 117.079 130.323 117.016C130.355 116.889 130.355 116.763 130.355 116.636C130.228 116.668 130.102 116.699 129.975 116.763C130.039 116.889 130.07 117.016 130.102 117.111ZM126.209 121.509C126.368 121.636 126.494 121.794 126.653 121.921C126.716 121.794 126.779 121.699 126.811 121.573C126.811 121.446 126.779 121.32 126.747 121.193C126.558 121.288 126.399 121.383 126.209 121.509ZM133.963 116.952C133.899 116.858 133.836 116.763 133.804 116.668C133.741 116.763 133.615 116.826 133.615 116.921C133.615 117.016 133.71 117.111 133.773 117.237C133.804 117.142 133.899 117.047 133.963 116.952ZM128.615 118.946C128.551 118.82 128.52 118.693 128.456 118.566C128.425 118.788 128.425 119.009 128.393 119.263C128.456 119.136 128.551 119.041 128.615 118.946ZM136.684 113.282C136.621 113.187 136.526 113.06 136.463 113.06C136.368 113.06 136.305 113.187 136.21 113.282C136.336 113.408 136.463 113.503 136.589 113.63C136.589 113.503 136.653 113.408 136.684 113.282ZM134.722 147.554C134.627 147.649 134.406 147.744 134.406 147.807C134.437 148.06 134.564 148.282 134.659 148.535C134.754 148.44 134.944 148.345 134.944 148.282C134.912 148.029 134.786 147.807 134.722 147.554ZM125.26 149.738C125.133 149.516 125.039 149.295 124.912 149.073C124.817 149.168 124.595 149.295 124.595 149.326C124.659 149.548 124.817 149.769 124.944 149.991C125.039 149.896 125.165 149.801 125.26 149.738Z" fill="#070A0B"/>
<path d="M254.217 132.491C256.242 136.098 258.268 139.706 258.648 143.947C259.787 145.181 259.47 146.415 258.521 147.491C257.508 148.599 258.078 149.675 258.268 150.909C257.445 151.637 256.591 152.428 255.704 153.25C254.502 153.061 253.268 153.092 252.192 152.681C248.996 151.447 245.799 151.89 242.54 152.111C237.666 152.459 232.761 152.586 227.856 152.681C226.274 152.713 224.66 152.301 223.046 152.111C222.445 150.719 221.97 149.516 221.432 148.282C221.59 147.902 221.748 147.491 221.875 147.048C222.286 145.782 222.951 144.548 223.046 143.282C223.394 139.01 225.704 135.782 228.299 132.712C229.027 131.826 230.103 131.193 231.052 130.529C232.002 129.864 233.014 129.263 234.249 128.503C233.362 126.383 232.413 124.389 231.749 122.301C229.692 116.003 229.755 109.737 232.983 103.788C233.742 102.396 234.818 101.098 236.021 99.9904C238.521 97.6803 241.211 97.0157 244.565 98.6297C248.964 100.75 252.034 103.63 253.299 108.566C254.692 114.073 254.217 119.105 251.116 123.915C250.261 125.244 249.09 126.446 248.711 128.187C251.211 128.946 253.774 129.548 254.312 132.586C250.546 129.453 249.913 129.231 246.97 130.276C249.027 131.288 250.799 132.206 252.635 132.965C253.015 133.092 253.679 132.649 254.217 132.491ZM237.603 137.902C237.635 137.681 237.698 137.459 237.73 137.238C237.635 137.428 237.54 137.649 237.476 137.839C237.508 137.966 237.603 138.124 237.603 138.25C237.571 138.63 237.255 139.136 237.983 139.136C238.173 139.136 238.331 138.788 238.489 138.567C238.173 138.345 237.888 138.124 237.603 137.902ZM224.976 146.13C226.622 146.605 226.875 145.181 227.508 144.231C227.729 143.504 227.919 142.744 228.204 141.795C227.381 142.048 227.223 142.459 227.286 143.06C227.35 143.472 227.413 143.883 227.476 144.295C225.957 144.042 225.514 145.117 225.103 146.193C224.913 146.51 224.723 146.795 224.565 147.111C224.66 147.174 224.786 147.238 224.881 147.301C225.008 147.016 225.135 146.7 225.229 146.415C225.261 146.352 225.071 146.257 224.976 146.13ZM245.451 132.776C244.818 133.82 244.85 134.643 246.401 135.181C246.78 134.168 248.363 133.852 247.571 132.016C246.812 132.333 246.084 132.617 245.325 132.934C245.356 131.13 244.28 131.162 242.73 131.605C242.603 132.807 241.337 133.757 241.337 135.339C242.888 134.389 244.185 133.567 245.451 132.776ZM252.034 142.617C253.236 141.605 254.439 140.56 255.704 139.453C255.198 138.25 254.787 137.143 254.249 136.13C254.091 135.845 253.553 135.75 253.236 135.592C252.128 136.415 251.622 137.301 252.034 138.503C252.698 138.693 253.204 138.82 253.869 139.01C253.204 140.371 252.666 141.51 252.097 142.681C251.97 142.902 251.875 143.124 251.749 143.345C251.875 143.124 251.939 142.871 252.034 142.617ZM251.401 113.883C251.749 110.117 250.23 106.826 248.774 103.598C247.508 100.782 243.711 98.9145 240.989 99.9272C238.173 100.971 235.673 102.712 234.787 105.813C232.761 112.807 234.027 119.294 238.078 125.275C238.521 125.94 239.407 126.541 240.198 126.731C244.185 127.744 249.344 124.801 250.325 120.845C250.894 118.598 251.053 116.225 251.401 113.883ZM241.59 143.63C240.863 144.833 240.198 145.719 239.787 146.763C239.628 147.174 239.976 147.839 240.23 148.314C240.483 148.788 241.527 148.757 241.717 148.345C242.318 147.143 242.318 146.32 241.59 143.63ZM243.869 144.674C247.445 143.092 246.369 140.56 246.369 138.377C246.084 138.409 245.768 138.345 245.546 138.44C245.293 138.567 245.008 138.788 244.945 139.041C244.597 140.687 244.312 142.396 243.869 144.674ZM228.457 138.377C229.502 136.636 232.033 135.972 232.73 133.25C230.071 134.263 229.438 136.447 228.457 138.377ZM251.622 134.453C250.894 133.408 250.04 133.155 249.154 134.295C248.806 134.738 248.331 135.307 248.932 135.782C249.882 136.573 250.546 135.624 251.211 135.149C251.464 135.022 251.717 134.548 251.622 134.453ZM231.875 138.693C232.888 137.491 232.888 137.491 233.141 135.972C230.831 137.364 230.831 137.364 231.875 138.693ZM237.255 145.244C237.002 145.149 236.717 145.054 236.464 144.959C236.274 145.434 236.021 145.909 235.862 146.415C235.799 146.605 235.957 146.858 235.989 147.08C236.211 146.921 236.527 146.826 236.654 146.636C236.907 146.193 237.033 145.719 237.255 145.244ZM253.015 148.314C252.635 147.902 252.445 147.586 252.287 147.617C251.496 147.744 251.084 148.25 251.147 149.042C251.147 149.231 251.59 149.548 251.622 149.516C252.097 149.137 252.572 148.725 253.015 148.314ZM231.116 149.326C231.021 149.073 230.989 148.693 230.799 148.599C230.609 148.504 230.293 148.63 230.008 148.693C230.135 149.01 230.23 149.358 230.356 149.675C230.609 149.548 230.862 149.421 231.116 149.326ZM236.938 132.965C236.78 132.839 236.654 132.712 236.495 132.586C236.147 132.934 235.768 133.314 235.419 133.693C235.356 133.757 235.388 134.073 235.419 134.073C235.641 134.105 235.957 134.2 236.084 134.105C236.4 133.757 236.654 133.345 236.938 132.965ZM249.217 141.763C249.059 141.668 248.901 141.605 248.742 141.51C248.458 141.921 248.141 142.333 247.888 142.744C247.825 142.839 247.92 143.124 247.951 143.124C248.173 143.155 248.552 143.219 248.616 143.092C248.837 142.681 248.996 142.206 249.217 141.763ZM227.128 147.048C228.331 147.206 229.217 146.921 228.552 145.402C227.983 146.067 227.54 146.542 227.128 147.048ZM245.483 146.288C245.103 146.731 244.945 146.826 244.913 146.921C244.787 147.269 244.723 147.617 244.628 147.997C244.945 147.807 245.325 147.681 245.546 147.428C245.673 147.301 245.515 146.921 245.483 146.288ZM233.457 142.554C232.983 142.333 232.666 142.079 232.571 142.143C232.255 142.364 232.002 142.681 231.812 143.029C231.78 143.092 232.097 143.377 232.223 143.567C232.603 143.25 232.983 142.934 233.457 142.554ZM242.508 138.029C242.192 137.871 241.812 137.586 241.749 137.649C241.464 137.934 241.274 138.282 241.052 138.63C241.274 138.757 241.622 139.01 241.717 138.947C242.002 138.725 242.223 138.377 242.508 138.029ZM248.711 146.415C248.711 146.542 248.647 146.7 248.711 146.826C248.742 146.89 248.932 146.858 249.027 146.89C249.027 146.763 249.059 146.605 249.027 146.478C248.996 146.415 248.806 146.447 248.711 146.415ZM242.382 129.041C242.287 128.946 242.192 128.757 242.128 128.757C241.875 128.788 241.654 128.883 241.401 128.946C241.495 129.041 241.59 129.231 241.654 129.231C241.907 129.231 242.128 129.136 242.382 129.041ZM255.578 142.807C255.546 142.681 255.515 142.554 255.451 142.428C255.325 142.491 255.103 142.586 255.135 142.617C255.166 142.807 255.261 142.966 255.356 143.155C255.42 143.029 255.515 142.902 255.578 142.807ZM234.597 123.757C234.66 123.503 234.723 123.345 234.755 123.187C234.66 123.219 234.47 123.25 234.47 123.282C234.47 123.377 234.533 123.503 234.597 123.757ZM254.027 151.099C253.932 151.13 253.806 151.162 253.711 151.194C253.837 151.257 253.996 151.288 254.122 151.352C254.091 151.257 254.059 151.194 254.027 151.099ZM233.046 146.636C232.951 146.636 232.793 146.605 232.73 146.668C232.666 146.763 232.666 146.89 232.635 147.016C232.793 146.985 232.983 146.985 233.173 146.953C233.109 146.858 233.078 146.763 233.046 146.636Z" fill="#070A0B"/>
<path d="M78.2026 218.536C80.2279 222.143 82.2533 225.751 82.633 229.992C83.7723 231.226 83.4558 232.46 82.5064 233.536C81.4938 234.644 82.0634 235.72 82.2533 236.954C81.4305 237.682 80.576 238.473 79.69 239.296C78.5191 239.106 77.2532 239.137 76.1773 238.726C72.981 237.492 69.7848 237.935 66.5253 238.156C61.6518 238.504 56.7467 238.631 51.8416 238.726C50.2593 238.758 48.6453 238.346 47.0314 238.156C46.4301 236.764 45.9554 235.561 45.4174 234.327C45.5757 233.916 45.7339 233.536 45.8605 233.093C46.2719 231.827 46.9365 230.593 47.0314 229.327C47.3795 225.055 49.6897 221.827 52.2846 218.757C53.0125 217.871 54.0884 217.238 55.0378 216.574C55.9872 215.909 56.9999 215.308 58.234 214.548C57.348 212.428 56.3986 210.434 55.734 208.346C53.677 202.048 53.7403 195.782 56.9682 189.833C57.7277 188.441 58.8037 187.143 60.0062 186.035C62.5062 183.725 65.1961 183.061 68.5506 184.675C72.9494 186.795 76.019 189.675 77.2849 194.612C78.6773 200.118 78.2026 205.15 75.1013 209.96C74.2469 211.289 73.076 212.491 72.6962 214.232C75.1962 214.991 77.7596 215.593 78.2976 218.631C74.5317 215.498 73.8988 215.276 70.9557 216.321C73.0127 217.333 74.7848 218.251 76.6203 219.01C77.0317 219.105 77.6646 218.694 78.2026 218.536ZM61.5885 223.916C61.6201 223.694 61.6834 223.473 61.7151 223.251C61.6202 223.441 61.5252 223.662 61.4619 223.852C61.4936 223.979 61.5885 224.137 61.5885 224.264C61.5569 224.643 61.2404 225.15 61.9683 225.15C62.1581 225.15 62.3164 224.802 62.4746 224.58C62.1898 224.359 61.8733 224.137 61.5885 223.916ZM48.9618 232.175C50.6074 232.65 50.8606 231.226 51.4935 230.276C51.715 229.549 51.9049 228.789 52.1897 227.84C51.3669 228.093 51.2087 228.504 51.272 229.106C51.3352 229.517 51.3985 229.928 51.4618 230.34C49.9428 230.087 49.4998 231.162 49.0884 232.238C48.8985 232.555 48.7086 232.84 48.5504 233.156C48.6453 233.219 48.7719 233.283 48.8669 233.346C48.9934 233.061 49.12 232.745 49.215 232.46C49.2466 232.397 49.0567 232.27 48.9618 232.175ZM69.4683 218.789C68.8354 219.833 68.8671 220.656 70.4177 221.194C70.7975 220.181 72.3798 219.865 71.5886 218.029C70.8291 218.346 70.1013 218.631 69.3418 218.947C69.3734 217.143 68.2974 217.175 66.7468 217.618C66.6202 218.821 65.3544 219.77 65.3544 221.352C66.8734 220.403 68.1709 219.612 69.4683 218.789ZM76.019 228.631C77.2216 227.618 78.4241 226.574 79.69 225.466C79.1836 224.264 78.7722 223.156 78.2343 222.143C78.076 221.859 77.538 221.764 77.2216 221.605C76.114 222.428 75.6077 223.314 76.019 224.517C76.6836 224.707 77.1899 224.833 77.8545 225.023C77.1899 226.384 76.652 227.523 76.0823 228.694C75.9557 228.916 75.8608 229.137 75.7342 229.359C75.8608 229.137 75.9558 228.884 76.019 228.631ZM75.3861 199.928C75.7342 196.162 74.2152 192.871 72.7595 189.643C71.4937 186.827 67.6962 184.959 64.9746 185.972C62.1581 187.016 59.6581 188.757 58.772 191.858C56.7467 198.852 58.0125 205.339 62.0632 211.321C62.5062 211.985 63.3923 212.586 64.1835 212.776C68.1708 213.789 73.3291 210.846 74.3102 206.89C74.8798 204.612 75.038 202.238 75.3861 199.928ZM65.5759 229.644C64.848 230.846 64.1835 231.732 63.7721 232.776C63.6138 233.188 63.9619 233.852 64.2151 234.327C64.4683 234.802 65.5126 234.77 65.7025 234.359C66.3038 233.156 66.3037 232.333 65.5759 229.644ZM67.8861 230.688C71.462 229.106 70.3861 226.574 70.3861 224.39C70.1013 224.422 69.7848 224.359 69.5633 224.454C69.3101 224.58 69.0253 224.802 68.962 225.055C68.5823 226.732 68.2974 228.409 67.8861 230.688ZM52.4428 224.39C53.4872 222.65 56.0188 221.985 56.715 219.264C54.0884 220.276 53.4239 222.46 52.4428 224.39ZM75.6393 220.466C74.9114 219.422 74.057 219.169 73.1709 220.308C72.8228 220.751 72.3481 221.321 72.9494 221.795C73.8988 222.586 74.5633 221.637 75.2279 221.162C75.4494 221.067 75.7026 220.593 75.6393 220.466ZM55.8923 224.707C56.9049 223.504 56.9049 223.504 57.1581 221.985C54.8163 223.409 54.8163 223.409 55.8923 224.707ZM61.2404 231.257C60.9872 231.162 60.7024 231.068 60.4492 230.973C60.2594 231.447 60.0062 231.922 59.848 232.428C59.7847 232.618 59.9429 232.871 59.9746 233.093C60.1961 232.935 60.5126 232.84 60.6391 232.65C60.8923 232.238 61.0505 231.732 61.2404 231.257ZM77.0317 234.327C76.652 233.916 76.4621 233.599 76.3039 233.631C75.5127 233.757 75.1013 234.264 75.1646 235.055C75.1646 235.245 75.6076 235.561 75.6393 235.53C76.114 235.15 76.557 234.738 77.0317 234.327ZM55.1011 235.34C55.0062 235.087 54.9745 234.707 54.7847 234.612C54.5948 234.517 54.2783 234.644 53.9935 234.707C54.1201 235.023 54.215 235.371 54.3416 235.688C54.5948 235.561 54.8479 235.466 55.1011 235.34ZM60.9239 218.979C60.7657 218.852 60.6391 218.726 60.4809 218.599C60.1328 218.947 59.7531 219.327 59.405 219.707C59.3417 219.77 59.3733 220.086 59.405 220.086C59.6265 220.118 59.9429 220.213 60.0695 220.118C60.4176 219.802 60.6391 219.359 60.9239 218.979ZM73.2026 227.776C73.0443 227.682 72.8861 227.618 72.7279 227.523C72.4431 227.935 72.1266 228.346 71.8734 228.757C71.8101 228.852 71.9051 229.137 71.9367 229.137C72.1582 229.169 72.538 229.2 72.6013 229.106C72.8545 228.726 73.0127 228.251 73.2026 227.776ZM51.1137 233.093C52.3163 233.251 53.2023 232.966 52.5378 231.447C51.9681 232.08 51.5568 232.587 51.1137 233.093ZM69.4683 232.302C69.0886 232.745 68.9304 232.84 68.8987 232.935C68.7721 233.283 68.7088 233.631 68.6139 234.011C68.9304 233.821 69.3101 233.694 69.5316 233.441C69.6582 233.314 69.5316 232.935 69.4683 232.302ZM57.4745 228.568C56.9999 228.346 56.6834 228.093 56.5885 228.156C56.272 228.378 56.0188 228.694 55.8289 229.042C55.7973 229.106 56.1138 229.39 56.2404 229.58C56.6201 229.264 56.9999 228.947 57.4745 228.568ZM66.4936 224.074C66.1772 223.916 65.7974 223.631 65.7341 223.694C65.4493 223.979 65.2594 224.327 65.0379 224.675C65.2594 224.802 65.6075 225.055 65.7025 224.992C66.0189 224.738 66.2405 224.39 66.4936 224.074ZM72.6962 232.46C72.6962 232.587 72.6329 232.745 72.6962 232.871C72.7279 232.935 72.9177 232.903 73.0127 232.935C73.0127 232.808 73.0443 232.65 73.0127 232.523C73.0127 232.46 72.8228 232.46 72.6962 232.46ZM66.367 215.086C66.2721 214.991 66.1772 214.802 66.1139 214.802C65.8607 214.833 65.6392 214.928 65.386 214.991C65.481 215.086 65.5759 215.276 65.6392 215.276C65.8924 215.245 66.1455 215.15 66.367 215.086ZM79.595 228.821C79.5634 228.694 79.5317 228.568 79.4684 228.441C79.3419 228.504 79.1203 228.599 79.152 228.631C79.1836 228.821 79.2786 228.979 79.3735 229.169C79.4368 229.042 79.5001 228.947 79.595 228.821ZM58.5821 209.77C58.6454 209.517 58.7087 209.358 58.7404 209.2C58.6455 209.232 58.4872 209.264 58.4556 209.295C58.4872 209.422 58.5189 209.517 58.5821 209.77ZM78.0127 237.112C77.9178 237.144 77.7912 237.175 77.6963 237.207C77.8229 237.27 77.9811 237.302 78.1077 237.365C78.076 237.302 78.0444 237.207 78.0127 237.112ZM57.0315 232.682C56.9366 232.682 56.7783 232.65 56.715 232.713C56.6517 232.808 56.6517 232.935 56.6201 233.061C56.81 233.03 56.9682 233.03 57.1581 232.998C57.0948 232.903 57.0632 232.776 57.0315 232.682Z" fill="#070A0B"/>
<path d="M79.8165 34.8629C81.8419 38.4706 83.8672 42.0782 84.247 46.3188C85.3862 47.553 85.0698 48.7872 84.1204 49.8631C83.1077 50.9707 83.6773 52.0467 83.8672 53.2809C83.0444 54.0087 82.19 54.7999 81.3039 55.6227C80.133 55.4328 78.8672 55.4644 77.7912 55.053C74.595 53.8189 71.3987 54.2619 68.1392 54.4834C63.2657 54.8315 58.3606 54.9581 53.4555 55.053C51.8732 55.0847 50.2593 54.6733 48.6453 54.4834C48.0441 53.091 47.5694 51.8885 47.0314 50.6543C47.1896 50.2745 47.3478 49.8631 47.4744 49.4201C47.8858 48.1542 48.5504 46.92 48.6453 45.6542C48.9934 41.382 51.3036 38.1541 53.8985 35.0845C54.6264 34.1984 55.7024 33.5655 56.6517 32.9009C57.6011 32.2363 58.6138 31.6351 59.848 30.8756C58.9619 28.7553 58.0125 26.7616 57.348 24.673C55.291 18.3755 55.3543 12.1096 58.5822 6.16013C59.3417 4.76771 60.4176 3.47024 61.6202 2.36263C64.1202 0.0524825 66.8101 -0.612106 70.1645 1.00183C74.5633 3.12211 77.633 6.00189 78.8988 10.9386C80.2912 16.445 79.8166 21.4768 76.7153 26.2869C75.8608 27.6161 74.6899 28.8186 74.3102 30.5591C76.8102 31.3186 79.3735 31.9199 79.9115 34.9579C76.1456 31.825 75.5127 31.6034 72.5696 32.6477C74.6266 33.6604 76.3988 34.5782 78.2343 35.3377C78.6457 35.4642 79.2786 35.0212 79.8165 34.8629ZM63.2024 40.2744C63.2341 40.0529 63.2974 39.8313 63.329 39.6098C63.2341 39.7997 63.1392 40.0212 63.0759 40.2111C63.1075 40.3377 63.2024 40.4959 63.2024 40.6225C63.1708 41.0023 62.8544 41.5086 63.5822 41.5086C63.7721 41.5086 63.9303 41.1605 64.0885 40.939C63.8037 40.7175 63.4873 40.4959 63.2024 40.2744ZM50.5757 48.5024C52.2213 48.9771 52.4745 47.553 53.1074 46.6036C53.3289 45.8757 53.5188 45.1162 53.8036 44.1668C52.9808 44.42 52.8226 44.8314 52.8859 45.4327C52.9492 45.8441 53.0125 46.2555 53.0758 46.6669C51.5568 46.4137 51.1137 47.4897 50.7023 48.5656C50.5125 48.8821 50.3226 49.1669 50.1643 49.4834C50.2593 49.5467 50.3859 49.61 50.4808 49.6732C50.6074 49.3884 50.734 49.072 50.8289 48.7872C50.8606 48.7239 50.6707 48.5973 50.5757 48.5024ZM71.0823 35.1478C70.4494 36.1921 70.481 37.0149 72.0317 37.5529C72.4114 36.5402 73.9937 36.2237 73.2026 34.3883C72.4431 34.7047 71.7152 34.9896 70.9557 35.306C70.9873 33.5022 69.9114 33.5338 68.3607 33.9769C68.2341 35.1794 66.9683 36.1288 66.9683 37.7111C68.4873 36.7617 69.7848 35.9389 71.0823 35.1478ZM77.633 44.9897C78.8355 43.977 80.0381 42.9327 81.3039 41.8251C80.7976 40.6225 80.3862 39.5149 79.8482 38.5022C79.69 38.2174 79.152 38.1225 78.8355 37.9643C77.7279 38.7871 77.2216 39.6731 77.633 40.8757C78.2975 41.0656 78.8039 41.1922 79.4684 41.382C78.8039 42.7428 78.2659 43.882 77.6963 45.0529C77.5697 45.2744 77.4748 45.496 77.3482 45.7175C77.4748 45.496 77.538 45.2428 77.633 44.9897ZM77.0001 16.2552C77.3482 12.4893 75.8292 9.19815 74.3734 5.97026C73.1076 3.15378 69.3101 1.28666 66.5886 2.29933C63.7721 3.34364 61.2721 5.08417 60.386 8.18547C58.3606 15.1792 59.6265 21.6666 63.6771 27.6477C64.1202 28.3122 65.0063 28.9135 65.7974 29.1034C69.7848 30.1161 74.9431 27.173 75.9241 23.2173C76.4937 20.9704 76.652 18.597 77.0001 16.2552ZM67.1898 46.0023C66.462 47.2049 65.7974 48.091 65.386 49.1353C65.2278 49.5467 65.5759 50.2112 65.8291 50.6859C66.0822 51.1606 67.1266 51.129 67.3164 50.7176C67.9177 49.515 67.9177 48.6606 67.1898 46.0023ZM69.5 47.0466C73.076 45.4643 72 42.9326 72 40.7491C71.7152 40.7807 71.3988 40.7174 71.1772 40.8124C70.9241 40.939 70.6392 41.1605 70.576 41.4137C70.1962 43.0593 69.9114 44.7681 69.5 47.0466ZM54.0568 40.7491C55.1011 39.0086 57.6328 38.344 58.329 35.6225C55.7024 36.6351 55.0378 38.8187 54.0568 40.7491ZM77.2532 36.825C76.5254 35.7807 75.6709 35.5275 74.7849 36.6668C74.4368 37.1098 73.9621 37.6795 74.5633 38.1541C75.5127 38.9453 76.1773 37.9959 76.8418 37.5212C77.0633 37.3946 77.3165 36.92 77.2532 36.825ZM57.5062 41.0656C58.5188 39.863 58.5189 39.863 58.772 38.344C56.4302 39.7364 56.4302 39.7364 57.5062 41.0656ZM62.8543 47.6163C62.6012 47.5213 62.3164 47.4264 62.0632 47.3314C61.8733 47.8061 61.6201 48.2808 61.4619 48.7872C61.3986 48.977 61.5569 49.2302 61.5885 49.4517C61.81 49.2935 62.1265 49.1985 62.2531 49.0087C62.5062 48.5656 62.6645 48.091 62.8543 47.6163ZM78.6456 50.6543C78.2659 50.2429 78.076 49.9264 77.9178 49.9581C77.1267 50.0846 76.7153 50.591 76.7785 51.3821C76.7785 51.572 77.2216 51.8885 77.2532 51.8568C77.7279 51.4771 78.171 51.0657 78.6456 50.6543ZM56.715 51.6986C56.6201 51.4454 56.5885 51.0657 56.3986 50.9707C56.2087 50.8758 55.8922 51.0024 55.6074 51.0657C55.734 51.3821 55.829 51.7302 55.9555 52.0467C56.2087 51.9201 56.4619 51.7935 56.715 51.6986ZM62.5379 35.306C62.3797 35.1794 62.2531 35.0528 62.0948 34.9262C61.7467 35.2744 61.367 35.6541 61.0189 36.0339C60.9556 36.0972 60.9872 36.4136 61.0189 36.4136C61.2404 36.4453 61.5569 36.5402 61.6835 36.4452C62.0316 36.1288 62.2531 35.7174 62.5379 35.306ZM74.8165 44.1352C74.6583 44.0403 74.5001 43.977 74.3418 43.882C74.057 44.2934 73.7405 44.7048 73.4874 45.1162C73.4241 45.2112 73.519 45.496 73.5507 45.496C73.7722 45.5276 74.1519 45.5909 74.2152 45.4643C74.4684 45.0529 74.6266 44.5783 74.8165 44.1352ZM52.7277 49.4201C53.9302 49.5783 54.8163 49.2935 54.1517 47.7745C53.5821 48.4074 53.1707 48.9137 52.7277 49.4201ZM71.0823 48.6606C70.7025 49.1036 70.5443 49.1986 70.5126 49.2935C70.3861 49.6416 70.3228 49.9897 70.2278 50.3695C70.5443 50.1796 70.9241 50.053 71.1456 49.7998C71.2722 49.6416 71.1456 49.2935 71.0823 48.6606ZM59.0885 44.8947C58.6138 44.6732 58.2973 44.42 58.2024 44.4833C57.8859 44.7048 57.6328 45.0213 57.4429 45.3694C57.4113 45.4327 57.7277 45.7175 57.8543 45.9074C58.234 45.6226 58.6138 45.3061 59.0885 44.8947ZM68.1076 40.401C67.7911 40.2427 67.4113 39.9579 67.3481 40.0212C67.0632 40.3061 66.8734 40.6541 66.6519 41.0023C66.8734 41.1288 67.2215 41.382 67.3164 41.3187C67.6329 41.0656 67.8544 40.7174 68.1076 40.401ZM74.3102 48.7872C74.3102 48.9138 74.2469 49.072 74.3102 49.1986C74.3418 49.2619 74.5317 49.2302 74.6266 49.2618C74.6266 49.1353 74.6583 48.9771 74.6266 48.8505C74.595 48.7872 74.4368 48.8188 74.3102 48.7872ZM67.981 31.4135C67.8861 31.3186 67.7911 31.1287 67.7278 31.1287C67.4746 31.1604 67.2531 31.2553 66.9999 31.3186C67.0949 31.4136 67.1898 31.6034 67.2531 31.6034C67.5063 31.6034 67.7278 31.4768 67.981 31.4135ZM81.209 45.1795C81.1773 45.053 81.1457 44.9264 81.0824 44.7998C80.9558 44.8631 80.7343 44.958 80.7659 44.9897C80.7976 45.1795 80.8925 45.3378 80.9875 45.5276C81.0507 45.4011 81.114 45.2745 81.209 45.1795ZM60.1961 26.1287C60.2594 25.8755 60.3227 25.7173 60.3543 25.5591C60.2594 25.5907 60.1012 25.6224 60.0695 25.654C60.1012 25.749 60.1328 25.8755 60.1961 26.1287ZM79.6267 53.4707C79.5317 53.5024 79.4052 53.534 79.3102 53.5657C79.4368 53.629 79.595 53.6606 79.7216 53.7239C79.69 53.629 79.6583 53.5657 79.6267 53.4707ZM58.6454 49.0087C58.5505 49.0087 58.3923 48.977 58.329 49.0403C58.2657 49.1353 58.2657 49.2619 58.234 49.3884C58.4239 49.3568 58.5821 49.3568 58.772 49.3251C58.7087 49.2302 58.6771 49.1352 58.6454 49.0087Z" fill="#070A0B"/>
<path d="M176.083 130.719C176.653 136.605 174.501 141.89 171.874 146.858C168.552 153.156 164.691 159.232 159.216 163.978C155.577 167.143 151.621 169.865 147.317 172.017C145.862 172.744 144.248 173.187 142.665 173.504C139.121 174.168 135.513 174.77 131.937 175.244C128.899 175.656 125.861 175.118 122.823 174.738C116.019 173.852 109.564 171.858 103.836 167.903C99.3737 164.801 95.4496 161.162 92.1901 156.795C89.247 152.902 87.3799 148.504 86.304 143.788C85.7027 141.162 85.2597 138.503 85.0698 135.845C84.8483 132.333 85.3546 128.852 86.4938 125.497C86.7154 124.832 87.0951 124.2 87.2533 123.535C88.6141 117.744 91.4939 112.617 94.4686 107.585C98.0762 101.478 102.823 96.3195 108.551 92.0789C109.121 91.6675 109.754 91.3511 110.418 91.0979C112.697 90.2118 115.038 89.4207 117.317 88.503C119.849 87.4903 122.412 86.7624 125.165 86.889C125.292 86.889 125.418 86.9523 125.513 86.9207C130.134 85.465 134.532 87.2371 138.963 88.0283C139.754 88.1548 140.608 88.3447 141.336 88.7245C146.779 91.446 152.539 93.503 157.602 96.9524C157.982 97.2056 158.362 97.522 158.773 97.7119C164.09 100.212 167.444 104.769 170.704 109.358C173.457 113.25 174.754 117.775 175.482 122.459C175.704 123.851 175.925 125.244 176.02 126.636C176.178 127.902 176.083 129.295 176.083 130.719ZM110.26 94.8638L110.323 94.9587C110.481 94.5473 110.545 93.9777 110.861 93.7878C113.962 91.7941 117.38 90.3701 120.956 90.022C125.007 89.6422 129.153 89.5473 133.235 90.3701C135.988 90.908 138.773 91.3194 141.526 91.7308C142.191 91.8258 142.918 91.7308 144.184 91.7308C143.235 91.003 142.76 90.5283 142.191 90.2118C140.513 89.2625 138.615 89.1675 136.842 88.6612C133.298 87.6485 129.817 87.3321 126.115 87.6169C122.792 87.9017 119.659 88.5346 116.589 89.8321C115.387 90.3384 114.247 90.908 113.045 91.3511C110.133 92.427 107.633 94.1043 105.292 96.098C102.348 98.598 100.829 102.364 97.6016 104.642C96.6205 105.339 96.0826 106.699 95.4496 107.807C94.342 109.737 93.2344 111.668 92.285 113.661C91.2724 115.75 90.3546 117.902 89.5002 120.086C88.8673 121.731 88.3926 123.408 87.8546 125.086C86.4306 129.611 85.6078 134.168 86.747 138.915C87.0635 140.276 87.2533 141.668 87.5698 143.029C88.5192 147.428 90.1648 151.542 92.7914 155.213C96.6838 160.624 101.526 165.023 107.222 168.377C112.222 171.352 117.823 172.744 123.551 173.441C126.115 173.757 128.709 174.105 131.241 173.915C134.627 173.694 137.95 173.061 141.305 172.523C143.267 172.206 145.229 171.7 146.938 170.656C149.533 169.073 152.096 167.459 154.691 165.877C156.621 164.706 158.298 163.251 159.786 161.573C161.558 159.548 163.267 157.491 164.944 155.371C165.387 154.833 165.577 154.137 165.893 153.504C167.507 149.991 169.153 146.51 170.735 142.997C173.172 137.586 174.786 132.016 173.362 126.003C173.267 125.56 173.267 125.086 173.204 124.611C172.697 119.959 171.748 115.465 169.786 111.098C167.855 106.858 164.849 103.661 161.463 100.845C156.431 96.6676 150.514 94.041 144.058 92.9334C136.779 91.6992 129.501 90.4334 122.064 90.8764C120.292 90.9714 118.551 91.1296 116.906 91.7941C114.69 92.7435 112.507 93.8511 110.26 94.8638ZM174.501 124.484L174.375 124.706L174.533 124.769L174.501 124.484Z" fill="#070A0B"/>
<path d="M193.963 27.8376C192.033 25.0844 190.356 22.8376 188.805 20.4641C187.666 18.692 187.318 16.6666 187.413 14.5463C187.603 11.1919 188.552 7.99565 189.944 4.98929C191.495 1.63482 195.577 -0.453816 199.311 0.0841642C203.615 0.717082 207.065 2.71077 208.932 6.85639C209.501 8.15387 210.103 9.45134 210.704 10.7488C212.888 15.6856 211.21 19.9894 208.426 24.0401C207.919 24.7679 207.001 25.2426 206.242 25.7806C205.609 26.2237 204.913 26.6034 204.248 27.0465C204.122 27.1098 204.058 27.2996 203.837 27.6477C204.786 28.3756 205.704 29.2301 206.748 29.863C209.28 31.4136 210.894 33.6605 212.16 36.2871C213.521 39.1352 214.628 42.0783 215.134 45.2112C215.546 47.7112 216.052 50.1163 217.255 52.4265C218.362 54.5784 217.445 55.9392 214.976 56.3822C210.894 57.0784 206.843 57.3 202.761 56.3189C200.767 55.8443 198.774 55.8442 196.685 56.129C193.109 56.6354 189.47 56.8252 185.862 57.0151C183.267 57.1417 181.97 55.8126 181.526 53.0277C180.957 49.3252 182.001 45.8125 182.697 42.2682C182.951 41.034 183.394 39.8314 183.71 38.6289C184.216 36.7934 184.818 35.0212 186.4 33.7554C186.748 33.4706 187.033 33.0592 187.286 32.6478C188.868 30.2743 190.767 28.2174 193.963 27.8376ZM212.729 52.5847C212.793 51.6037 213.141 50.591 212.919 49.7682C211.622 45.4011 210.198 41.0972 208.837 36.7618C207.856 33.6921 205.514 32.2364 202.571 31.7301C199.248 31.1921 196.02 31.3503 193.109 33.4706C190.292 35.5276 187.634 37.7112 185.989 40.8441C185.64 41.5403 185.292 42.2365 185.102 42.996C184.565 45.2745 184.153 47.6163 183.647 49.8948C183.077 52.5847 184.121 54.1354 186.97 54.2936C189.944 54.4835 192.951 54.4202 195.925 54.4202C197.508 54.4202 199.058 54.2303 200.641 54.2936C204.596 54.4835 208.457 54.1986 212.729 52.5847ZM191.748 5.40065C188.71 11.445 188.678 11.8565 190.767 18.4388C191.052 19.3249 191.242 20.3059 191.716 21.097C194.343 25.6541 197.065 26.8566 201.4 25.7173C206.4 24.3882 210.039 20.0527 209.628 14.9261C209.185 9.5463 207.128 4.83103 201.812 2.23606C200.039 1.38162 198.52 1.44492 196.906 2.3943C195.451 3.28039 193.963 4.13482 191.748 5.40065Z" fill="#070A0B"/>
<path d="M186.843 210.814C184.913 208.061 183.235 205.814 181.685 203.441C180.545 201.668 180.197 199.643 180.292 197.523C180.482 194.168 181.432 190.972 182.824 187.966C184.375 184.611 188.457 182.523 192.191 183.061C196.495 183.694 199.944 185.687 201.812 189.833C202.381 191.13 202.982 192.428 203.584 193.725C205.767 198.662 204.09 202.966 201.305 207.017C200.799 207.744 199.881 208.219 199.09 208.757C198.457 209.2 197.761 209.58 197.096 210.023C196.97 210.086 196.906 210.276 196.685 210.624C197.634 211.352 198.552 212.207 199.596 212.839C202.128 214.39 203.742 216.637 205.008 219.264C206.369 222.112 207.476 225.055 207.982 228.188C208.394 230.688 208.9 233.093 210.103 235.403C211.21 237.555 210.293 238.916 207.824 239.359C203.742 240.055 199.691 240.276 195.609 239.295C193.615 238.821 191.622 238.821 189.533 239.106C185.957 239.612 182.318 239.802 178.71 239.992C176.115 240.118 174.818 238.789 174.406 236.004C173.837 232.302 174.881 228.789 175.577 225.245C175.83 224.01 176.273 222.808 176.59 221.605C177.096 219.77 177.697 217.998 179.28 216.732C179.628 216.447 179.913 216.036 180.166 215.624C181.78 213.219 183.678 211.194 186.843 210.814ZM205.641 235.53C205.704 234.548 206.052 233.536 205.831 232.713C204.533 228.346 203.109 224.042 201.748 219.707C200.767 216.637 198.425 215.181 195.482 214.675C192.16 214.137 188.932 214.295 186.02 216.415C183.204 218.472 180.545 220.656 178.9 223.789C178.552 224.485 178.204 225.181 178.014 225.941C177.476 228.219 177.064 230.561 176.558 232.84C175.988 235.529 177.033 237.08 179.881 237.238C182.856 237.428 185.862 237.365 188.837 237.365C190.419 237.365 191.97 237.175 193.552 237.238C197.476 237.46 201.368 237.175 205.641 235.53ZM184.659 188.377C181.621 194.422 181.59 194.833 183.678 201.415C183.963 202.301 184.153 203.282 184.628 204.073C187.254 208.63 189.976 209.833 194.311 208.694C199.312 207.365 202.951 203.029 202.539 197.903C202.096 192.523 200.039 187.808 194.723 185.213C192.951 184.358 191.432 184.421 189.818 185.371C188.362 186.257 186.875 187.08 184.659 188.377Z" fill="#070A0B"/>
<path d="M12.569 132.396C10.6386 129.643 8.96137 127.396 7.41072 125.022C6.27147 123.25 5.92335 121.225 6.01829 119.105C6.20817 115.75 7.15755 112.554 8.54997 109.548C10.1006 106.193 14.1829 104.104 17.9172 104.642C22.221 105.275 25.6704 107.269 27.5375 111.415C28.1071 112.712 28.7084 114.01 29.3097 115.307C31.4932 120.244 29.816 124.548 27.0312 128.598C26.5248 129.326 25.6071 129.801 24.8476 130.339C24.2147 130.782 23.5185 131.162 22.8539 131.605C22.7273 131.668 22.664 131.858 22.4425 132.206C23.3919 132.934 24.3096 133.788 25.3539 134.421C27.8856 135.972 29.4996 138.219 30.7654 140.845C32.1262 143.693 33.2338 146.637 33.7401 149.769C34.1515 152.27 34.6578 154.675 35.8604 156.985C36.968 159.137 36.0503 160.497 33.5819 160.94C29.4995 161.637 25.4489 161.858 21.3666 160.877C19.3729 160.402 17.3792 160.402 15.2905 160.687C11.7146 161.194 8.07528 161.384 4.46765 161.573C1.87269 161.7 0.575202 160.371 0.163805 157.586C-0.405822 153.883 0.638478 150.371 1.33469 146.826C1.58785 145.592 2.03092 144.39 2.34738 143.187C2.85371 141.352 3.45498 139.579 5.03728 138.314C5.38538 138.029 5.67019 137.617 5.92336 137.206C7.47401 134.833 9.37276 132.776 12.569 132.396ZM31.3667 157.143C31.43 156.162 31.7781 155.149 31.5565 154.326C30.2591 149.959 28.835 145.656 27.4742 141.32C26.4932 138.25 24.1514 136.795 21.2083 136.288C17.8855 135.75 14.6576 135.909 11.7462 138.029C8.92971 140.086 6.27145 142.269 4.62586 145.402C4.27776 146.099 3.92966 146.795 3.73978 147.554C3.2018 149.833 2.79041 152.175 2.28407 154.453C1.71445 157.143 2.75877 158.694 5.6069 158.852C8.58162 159.042 11.588 158.978 14.5627 158.978C16.145 158.978 17.6956 158.789 19.2779 158.852C23.202 159.042 27.0945 158.757 31.3667 157.143ZM10.3854 109.959C7.34741 116.003 7.31577 116.415 9.4044 122.997C9.68922 123.883 9.8791 124.864 10.3538 125.655C12.9804 130.212 15.7019 131.415 20.0374 130.276C25.0375 128.946 28.6768 124.611 28.2654 119.484C27.8223 114.105 25.7653 109.389 20.4488 106.794C18.6766 105.94 17.1577 106.003 15.5437 106.953C14.0564 107.839 12.6006 108.693 10.3854 109.959Z" fill="#070A0B"/>
<path d="M217.571 133.883C217.065 133.946 216.464 134.041 215.862 134.041C213.014 134.136 210.166 134.231 207.318 134.295C204.976 134.358 202.603 134.579 200.261 134.326C196.78 133.978 193.33 133.82 189.881 134.421C189.406 134.516 188.9 134.516 188.394 134.548C187.286 134.579 186.906 133.852 186.685 132.712C187.159 132.491 187.697 132.079 188.235 132.048C189.596 131.953 190.989 131.795 192.318 132.079C195.672 132.776 198.963 132.427 202.318 132.206C206.4 131.921 210.482 131.795 214.565 131.636C215.293 131.605 216.052 131.731 216.748 131.921C217.634 132.206 217.888 132.871 217.571 133.883Z" fill="#070A0B"/>
<path d="M71.7152 133.883C71.2089 133.946 70.6076 134.041 70.0063 134.041C67.1582 134.136 64.31 134.231 61.4619 134.295C59.1201 134.358 56.7467 134.579 54.4049 134.326C50.9238 133.978 47.4744 133.82 44.025 134.421C43.5504 134.516 43.044 134.516 42.5377 134.548C41.4301 134.579 41.0503 133.852 40.8288 132.712C41.3035 132.491 41.8415 132.079 42.3794 132.048C43.7402 131.953 45.1326 131.795 46.4618 132.079C49.8162 132.776 53.1074 132.427 56.4619 132.206C60.5442 131.921 64.6265 131.795 68.7088 131.636C69.4367 131.605 70.1962 131.731 70.8924 131.921C71.7785 132.206 72 132.871 71.7152 133.883Z" fill="#070A0B"/>
<path d="M172.064 210.34C171.748 209.928 171.4 209.454 171.083 208.947C169.596 206.511 168.109 204.074 166.653 201.637C165.45 199.612 164.09 197.65 163.14 195.529C161.748 192.333 160.166 189.264 157.95 186.542C157.634 186.162 157.381 185.719 157.128 185.308C156.558 184.358 157.001 183.662 157.887 182.934C158.33 183.251 158.931 183.504 159.216 183.947C159.976 185.086 160.798 186.225 161.21 187.523C162.254 190.783 164.185 193.504 166.02 196.289C168.267 199.707 170.419 203.188 172.539 206.669C172.919 207.302 173.204 207.998 173.362 208.726C173.552 209.58 173.077 210.118 172.064 210.34Z" fill="#070A0B"/>
<path d="M100.26 83.3763C99.9434 82.9649 99.5953 82.4902 99.2788 81.9839C97.7914 79.5471 96.3041 77.1104 94.8484 74.6736C93.6458 72.6483 92.285 70.6863 91.3357 68.566C89.9432 65.3698 88.361 62.3001 86.1457 59.5786C85.8293 59.1988 85.5761 58.7558 85.3229 58.3444C84.7533 57.395 85.228 56.6988 86.0825 55.9709C86.5255 56.2874 87.1268 56.5405 87.4116 56.9836C88.1711 58.1228 88.9939 59.2621 89.4053 60.5596C90.4496 63.8191 92.38 66.5407 94.2155 69.3255C96.4623 72.7433 98.6142 76.2243 100.735 79.7054C101.114 80.3383 101.399 81.0345 101.557 81.7623C101.747 82.5851 101.304 83.1231 100.26 83.3763Z" fill="#070A0B"/>
<path d="M81.7786 207.523C82.0001 207.049 82.2533 206.511 82.5381 206.004C83.9622 203.536 85.3862 201.067 86.8419 198.631C88.0445 196.605 89.1204 194.485 90.5445 192.65C92.6964 189.896 94.6268 187.048 95.956 183.789C96.1458 183.346 96.399 182.903 96.6522 182.46C97.2218 181.51 98.0446 181.574 99.1205 181.985C99.0573 182.523 99.1206 183.156 98.8674 183.631C98.2345 184.833 97.6016 186.099 96.6838 187.08C94.3104 189.548 92.8547 192.523 91.2724 195.498C89.342 199.105 87.285 202.65 85.2596 206.194C84.9115 206.827 84.3736 207.397 83.8356 207.903C83.171 208.473 82.4748 208.314 81.7786 207.523Z" fill="#070A0B"/>
<path d="M159.153 83.8825C159.374 83.4078 159.628 82.8698 159.912 82.3635C161.336 79.8951 162.76 77.4267 164.216 74.99C165.419 72.9646 166.495 70.8444 167.919 69.0089C170.071 66.2557 172.001 63.4076 173.33 60.148C173.52 59.705 173.773 59.262 174.026 58.8189C174.596 57.8695 175.419 57.9328 176.495 58.3442C176.431 58.8822 176.495 59.5151 176.242 59.9898C175.609 61.1923 174.976 62.4582 174.058 63.4392C171.716 65.9076 170.229 68.8823 168.647 71.857C166.716 75.4646 164.659 79.009 162.634 82.5533C162.286 83.1863 161.748 83.7559 161.21 84.2622C160.545 84.8318 159.849 84.6736 159.153 83.8825Z" fill="#070A0B"/>
</svg>
