<svg width="199" height="50" viewBox="0 0 199 50" fill="none" xmlns="http://www.w3.org/2000/svg">
<path d="M30.9648 36.3819L22.0624 40.2523V39.8653C20.3462 40.3045 18.444 40.5579 16.6436 40.6393C8.27092 40.5579 1.62529 36.1762 1.54824 30.9633V29.0281C4.29799 33.0258 9.89621 35.7055 16.6436 35.6078C18.9256 35.7055 21.2612 35.3433 23.2236 34.8337L23.9977 32.8985C21.6705 33.5931 19.1303 34.0759 16.6436 34.0596C8.27092 34.0759 1.62529 29.6942 1.54824 24.3836V22.8354C4.29799 26.5317 9.88417 29.2114 16.6436 29.0281C19.6841 29.2114 22.6577 28.5716 25.1589 27.4799L25.5459 25.5447C23.1032 26.8334 19.9369 27.5818 16.6436 27.4799C8.27092 27.5818 1.62529 23.2001 1.54824 17.8039V16.2557C4.29799 20.0376 9.89621 22.7173 16.6436 22.8354C20.4787 22.7173 24.1145 21.7033 27.0942 20.1261L27.4812 17.8039C24.7766 19.8082 20.8278 21.0998 16.6436 21.2873C8.27092 21.0998 1.62529 16.7181 1.54824 11.2242C1.62529 5.9992 8.27092 1.61749 16.6436 1.54817C21.6344 1.61749 26.2695 3.36776 29.0295 6.19266L29.2983 6.64062L31.25 6.64833L30.9648 6.19266C28.2199 2.46245 22.73 0 16.6436 0C7.38002 0 0 5.10596 0 11.2242V11.6112V31.3503C0.325058 37.323 7.53653 42.1875 16.6436 42.1875C22.6577 42.1875 28.0633 39.8216 30.9648 36.3819Z" fill="#263238"/>
<path d="M27.3438 50L30.4688 36.7188L21.4844 40.625L26.9531 17.5781H16.4062L19.1406 6.25H52.7344L50 17.5781H39.0625L36.7188 23.8281L48.8281 18.75L27.3438 50ZM32.8125 33.9844L31.25 41.7969L44.1406 22.2656L33.5938 26.9531L38.2812 16.0156H48.8281L50.7812 7.8125H20.3125L18.3594 16.0156H28.9062L23.8281 37.8906L32.8125 33.9844Z" fill="#FABF2C"/>
<path d="M74.6909 14.6299C74.6909 15.7256 74.2952 16.5889 73.5039 17.2197C72.7181 17.8506 71.6224 18.166 70.2168 18.166C68.9219 18.166 67.7764 17.9225 66.7803 17.4355V15.0449C67.5993 15.4102 68.291 15.6675 68.8555 15.8169C69.4255 15.9663 69.9456 16.041 70.416 16.041C70.9805 16.041 71.4121 15.9331 71.7109 15.7173C72.0153 15.5015 72.1675 15.1805 72.1675 14.7544C72.1675 14.5164 72.1011 14.3062 71.9683 14.1235C71.8354 13.9354 71.639 13.7555 71.3789 13.584C71.1243 13.4124 70.6014 13.1385 69.8101 12.7622C69.0685 12.4136 68.5124 12.0788 68.1416 11.7578C67.7708 11.4368 67.4748 11.0633 67.2534 10.6372C67.0321 10.2111 66.9214 9.71305 66.9214 9.14307C66.9214 8.0695 67.2839 7.22559 68.0088 6.61133C68.7393 5.99707 69.7464 5.68994 71.0303 5.68994C71.6611 5.68994 72.2616 5.76465 72.8315 5.91406C73.4071 6.06348 74.0075 6.27376 74.6328 6.54492L73.8027 8.54541C73.1553 8.27979 72.6185 8.0944 72.1924 7.98926C71.7718 7.88411 71.3568 7.83154 70.9473 7.83154C70.4603 7.83154 70.0868 7.94499 69.8267 8.17188C69.5666 8.39876 69.4365 8.69482 69.4365 9.06006C69.4365 9.28695 69.4891 9.48617 69.5942 9.65771C69.6994 9.82373 69.8654 9.98698 70.0923 10.1475C70.3247 10.3024 70.8698 10.5846 71.7275 10.9941C72.862 11.5365 73.6395 12.0815 74.0601 12.6294C74.4806 13.1717 74.6909 13.8385 74.6909 14.6299ZM80.3139 11.5752H81.1605C81.9519 11.5752 82.544 11.4202 82.9369 11.1104C83.3298 10.7949 83.5263 10.3384 83.5263 9.74072C83.5263 9.13753 83.3603 8.69206 83.0282 8.4043C82.7017 8.11654 82.1871 7.97266 81.4843 7.97266H80.3139V11.5752ZM86.1244 9.64941C86.1244 10.9554 85.7149 11.9543 84.8959 12.646C84.0824 13.3377 82.9231 13.6836 81.4179 13.6836H80.3139V18H77.7406V5.86426H81.6171C83.0891 5.86426 84.2069 6.18245 84.9706 6.81885C85.7398 7.44971 86.1244 8.39323 86.1244 9.64941ZM91.8387 11.2515H92.6688C93.4822 11.2515 94.0827 11.1159 94.47 10.8447C94.8574 10.5736 95.0511 10.1475 95.0511 9.56641C95.0511 8.99089 94.8519 8.58138 94.4534 8.33789C94.0605 8.0944 93.449 7.97266 92.6189 7.97266H91.8387V11.2515ZM91.8387 13.3433V18H89.2654V5.86426H92.8016C94.4507 5.86426 95.6709 6.16585 96.4622 6.76904C97.2535 7.3667 97.6492 8.27702 97.6492 9.5C97.6492 10.2139 97.4528 10.8503 97.0599 11.4092C96.667 11.9626 96.1108 12.397 95.3914 12.7124C97.2176 15.4406 98.4074 17.2031 98.9607 18H96.1053L93.2083 13.3433H91.8387ZM101.338 18V5.86426H103.911V18H101.338ZM118.582 18H115.312L110.032 8.81934H109.958C110.063 10.4408 110.115 11.5973 110.115 12.2891V18H107.816V5.86426H111.062L116.333 14.9536H116.391C116.308 13.3765 116.266 12.2614 116.266 11.6084V5.86426H118.582V18ZM127.102 11.1851H131.917V17.4771C131.136 17.7316 130.4 17.9087 129.708 18.0083C129.022 18.1134 128.319 18.166 127.6 18.166C125.768 18.166 124.368 17.6292 123.4 16.5557C122.437 15.4766 121.956 13.9299 121.956 11.9155C121.956 9.95654 122.514 8.4292 123.632 7.3335C124.756 6.23779 126.311 5.68994 128.297 5.68994C129.542 5.68994 130.743 5.93896 131.9 6.43701L131.045 8.49561C130.16 8.0529 129.238 7.83154 128.281 7.83154C127.168 7.83154 126.278 8.20508 125.608 8.95215C124.938 9.69922 124.604 10.7036 124.604 11.9653C124.604 13.2824 124.872 14.2896 125.409 14.9868C125.951 15.6785 126.737 16.0244 127.766 16.0244C128.303 16.0244 128.848 15.9691 129.401 15.8584V13.3267H127.102V11.1851ZM135.663 5.86426H139.44C141.161 5.86426 142.409 6.11051 143.184 6.60303C143.964 7.09001 144.354 7.86751 144.354 8.93555C144.354 9.66048 144.183 10.2554 143.84 10.7202C143.502 11.1851 143.051 11.4645 142.487 11.5586V11.6416C143.256 11.8132 143.809 12.1341 144.147 12.6045C144.49 13.0749 144.662 13.7002 144.662 14.4805C144.662 15.5872 144.26 16.4505 143.458 17.0703C142.661 17.6901 141.576 18 140.204 18H135.663V5.86426ZM138.237 10.6704H139.731C140.428 10.6704 140.932 10.5625 141.242 10.3467C141.557 10.1309 141.715 9.77393 141.715 9.27588C141.715 8.81104 141.543 8.479 141.2 8.27979C140.863 8.07503 140.326 7.97266 139.59 7.97266H138.237V10.6704ZM138.237 12.7124V15.875H139.913C140.622 15.875 141.145 15.7394 141.482 15.4683C141.82 15.1971 141.989 14.7821 141.989 14.2231C141.989 13.216 141.269 12.7124 139.83 12.7124H138.237ZM158.95 11.9155C158.95 13.9243 158.452 15.4683 157.456 16.5474C156.46 17.6265 155.033 18.166 153.173 18.166C151.314 18.166 149.886 17.6265 148.89 16.5474C147.894 15.4683 147.396 13.9188 147.396 11.8989C147.396 9.87907 147.894 8.33789 148.89 7.27539C149.892 6.20736 151.325 5.67334 153.19 5.67334C155.055 5.67334 156.48 6.21012 157.465 7.28369C158.455 8.35726 158.95 9.9012 158.95 11.9155ZM150.094 11.9155C150.094 13.2713 150.351 14.2923 150.866 14.9785C151.38 15.6647 152.149 16.0078 153.173 16.0078C155.226 16.0078 156.253 14.6437 156.253 11.9155C156.253 9.1818 155.232 7.81494 153.19 7.81494C152.166 7.81494 151.394 8.16081 150.874 8.85254C150.354 9.53874 150.094 10.5597 150.094 11.9155ZM169.745 18L168.865 15.1113H164.441L163.561 18H160.788L165.071 5.81445H168.217L172.517 18H169.745ZM168.251 12.9531C167.437 10.3356 166.978 8.85531 166.873 8.51221C166.773 8.16911 166.701 7.89795 166.657 7.69873C166.474 8.40706 165.951 10.1585 165.088 12.9531H168.251ZM177.476 11.2515H178.306C179.12 11.2515 179.72 11.1159 180.108 10.8447C180.495 10.5736 180.689 10.1475 180.689 9.56641C180.689 8.99089 180.489 8.58138 180.091 8.33789C179.698 8.0944 179.087 7.97266 178.256 7.97266H177.476V11.2515ZM177.476 13.3433V18H174.903V5.86426H178.439C180.088 5.86426 181.308 6.16585 182.1 6.76904C182.891 7.3667 183.287 8.27702 183.287 9.5C183.287 10.2139 183.09 10.8503 182.697 11.4092C182.304 11.9626 181.748 12.397 181.029 12.7124C182.855 15.4406 184.045 17.2031 184.598 18H181.743L178.846 13.3433H177.476ZM197.044 11.8159C197.044 13.8136 196.474 15.3438 195.334 16.4062C194.2 17.4688 192.559 18 190.412 18H186.976V5.86426H190.786C192.767 5.86426 194.305 6.38721 195.401 7.43311C196.497 8.479 197.044 9.93994 197.044 11.8159ZM194.372 11.8823C194.372 9.27588 193.221 7.97266 190.918 7.97266H189.549V15.875H190.653C193.132 15.875 194.372 14.5441 194.372 11.8823Z" fill="#243037"/>
</svg>
