<svg width="172" height="50" viewBox="0 0 172 50" fill="none" xmlns="http://www.w3.org/2000/svg">
<path d="M30.9648 36.3819L22.0624 40.2523V39.8653C20.3462 40.3045 18.444 40.5579 16.6436 40.6393C8.27092 40.5579 1.62529 36.1762 1.54824 30.9633V29.0281C4.29799 33.0258 9.89621 35.7055 16.6436 35.6078C18.9256 35.7055 21.2612 35.3433 23.2236 34.8337L23.9977 32.8985C21.6705 33.5931 19.1303 34.0759 16.6436 34.0596C8.27092 34.0759 1.62529 29.6942 1.54824 24.3836V22.8354C4.29799 26.5317 9.88417 29.2114 16.6436 29.0281C19.6841 29.2114 22.6577 28.5716 25.1589 27.4799L25.5459 25.5447C23.1032 26.8334 19.9369 27.5818 16.6436 27.4799C8.27092 27.5818 1.62529 23.2001 1.54824 17.8039V16.2557C4.29799 20.0376 9.89621 22.7173 16.6436 22.8354C20.4787 22.7173 24.1145 21.7033 27.0942 20.1261L27.4812 17.8039C24.7766 19.8082 20.8278 21.0998 16.6436 21.2873C8.27092 21.0998 1.62529 16.7181 1.54824 11.2242C1.62529 5.9992 8.27092 1.61749 16.6436 1.54817C21.6344 1.61749 26.2695 3.36776 29.0295 6.19266L29.2983 6.64062L31.25 6.64833L30.9648 6.19266C28.2199 2.46245 22.73 0 16.6436 0C7.38002 0 0 5.10596 0 11.2242V11.6112V31.3503C0.325058 37.323 7.53653 42.1875 16.6436 42.1875C22.6577 42.1875 28.0633 39.8216 30.9648 36.3819Z" fill="#1A1A18"/>
<path d="M27.3438 50L30.4688 36.7188L21.4844 40.625L26.9531 17.5781H16.4062L19.1406 6.25H52.7344L50 17.5781H39.0625L36.7188 23.8281L48.8281 18.75L27.3438 50ZM32.8125 33.9844L31.25 41.7969L44.1406 22.2656L33.5938 26.9531L38.2812 16.0156H48.8281L50.7812 7.8125H20.3125L18.3594 16.0156H28.9062L23.8281 37.8906L32.8125 33.9844Z" fill="#FEDA02"/>
<path d="M73.8398 28.5107C73.8398 29.6533 73.4268 30.5498 72.6006 31.2002C71.7744 31.8506 70.6348 32.1758 69.1816 32.1758C67.7285 32.1758 66.5391 31.9502 65.6133 31.499V29.5127C66.1992 29.7881 66.8203 30.0049 67.4766 30.1631C68.1387 30.3213 68.7539 30.4004 69.3223 30.4004C70.1543 30.4004 70.7666 30.2422 71.1592 29.9258C71.5576 29.6094 71.7568 29.1846 71.7568 28.6514C71.7568 28.1709 71.5752 27.7637 71.2119 27.4297C70.8486 27.0957 70.0986 26.7002 68.9619 26.2432C67.79 25.7686 66.9639 25.2266 66.4834 24.6172C66.0029 24.0078 65.7627 23.2754 65.7627 22.4199C65.7627 21.3477 66.1436 20.5039 66.9053 19.8887C67.667 19.2734 68.6895 18.9658 69.9727 18.9658C71.2031 18.9658 72.4277 19.2354 73.6465 19.7744L72.9785 21.4883C71.8359 21.0078 70.8164 20.7676 69.9199 20.7676C69.2402 20.7676 68.7246 20.917 68.373 21.2158C68.0215 21.5088 67.8457 21.8984 67.8457 22.3848C67.8457 22.7188 67.916 23.0059 68.0566 23.2461C68.1973 23.4805 68.4287 23.7031 68.751 23.9141C69.0732 24.125 69.6533 24.4033 70.4912 24.749C71.4346 25.1416 72.126 25.5078 72.5654 25.8477C73.0049 26.1875 73.3271 26.5713 73.5322 26.999C73.7373 27.4268 73.8398 27.9307 73.8398 28.5107ZM81.0381 32.1758C79.8076 32.1758 78.8525 31.7334 78.1729 30.8486H78.0498C78.1318 31.6689 78.1729 32.167 78.1729 32.3428V36.3242H76.1074V22.2793H77.7773C77.8242 22.4609 77.9209 22.8945 78.0674 23.5801H78.1729C78.8174 22.5957 79.7842 22.1035 81.0732 22.1035C82.2861 22.1035 83.2295 22.543 83.9033 23.4219C84.583 24.3008 84.9229 25.5342 84.9229 27.1221C84.9229 28.71 84.5771 29.9492 83.8857 30.8398C83.2002 31.7305 82.251 32.1758 81.0381 32.1758ZM80.5371 23.791C79.7168 23.791 79.1162 24.0312 78.7354 24.5117C78.3604 24.9922 78.1729 25.7598 78.1729 26.8145V27.1221C78.1729 28.3057 78.3604 29.1641 78.7354 29.6973C79.1104 30.2246 79.7227 30.4883 80.5723 30.4883C81.2871 30.4883 81.8379 30.1953 82.2246 29.6094C82.6113 29.0234 82.8047 28.1885 82.8047 27.1045C82.8047 26.0146 82.6113 25.1914 82.2246 24.6348C81.8438 24.0723 81.2812 23.791 80.5371 23.791ZM92.2529 22.1035C92.6689 22.1035 93.0117 22.1328 93.2812 22.1914L93.0791 24.1162C92.7861 24.0459 92.4814 24.0107 92.165 24.0107C91.3389 24.0107 90.668 24.2803 90.1523 24.8193C89.6426 25.3584 89.3877 26.0586 89.3877 26.9199V32H87.3223V22.2793H88.9395L89.2119 23.9932H89.3174C89.6396 23.4131 90.0586 22.9531 90.5742 22.6133C91.0957 22.2734 91.6553 22.1035 92.2529 22.1035ZM97.1572 32H95.0918V22.2793H97.1572V32ZM94.9688 19.7041C94.9688 19.335 95.0684 19.0508 95.2676 18.8516C95.4727 18.6523 95.7627 18.5527 96.1377 18.5527C96.501 18.5527 96.7822 18.6523 96.9814 18.8516C97.1865 19.0508 97.2891 19.335 97.2891 19.7041C97.2891 20.0557 97.1865 20.334 96.9814 20.5391C96.7822 20.7383 96.501 20.8379 96.1377 20.8379C95.7627 20.8379 95.4727 20.7383 95.2676 20.5391C95.0684 20.334 94.9688 20.0557 94.9688 19.7041ZM108.671 32H106.597V26.0234C106.597 25.2734 106.444 24.7139 106.14 24.3447C105.841 23.9756 105.363 23.791 104.707 23.791C103.834 23.791 103.195 24.0488 102.791 24.5645C102.387 25.0801 102.185 25.9443 102.185 27.1572V32H100.119V22.2793H101.736L102.026 23.5537H102.132C102.425 23.0908 102.841 22.7334 103.38 22.4814C103.919 22.2295 104.517 22.1035 105.173 22.1035C107.505 22.1035 108.671 23.29 108.671 25.6631V32ZM119.754 22.2793V23.4131L118.093 23.7207C118.245 23.9258 118.371 24.1777 118.471 24.4766C118.57 24.7754 118.62 25.0918 118.62 25.4258C118.62 26.4277 118.274 27.2158 117.583 27.79C116.892 28.3643 115.939 28.6514 114.727 28.6514C114.416 28.6514 114.135 28.6279 113.883 28.5811C113.438 28.8564 113.215 29.1787 113.215 29.5479C113.215 29.7705 113.317 29.9375 113.522 30.0488C113.733 30.1602 114.117 30.2158 114.674 30.2158H116.37C117.442 30.2158 118.257 30.4443 118.813 30.9014C119.37 31.3584 119.648 32.0176 119.648 32.8789C119.648 33.9805 119.194 34.8301 118.286 35.4277C117.378 36.0254 116.065 36.3242 114.349 36.3242C113.024 36.3242 112.014 36.0898 111.316 35.6211C110.619 35.1523 110.271 34.4844 110.271 33.6172C110.271 33.0195 110.458 32.5156 110.833 32.1055C111.214 31.7012 111.744 31.4199 112.424 31.2617C112.148 31.1445 111.92 30.957 111.738 30.6992C111.562 30.4355 111.475 30.1602 111.475 29.873C111.475 29.5098 111.577 29.2021 111.782 28.9502C111.987 28.6982 112.292 28.4492 112.696 28.2031C112.192 27.9863 111.782 27.6348 111.466 27.1484C111.155 26.6562 111 26.082 111 25.4258C111 24.3711 111.331 23.5537 111.993 22.9736C112.661 22.3936 113.61 22.1035 114.841 22.1035C115.116 22.1035 115.403 22.124 115.702 22.165C116.007 22.2002 116.235 22.2383 116.388 22.2793H119.754ZM112.116 33.5117C112.116 33.957 112.315 34.2998 112.714 34.54C113.118 34.7803 113.684 34.9004 114.41 34.9004C115.535 34.9004 116.373 34.7393 116.924 34.417C117.475 34.0947 117.75 33.667 117.75 33.1338C117.75 32.7119 117.598 32.4102 117.293 32.2285C116.994 32.0527 116.435 31.9648 115.614 31.9648H114.05C113.458 31.9648 112.986 32.1025 112.635 32.3779C112.289 32.6592 112.116 33.0371 112.116 33.5117ZM113.004 25.4258C113.004 26.0352 113.159 26.5039 113.47 26.832C113.786 27.1602 114.237 27.3242 114.823 27.3242C116.019 27.3242 116.616 26.6855 116.616 25.4082C116.616 24.7754 116.467 24.2891 116.168 23.9492C115.875 23.6035 115.427 23.4307 114.823 23.4307C114.226 23.4307 113.771 23.6006 113.461 23.9404C113.156 24.2803 113.004 24.7754 113.004 25.4258ZM126.53 22.1035C127.743 22.1035 128.687 22.543 129.36 23.4219C130.04 24.3008 130.38 25.5342 130.38 27.1221C130.38 28.7158 130.037 29.958 129.352 30.8486C128.666 31.7334 127.714 32.1758 126.495 32.1758C125.265 32.1758 124.31 31.7334 123.63 30.8486H123.489L123.111 32H121.564V18.3242H123.63V21.5762C123.63 21.8164 123.618 22.1738 123.595 22.6484C123.571 23.123 123.554 23.4248 123.542 23.5537H123.63C124.286 22.5869 125.253 22.1035 126.53 22.1035ZM125.994 23.791C125.162 23.791 124.562 24.0371 124.192 24.5293C123.829 25.0156 123.642 25.833 123.63 26.9814V27.1221C123.63 28.3057 123.817 29.1641 124.192 29.6973C124.567 30.2246 125.18 30.4883 126.029 30.4883C126.762 30.4883 127.315 30.1982 127.69 29.6182C128.071 29.0381 128.262 28.2002 128.262 27.1045C128.262 24.8955 127.506 23.791 125.994 23.791ZM141.401 27.1221C141.401 28.71 140.994 29.9492 140.18 30.8398C139.365 31.7305 138.231 32.1758 136.778 32.1758C135.87 32.1758 135.067 31.9707 134.37 31.5605C133.673 31.1504 133.137 30.5615 132.762 29.7939C132.387 29.0264 132.199 28.1357 132.199 27.1221C132.199 25.5459 132.604 24.3154 133.412 23.4307C134.221 22.5459 135.36 22.1035 136.831 22.1035C138.237 22.1035 139.351 22.5576 140.171 23.4658C140.991 24.3682 141.401 25.5869 141.401 27.1221ZM134.326 27.1221C134.326 29.3662 135.155 30.4883 136.813 30.4883C138.454 30.4883 139.274 29.3662 139.274 27.1221C139.274 24.9014 138.448 23.791 136.796 23.791C135.929 23.791 135.299 24.0781 134.906 24.6523C134.52 25.2266 134.326 26.0498 134.326 27.1221ZM149.865 32L149.452 30.6465H149.382C148.913 31.2383 148.441 31.6426 147.967 31.8594C147.492 32.0703 146.883 32.1758 146.139 32.1758C145.184 32.1758 144.437 31.918 143.897 31.4023C143.364 30.8867 143.098 30.1572 143.098 29.2139C143.098 28.2119 143.47 27.4561 144.214 26.9463C144.958 26.4365 146.092 26.1582 147.615 26.1113L149.294 26.0586V25.54C149.294 24.9189 149.147 24.4561 148.854 24.1514C148.567 23.8408 148.119 23.6855 147.51 23.6855C147.012 23.6855 146.534 23.7588 146.077 23.9053C145.62 24.0518 145.181 24.2246 144.759 24.4238L144.091 22.9473C144.618 22.6719 145.195 22.4639 145.822 22.3232C146.449 22.1768 147.041 22.1035 147.598 22.1035C148.834 22.1035 149.766 22.373 150.393 22.9121C151.025 23.4512 151.342 24.2979 151.342 25.4521V32H149.865ZM146.789 30.5938C147.539 30.5938 148.14 30.3857 148.591 29.9697C149.048 29.5479 149.276 28.959 149.276 28.2031V27.3594L148.028 27.4121C147.056 27.4473 146.347 27.6113 145.901 27.9043C145.462 28.1914 145.242 28.6338 145.242 29.2314C145.242 29.665 145.371 30.002 145.629 30.2422C145.887 30.4766 146.273 30.5938 146.789 30.5938ZM159.155 22.1035C159.571 22.1035 159.914 22.1328 160.184 22.1914L159.981 24.1162C159.688 24.0459 159.384 24.0107 159.067 24.0107C158.241 24.0107 157.57 24.2803 157.055 24.8193C156.545 25.3584 156.29 26.0586 156.29 26.9199V32H154.225V22.2793H155.842L156.114 23.9932H156.22C156.542 23.4131 156.961 22.9531 157.477 22.6133C157.998 22.2734 158.558 22.1035 159.155 22.1035ZM165.272 32.1758C164.06 32.1758 163.113 31.7363 162.434 30.8574C161.754 29.9785 161.414 28.7451 161.414 27.1572C161.414 25.5635 161.757 24.3242 162.442 23.4395C163.134 22.5488 164.089 22.1035 165.308 22.1035C166.585 22.1035 167.558 22.5752 168.226 23.5186H168.331C168.231 22.8213 168.182 22.2705 168.182 21.8662V18.3242H170.256V32H168.639L168.278 30.7256H168.182C167.52 31.6924 166.55 32.1758 165.272 32.1758ZM165.826 30.5059C166.676 30.5059 167.294 30.2686 167.681 29.7939C168.067 29.3135 168.267 28.5371 168.278 27.4648V27.1748C168.278 25.9502 168.079 25.0801 167.681 24.5645C167.282 24.0488 166.658 23.791 165.809 23.791C165.082 23.791 164.522 24.0869 164.13 24.6787C163.737 25.2646 163.541 26.1025 163.541 27.1924C163.541 28.2705 163.731 29.0938 164.112 29.6621C164.493 30.2246 165.064 30.5059 165.826 30.5059Z" fill="#243037"/>
</svg>
