<svg width="68" height="64" viewBox="0 0 68 64" fill="none" xmlns="http://www.w3.org/2000/svg">
<path d="M67.1595 22.8288C65.8694 19.3188 61.8261 19.9891 58.698 19.881C53.97 19.7152 49.2059 20.2054 44.4923 19.9603C43.3679 15.989 42.4165 11.9673 41.3354 7.98161C40.4129 4.57251 38.7912 0.71656 34.8416 0.0823096C31.6271 -0.436623 29.8108 1.55982 28.7441 4.33467C26.7405 9.5384 25.5873 14.9439 23.3386 20.0828C18.0628 20.0684 12.7077 19.9819 7.45349 20.2774C5.01019 20.4144 1.8101 20.6162 0.79386 23.2325C-0.36653 26.2019 1.5074 28.5083 3.70565 30.1732C5.53633 31.557 7.48233 32.7967 9.34904 34.1372C11.4752 35.6652 14.4663 37.258 16.0952 39.2473C17.7024 41.2077 15.2303 45.3592 14.4375 47.5574C13.587 49.9142 12.5707 52.2782 12.0086 54.7288C11.3743 57.4892 11.1437 61.6767 13.9257 63.4857C16.7222 65.302 20.4196 61.8424 22.5602 60.3073C26.5098 57.482 30.164 54.2747 34.2578 51.644C37.8759 55.1396 41.703 58.4334 45.804 61.3524C48.2041 63.0605 51.7141 65.1146 54.6115 63.2047C57.271 61.4533 57.1485 57.8928 56.2764 55.2189C54.6763 50.289 53.0763 45.3736 51.5339 40.4149C55.5917 37.4959 59.6062 34.4616 63.5558 31.3984C66.3019 29.265 68.4929 26.4686 67.1595 22.8288ZM58.1215 32.7174C55.325 34.8436 52.579 37.0274 49.7176 39.0743C49.3357 39.3482 49.069 39.8095 49.2203 40.2923C50.251 43.6077 50.9934 47.0024 52.0889 50.2962C52.961 52.9197 55.5412 56.8189 54.4457 59.6154C51.815 66.3759 37.8182 52.1269 35.1443 49.5106C34.8055 49.1791 34.2434 49.0854 33.8325 49.3448C31.2379 50.9521 28.809 52.7755 26.4089 54.6567C23.8215 56.682 20.6791 59.8748 17.5222 61.0064C16.2609 61.4605 14.9492 61.3235 14.005 59.9037C13.5942 59.291 13.7311 57.8784 13.7744 57.1432C13.8753 55.4567 14.5095 53.763 15.0573 52.1773C16.4699 48.1052 17.9907 44.069 19.4538 40.0185C19.5691 39.6941 19.4466 39.1896 19.1727 38.9662C16.7654 37.0058 14.3221 35.0958 11.814 33.2579C9.42111 31.5065 4.18134 29.1425 3.1723 26.3028C1.43532 21.3946 9.49319 22.4252 12.3185 22.3892C16.2033 22.3387 20.0808 22.2378 23.9656 22.2378C24.3548 22.3243 24.7657 22.1874 24.9819 21.7045C26.3297 18.7422 27.4901 15.7151 28.4847 12.6088C29.436 9.63931 30.4739 1.31477 34.8632 2.44633C39.0435 3.52744 39.5048 9.76904 40.4561 13.2646C41.1841 15.9314 41.8472 18.6197 42.6184 21.2721C42.7625 21.7549 43.1733 22.0288 43.6634 22.0648C46.3806 22.2667 49.0978 22.0432 51.8222 21.9928C54.9646 21.9351 59.1305 21.3585 62.172 22.2162C70.5758 24.5947 60.2549 31.0957 58.1215 32.7174Z" fill="#243037"/>
<path d="M19.9295 25.5749C18.142 26.4542 16.5204 27.6074 15.0933 28.9984C14.3438 29.7263 15.4897 30.8723 16.2393 30.1444C17.5727 28.8398 19.079 27.7947 20.7511 26.9731C21.6881 26.5118 20.8664 25.1136 19.9295 25.5749Z" fill="#FABF2B"/>
<path d="M25.6377 26.6487C23.1728 27.6434 20.8376 28.8686 18.6394 30.3678C17.7817 30.9516 18.5889 32.357 19.461 31.766C21.5439 30.3461 23.7422 29.1569 26.0774 28.2127C27.0216 27.8235 26.6035 26.2595 25.6377 26.6487Z" fill="#FABF2B"/>
</svg>
